<?xml version="1.0" standalone="no"?>
 <!DOCTYPE svg PUBLIC "-//W3C//DTD SVG 1.1//EN" 
 "http://www.w3.org/Graphics/SVG/1.1/DTD/svg11.dtd"> 
<svg
  xmlns:svg="http://www.w3.org/2000/svg"
  xmlns="http://www.w3.org/2000/svg"
  xmlns:xlink="http://www.w3.org/1999/xlink"
  version="1.1"
  width="29.700220cm" height="21.000720cm" viewBox="0 0 116930 82680">
<title>SVG Picture created as KitchenTimer-F_SilkS.svg date 2021/10/03 15:41:32 </title>
  <desc>Picture generated by PCBNEW </desc>
<g style="fill:#000000; fill-opacity:1;stroke:#000000; stroke-opacity:1;
stroke-linecap:round; stroke-linejoin:round;"
 transform="translate(0 0) scale(1 1)">
</g>
<g style="fill:#000000; fill-opacity:0.0; 
stroke:#000000; stroke-width:-0.000393701; stroke-opacity:1; 
stroke-linecap:round; stroke-linejoin:round;">
</g>
<g style="fill:#000000; fill-opacity:0.0; 
stroke:#000000; stroke-width:47.2441; stroke-opacity:1; 
stroke-linecap:round; stroke-linejoin:round;">
<path d="M29413 11157
L28853 11157
" />
<path d="M29413 11874
L28853 11874
" />
<path d="M9803 15944
L29566 15944
" />
<path d="M29566 15944
L29566 23425
" />
<path d="M29566 23425
L9803 23425
" />
<path d="M9803 23425
L9803 15944
" />
<path d="M19685 19291
L19685 20078
" />
<path d="M19685 20078
L20078 19685
" />
<path d="M20078 19685
L19291 19685
" />
<path d="M19291 19685
L19685 19291
" />
<circle cx="19685" cy="19685" r="688.976" /> 
<path d="M19685 19291
L19685 18996
" />
<path d="M20078 19685
L20374 19685
" />
<path d="M19685 20078
L19685 20374
" />
<path d="M19291 19685
L18996 19685
" />
<path d="M19980 19291
L19980 19488
" />
<path d="M19980 19488
L19881 19389
" />
<path d="M19881 19389
L19980 19291
" />
<path d="M19389 19881
L19488 19980
" />
<path d="M19389 20078
L19389 19881
" />
<path d="M19488 19980
L19389 20078
" />
<path d="M19980 19389
L20078 19488
" />
<path d="M19980 19389
L20078 19291
" />
<path d="M19389 19980
L19192 19783
" />
<path d="M19192 19783
L19389 19980
" />
<path d="M20078 19488
L20177 19586
" />
<path d="M19389 19980
L19291 20078
" />
<path d="M19881 20078
L20078 19881
" />
<path d="M19291 19488
L19488 19291
" />
<path d="M19291 19291
L19389 19389
" />
<path d="M19980 19980
L20078 20078
" />
<path d="M29413 10889
L28853 10889
" />
<path d="M29413 10173
L28853 10173
" />
<path d="M16125 9488
L23212 9488
" />
<path d="M23212 7125
L16125 7125
" />
<path d="M23212 15000
L23212 7125
" />
<path d="M16125 15000
L23212 15000
" />
<path d="M16125 7125
L16125 15000
" />
<path d="M33562 14370
L33562 15255
" />
<path d="M33562 15255
L33366 15452
" />
<path d="M33366 15452
L32381 15452
" />
<path d="M31889 15157
L31889 14566
" />
<path d="M32381 15452
L31889 15157
" />
<path d="M32381 14271
L32381 13188
" />
<path d="M33858 14173
L33562 14370
" />
<path d="M33858 13188
L33858 14173
" />
<path d="M31889 14566
L32381 14271
" />
<path d="M33858 13188
L33858 12204
" />
<path d="M33858 12204
L33562 12007
" />
<path d="M33562 12007
L33562 11122
" />
<path d="M33562 11122
L33366 10925
" />
<path d="M33366 10925
L32381 10925
" />
<path d="M32381 10925
L31889 11220
" />
<path d="M31889 11220
L31889 11811
" />
<path d="M31889 11811
L32381 12106
" />
<path d="M32381 12106
L32381 13188
" />
<path d="M31889 11515
L30905 12204
" />
<path d="M30905 12204
L30905 14173
" />
<path d="M30905 14173
L31889 14862
" />
<path d="M30905 12204
L31102 12598
" />
<path d="M31102 12598
L31102 13188
" />
<path d="M31102 13188
L31102 13779
" />
<path d="M31102 13779
L30905 14173
" />
<path d="M31102 13779
L31496 13976
" />
<path d="M31102 12598
L31496 12401
" />
<path d="M29413 9905
L28853 9905
" />
<path d="M29413 9188
L28853 9188
" />
<path d="M29413 12141
L28853 12141
" />
<path d="M29413 12858
L28853 12858
" />
<path d="M28201 7560
L28201 8084
" />
<path d="M27677 7560
L28201 7560
" />
<path d="M27177 7560
L27177 8608
" />
<path d="M27177 8608
L24154 8608
" />
<path d="M27177 7560
L24154 7560
" />
<path d="M24154 7560
L24154 8608
" />
<path d="M14960 24212
L17322 24212
" />
<path d="M17322 24212
L17322 26574
" />
<path d="M14960 26574
L14960 24212
" />
<circle cx="16141.7" cy="25393.7" r="688.976" /> 
<path d="M17322 26574
L14960 26574
" />
<path d="M10629 24212
L12992 24212
" />
<path d="M12992 24212
L12992 26574
" />
<path d="M10629 26574
L10629 24212
" />
<circle cx="11811" cy="25393.7" r="688.976" /> 
<path d="M12992 26574
L10629 26574
" />
<path d="M26377 24212
L28740 24212
" />
<path d="M28740 24212
L28740 26574
" />
<path d="M26377 26574
L26377 24212
" />
<circle cx="27559.1" cy="25393.7" r="688.976" /> 
<path d="M28740 26574
L26377 26574
" />
<path d="M22047 24212
L24409 24212
" />
<path d="M24409 24212
L24409 26574
" />
<path d="M22047 26574
L22047 24212
" />
<circle cx="23228.3" cy="25393.7" r="688.976" /> 
<path d="M24409 26574
L22047 26574
" />
<path d="M12834 10665
L11377 10665
" />
<path d="M11377 10665
L11377 8263
" />
<path d="M11377 8263
L12834 8263
" />
<path d="M12834 8263
L12834 10665
" />
<path d="M11377 9464
L11377 8263
" />
<path d="M14311 10665
L12854 10665
" />
<path d="M12854 10665
L12854 8263
" />
<path d="M12854 8263
L14311 8263
" />
<path d="M14311 8263
L14311 10665
" />
<path d="M12854 9464
L12854 8263
" />
</g>
<g style="fill:#000000; fill-opacity:0.0; 
stroke:#000000; stroke-width:59.0551; stroke-opacity:1; 
stroke-linecap:round; stroke-linejoin:round;">
<text x="27559.1" y="11712.6"
textLength="1143.61" font-size="524.934" lengthAdjust="spacingAndGlyphs"
text-anchor="middle" opacity="0">C10</text>
<path d="M27305 11656
L27287 11675
L27230 11693
L27193 11693
L27137 11675
L27099 11637
L27080 11600
L27062 11525
L27062 11468
L27080 11393
L27099 11356
L27137 11318
L27193 11300
L27230 11300
L27287 11318
L27305 11337
" />
<path d="M27680 11693
L27455 11693
" />
<path d="M27568 11693
L27568 11300
L27530 11356
L27493 11393
L27455 11412
" />
<path d="M27924 11300
L27962 11300
L27999 11318
L28018 11337
L28037 11375
L28055 11450
L28055 11543
L28037 11618
L28018 11656
L27999 11675
L27962 11693
L27924 11693
L27887 11675
L27868 11656
L27849 11618
L27830 11543
L27830 11450
L27849 11375
L27868 11337
L27887 11318
L27924 11300
" />
<text x="28307.1" y="16732.3"
textLength="1520.34" font-size="524.934" lengthAdjust="spacingAndGlyphs"
text-anchor="middle" opacity="0">LED1</text>
<path d="M27866 16713
L27679 16713
L27679 16319
" />
<path d="M27997 16507
L28128 16507
" />
<path d="M28185 16713
L27997 16713
L27997 16319
L28185 16319
" />
<path d="M28353 16713
L28353 16319
L28447 16319
L28503 16338
L28541 16376
L28560 16413
L28578 16488
L28578 16544
L28560 16619
L28541 16657
L28503 16694
L28447 16713
L28353 16713
" />
<path d="M28953 16713
L28728 16713
" />
<path d="M28841 16713
L28841 16319
L28803 16376
L28766 16413
L28728 16432
" />
<text x="27559.1" y="10728.3"
textLength="1220.38" font-size="524.934" lengthAdjust="spacingAndGlyphs"
text-anchor="middle" opacity="0">C12</text>
<path d="M27305 10672
L27287 10690
L27230 10709
L27193 10709
L27137 10690
L27099 10653
L27080 10615
L27062 10540
L27062 10484
L27080 10409
L27099 10372
L27137 10334
L27193 10315
L27230 10315
L27287 10334
L27305 10353
" />
<path d="M27680 10709
L27455 10709
" />
<path d="M27568 10709
L27568 10315
L27530 10372
L27493 10409
L27455 10428
" />
<path d="M27830 10353
L27849 10334
L27887 10315
L27980 10315
L28018 10334
L28037 10353
L28055 10390
L28055 10428
L28037 10484
L27812 10709
L28055 10709
" />
<text x="17322.8" y="10433.1"
textLength="864.173" font-size="524.934" lengthAdjust="spacingAndGlyphs"
text-anchor="middle" opacity="0">U1</text>
<path d="M17022 10020
L17022 10339
L17041 10376
L17060 10395
L17097 10414
L17172 10414
L17210 10395
L17229 10376
L17247 10339
L17247 10020
" />
<path d="M17641 10414
L17416 10414
" />
<path d="M17529 10414
L17529 10020
L17491 10076
L17454 10114
L17416 10133
" />
<text x="32874" y="16141.7"
textLength="751.687" font-size="524.934" lengthAdjust="spacingAndGlyphs"
text-anchor="middle" opacity="0">J2</text>
<path d="M32742 15729
L32742 16010
L32724 16066
L32686 16104
L32630 16122
L32592 16122
" />
<path d="M32911 15766
L32930 15748
L32967 15729
L33061 15729
L33098 15748
L33117 15766
L33136 15804
L33136 15841
L33117 15898
L32892 16122
L33136 16122
" />
<text x="27559.1" y="9744.09"
textLength="1220.38" font-size="524.934" lengthAdjust="spacingAndGlyphs"
text-anchor="middle" opacity="0">C13</text>
<path d="M27305 9687
L27287 9706
L27230 9725
L27193 9725
L27137 9706
L27099 9669
L27080 9631
L27062 9556
L27062 9500
L27080 9425
L27099 9387
L27137 9350
L27193 9331
L27230 9331
L27287 9350
L27305 9369
" />
<path d="M27680 9725
L27455 9725
" />
<path d="M27568 9725
L27568 9331
L27530 9387
L27493 9425
L27455 9444
" />
<path d="M27812 9331
L28055 9331
L27924 9481
L27980 9481
L28018 9500
L28037 9519
L28055 9556
L28055 9650
L28037 9687
L28018 9706
L27980 9725
L27868 9725
L27830 9706
L27812 9687
" />
<text x="27559.1" y="12696.9"
textLength="845.426" font-size="524.934" lengthAdjust="spacingAndGlyphs"
text-anchor="middle" opacity="0">C9</text>
<path d="M27493 12640
L27474 12659
L27418 12678
L27380 12678
L27324 12659
L27287 12621
L27268 12584
L27249 12509
L27249 12453
L27268 12378
L27287 12340
L27324 12303
L27380 12284
L27418 12284
L27474 12303
L27493 12321
" />
<path d="M27680 12678
L27755 12678
L27793 12659
L27812 12640
L27849 12584
L27868 12509
L27868 12359
L27849 12321
L27830 12303
L27793 12284
L27718 12284
L27680 12303
L27662 12321
L27643 12359
L27643 12453
L27662 12490
L27680 12509
L27718 12528
L27793 12528
L27830 12509
L27849 12490
L27868 12453
" />
<text x="23720.5" y="8267.72"
textLength="751.687" font-size="524.934" lengthAdjust="spacingAndGlyphs"
text-anchor="middle" opacity="0">J1</text>
<path d="M23589 7855
L23589 8136
L23570 8192
L23532 8230
L23476 8248
L23439 8248
" />
<path d="M23982 8248
L23757 8248
" />
<path d="M23870 8248
L23870 7855
L23832 7911
L23795 7949
L23757 7967
" />
<text x="16141.7" y="25590.6"
textLength="1276.62" font-size="524.934" lengthAdjust="spacingAndGlyphs"
text-anchor="middle" opacity="0">SW6</text>
<path d="M15616 25553
L15673 25571
L15766 25571
L15804 25553
L15823 25534
L15841 25496
L15841 25459
L15823 25421
L15804 25403
L15766 25384
L15691 25365
L15654 25346
L15635 25328
L15616 25290
L15616 25253
L15635 25215
L15654 25196
L15691 25178
L15785 25178
L15841 25196
" />
<path d="M15973 25178
L16066 25571
L16141 25290
L16216 25571
L16310 25178
" />
<path d="M16629 25178
L16554 25178
L16516 25196
L16497 25215
L16460 25271
L16441 25346
L16441 25496
L16460 25534
L16479 25553
L16516 25571
L16591 25571
L16629 25553
L16647 25534
L16666 25496
L16666 25403
L16647 25365
L16629 25346
L16591 25328
L16516 25328
L16479 25346
L16460 25365
L16441 25403
" />
<text x="11811" y="25590.6"
textLength="1276.62" font-size="524.934" lengthAdjust="spacingAndGlyphs"
text-anchor="middle" opacity="0">SW5</text>
<path d="M11286 25553
L11342 25571
L11436 25571
L11473 25553
L11492 25534
L11511 25496
L11511 25459
L11492 25421
L11473 25403
L11436 25384
L11361 25365
L11323 25346
L11304 25328
L11286 25290
L11286 25253
L11304 25215
L11323 25196
L11361 25178
L11454 25178
L11511 25196
" />
<path d="M11642 25178
L11736 25571
L11811 25290
L11886 25571
L11979 25178
" />
<path d="M12317 25178
L12129 25178
L12110 25365
L12129 25346
L12167 25328
L12260 25328
L12298 25346
L12317 25365
L12335 25403
L12335 25496
L12317 25534
L12298 25553
L12260 25571
L12167 25571
L12129 25553
L12110 25534
" />
<text x="27559.1" y="25590.6"
textLength="1276.62" font-size="524.934" lengthAdjust="spacingAndGlyphs"
text-anchor="middle" opacity="0">SW4</text>
<path d="M27034 25553
L27090 25571
L27184 25571
L27221 25553
L27240 25534
L27259 25496
L27259 25459
L27240 25421
L27221 25403
L27184 25384
L27109 25365
L27071 25346
L27052 25328
L27034 25290
L27034 25253
L27052 25215
L27071 25196
L27109 25178
L27202 25178
L27259 25196
" />
<path d="M27390 25178
L27484 25571
L27559 25290
L27634 25571
L27727 25178
" />
<path d="M28046 25309
L28046 25571
" />
<path d="M27952 25159
L27859 25440
L28102 25440
" />
<text x="23228.3" y="25590.6"
textLength="1276.62" font-size="524.934" lengthAdjust="spacingAndGlyphs"
text-anchor="middle" opacity="0">SW3</text>
<path d="M22703 25553
L22759 25571
L22853 25571
L22890 25553
L22909 25534
L22928 25496
L22928 25459
L22909 25421
L22890 25403
L22853 25384
L22778 25365
L22740 25346
L22722 25328
L22703 25290
L22703 25253
L22722 25215
L22740 25196
L22778 25178
L22872 25178
L22928 25196
" />
<path d="M23059 25178
L23153 25571
L23228 25290
L23303 25571
L23397 25178
" />
<path d="M23509 25178
L23753 25178
L23622 25328
L23678 25328
L23715 25346
L23734 25365
L23753 25403
L23753 25496
L23734 25534
L23715 25553
L23678 25571
L23565 25571
L23528 25553
L23509 25534
" />
<g transform="rotate(-90 12106.3 9464.57)">
<text x="12106.3" y="9661.42"
textLength="1276.62" font-size="524.934" lengthAdjust="spacingAndGlyphs"
text-anchor="middle" opacity="0">SW2</text>
</g>
<path d="M12265 9989
L12284 9933
L12284 9839
L12265 9802
L12246 9783
L12209 9764
L12171 9764
L12134 9783
L12115 9802
L12096 9839
L12078 9914
L12059 9952
L12040 9970
L12003 9989
L11965 9989
L11928 9970
L11909 9952
L11890 9914
L11890 9820
L11909 9764
" />
<path d="M11890 9633
L12284 9539
L12003 9464
L12284 9389
L11890 9295
" />
<path d="M11928 9164
L11909 9145
L11890 9108
L11890 9014
L11909 8977
L11928 8958
L11965 8939
L12003 8939
L12059 8958
L12284 9183
L12284 8939
" />
<g transform="rotate(-90 13582.7 9448.82)">
<text x="13582.7" y="9645.67"
textLength="1276.62" font-size="524.934" lengthAdjust="spacingAndGlyphs"
text-anchor="middle" opacity="0">SW1</text>
</g>
<path d="M13742 9973
L13760 9917
L13760 9823
L13742 9786
L13723 9767
L13685 9748
L13648 9748
L13610 9767
L13592 9786
L13573 9823
L13554 9898
L13535 9936
L13517 9955
L13479 9973
L13442 9973
L13404 9955
L13385 9936
L13367 9898
L13367 9805
L13385 9748
" />
<path d="M13367 9617
L13760 9523
L13479 9448
L13760 9373
L13367 9280
" />
<path d="M13760 8923
L13760 9148
" />
<path d="M13760 9036
L13367 9036
L13423 9073
L13460 9111
L13479 9148
" />
<g >
</g>
</g> 
</svg>
