<?xml version="1.0" standalone="no"?>
 <!DOCTYPE svg PUBLIC "-//W3C//DTD SVG 1.1//EN" 
 "http://www.w3.org/Graphics/SVG/1.1/DTD/svg11.dtd"> 
<svg
  xmlns:svg="http://www.w3.org/2000/svg"
  xmlns="http://www.w3.org/2000/svg"
  xmlns:xlink="http://www.w3.org/1999/xlink"
  version="1.1"
  width="29.700220cm" height="21.000720cm" viewBox="0 0 116930 82680">
<title>SVG Picture created as KitchenTimer-F_Paste.svg date 2021/10/03 15:41:32 </title>
  <desc>Picture generated by PCBNEW </desc>
<g style="fill:#000000; fill-opacity:1;stroke:#000000; stroke-opacity:1;
stroke-linecap:round; stroke-linejoin:round;"
 transform="translate(0 0) scale(1 1)">
</g>
<g style="fill:#000000; fill-opacity:0.0; 
stroke:#000000; stroke-width:-0.000393701; stroke-opacity:1; 
stroke-linecap:round; stroke-linejoin:round;">
</g>
<g style="fill:#000000; fill-opacity:1.0; 
stroke:#000000; stroke-width:39.3701; stroke-opacity:1; 
stroke-linecap:round; stroke-linejoin:round;">
<path style="fill:#000000; fill-opacity:1.0; 
stroke:#000000; stroke-width:39.3701; stroke-opacity:1; 
stroke-linecap:round; stroke-linejoin:round;fill-rule:evenodd;"
d="M 32637.8,11653.5
32637.8,11200.8
33346.5,11200.8
33346.5,11653.5
" /> 
<path style="fill:#000000; fill-opacity:1.0; 
stroke:#000000; stroke-width:39.3701; stroke-opacity:1; 
stroke-linecap:round; stroke-linejoin:round;fill-rule:evenodd;"
d="M 33326.8,14724.4
33326.8,15157.5
32637.8,15157.5
32637.8,14724.4
" /> 
<g >
</g>
<g >
</g>
<g >
</g>
<g style="fill:#000000; fill-opacity:1.0; 
stroke:#000000; stroke-width:39.3701; stroke-opacity:1; 
stroke-linecap:round; stroke-linejoin:round;">
</g>
<g style="fill:#000000; fill-opacity:1.0; 
stroke:#000000; stroke-width:0; stroke-opacity:1; 
stroke-linecap:round; stroke-linejoin:round;">
<path style="fill:#000000; fill-opacity:1.0; 
stroke:#000000; stroke-width:0; stroke-opacity:1; 
stroke-linecap:round; stroke-linejoin:round;fill-rule:evenodd;"
d="M 28690.8,11161.9
28700.3,11163.3
28709.7,11165.7
28718.8,11168.9
28727.5,11173
28735.8,11178
28743.5,11183.8
28750.7,11190.2
28757.2,11197.4
28762.9,11205.2
28767.9,11213.4
28772,11222.2
28775.3,11231.3
28777.6,11240.6
28779.1,11250.2
28779.5,11259.8
28779.5,11771.7
28779.1,11781.3
28777.6,11790.9
28775.3,11800.2
28772,11809.3
28767.9,11818.1
28762.9,11826.3
28757.2,11834.1
28750.7,11841.3
28743.5,11847.7
28735.8,11853.5
28727.5,11858.5
28718.8,11862.6
28709.7,11865.8
28700.3,11868.2
28690.8,11869.6
28681.1,11870.1
28356.3,11870.1
28346.7,11869.6
28337.1,11868.2
28327.7,11865.8
28318.6,11862.6
28309.9,11858.5
28301.6,11853.5
28293.9,11847.7
28286.7,11841.3
28280.2,11834.1
28274.5,11826.3
28269.5,11818.1
28265.4,11809.3
28262.1,11800.2
28259.8,11790.9
28258.3,11781.3
28257.9,11771.7
28257.9,11259.8
28258.3,11250.2
28259.8,11240.6
28262.1,11231.3
28265.4,11222.2
28269.5,11213.4
28274.5,11205.2
28280.2,11197.4
28286.7,11190.2
28293.9,11183.8
28301.6,11178
28309.9,11173
28318.6,11168.9
28327.7,11165.7
28337.1,11163.3
28346.7,11161.9
28356.3,11161.4
28681.1,11161.4
Z" /> 
<path style="fill:#000000; fill-opacity:1.0; 
stroke:#000000; stroke-width:0; stroke-opacity:1; 
stroke-linecap:round; stroke-linejoin:round;fill-rule:evenodd;"
d="M 29921.1,11161.9
29930.6,11163.3
29940,11165.7
29949.1,11168.9
29957.8,11173
29966.1,11178
29973.9,11183.8
29981,11190.2
29987.5,11197.4
29993.3,11205.2
29998.2,11213.4
30002.4,11222.2
30005.6,11231.3
30008,11240.6
30009.4,11250.2
30009.8,11259.8
30009.8,11771.7
30009.4,11781.3
30008,11790.9
30005.6,11800.2
30002.4,11809.3
29998.2,11818.1
29993.3,11826.3
29987.5,11834.1
29981,11841.3
29973.9,11847.7
29966.1,11853.5
29957.8,11858.5
29949.1,11862.6
29940,11865.8
29930.6,11868.2
29921.1,11869.6
29911.4,11870.1
29586.6,11870.1
29577,11869.6
29567.4,11868.2
29558,11865.8
29548.9,11862.6
29540.2,11858.5
29531.9,11853.5
29524.2,11847.7
29517,11841.3
29510.5,11834.1
29504.8,11826.3
29499.8,11818.1
29495.7,11809.3
29492.4,11800.2
29490.1,11790.9
29488.7,11781.3
29488.2,11771.7
29488.2,11259.8
29488.7,11250.2
29490.1,11240.6
29492.4,11231.3
29495.7,11222.2
29499.8,11213.4
29504.8,11205.2
29510.5,11197.4
29517,11190.2
29524.2,11183.8
29531.9,11178
29540.2,11173
29548.9,11168.9
29558,11165.7
29567.4,11163.3
29577,11161.9
29586.6,11161.4
29911.4,11161.4
Z" /> 
</g>
<g >
</g>
<g >
</g>
<g >
</g>
<g >
</g>
<g >
</g>
<g >
</g>
<g >
</g>
<g >
</g>
<g >
</g>
<g >
</g>
<g >
</g>
<g >
</g>
<g >
</g>
<g >
</g>
<g >
</g>
<g >
</g>
<g >
</g>
<g style="fill:#000000; fill-opacity:1.0; 
stroke:#000000; stroke-width:0; stroke-opacity:1; 
stroke-linecap:round; stroke-linejoin:round;">
<path style="fill:#000000; fill-opacity:1.0; 
stroke:#000000; stroke-width:0; stroke-opacity:1; 
stroke-linecap:round; stroke-linejoin:round;fill-rule:evenodd;"
d="M 29921.1,10177.6
29930.6,10179.1
29940,10181.4
29949.1,10184.7
29957.8,10188.8
29966.1,10193.8
29973.9,10199.5
29981,10206
29987.5,10213.1
29993.3,10220.9
29998.2,10229.2
30002.4,10237.9
30005.6,10247
30008,10256.4
30009.4,10265.9
30009.8,10275.6
30009.8,10787.4
30009.4,10797
30008,10806.6
30005.6,10816
30002.4,10825.1
29998.2,10833.8
29993.3,10842.1
29987.5,10849.8
29981,10857
29973.9,10863.5
29966.1,10869.2
29957.8,10874.2
29949.1,10878.3
29940,10881.6
29930.6,10883.9
29921.1,10885.4
29911.4,10885.8
29586.6,10885.8
29577,10885.4
29567.4,10883.9
29558,10881.6
29548.9,10878.3
29540.2,10874.2
29531.9,10869.2
29524.2,10863.5
29517,10857
29510.5,10849.8
29504.8,10842.1
29499.8,10833.8
29495.7,10825.1
29492.4,10816
29490.1,10806.6
29488.7,10797
29488.2,10787.4
29488.2,10275.6
29488.7,10265.9
29490.1,10256.4
29492.4,10247
29495.7,10237.9
29499.8,10229.2
29504.8,10220.9
29510.5,10213.1
29517,10206
29524.2,10199.5
29531.9,10193.8
29540.2,10188.8
29548.9,10184.7
29558,10181.4
29567.4,10179.1
29577,10177.6
29586.6,10177.2
29911.4,10177.2
Z" /> 
<path style="fill:#000000; fill-opacity:1.0; 
stroke:#000000; stroke-width:0; stroke-opacity:1; 
stroke-linecap:round; stroke-linejoin:round;fill-rule:evenodd;"
d="M 28690.8,10177.6
28700.3,10179.1
28709.7,10181.4
28718.8,10184.7
28727.5,10188.8
28735.8,10193.8
28743.5,10199.5
28750.7,10206
28757.2,10213.1
28762.9,10220.9
28767.9,10229.2
28772,10237.9
28775.3,10247
28777.6,10256.4
28779.1,10265.9
28779.5,10275.6
28779.5,10787.4
28779.1,10797
28777.6,10806.6
28775.3,10816
28772,10825.1
28767.9,10833.8
28762.9,10842.1
28757.2,10849.8
28750.7,10857
28743.5,10863.5
28735.8,10869.2
28727.5,10874.2
28718.8,10878.3
28709.7,10881.6
28700.3,10883.9
28690.8,10885.4
28681.1,10885.8
28356.3,10885.8
28346.7,10885.4
28337.1,10883.9
28327.7,10881.6
28318.6,10878.3
28309.9,10874.2
28301.6,10869.2
28293.9,10863.5
28286.7,10857
28280.2,10849.8
28274.5,10842.1
28269.5,10833.8
28265.4,10825.1
28262.1,10816
28259.8,10806.6
28258.3,10797
28257.9,10787.4
28257.9,10275.6
28258.3,10265.9
28259.8,10256.4
28262.1,10247
28265.4,10237.9
28269.5,10229.2
28274.5,10220.9
28280.2,10213.1
28286.7,10206
28293.9,10199.5
28301.6,10193.8
28309.9,10188.8
28318.6,10184.7
28327.7,10181.4
28337.1,10179.1
28346.7,10177.6
28356.3,10177.2
28681.1,10177.2
Z" /> 
</g>
<g >
</g>
<g >
</g>
<g >
</g>
<g >
</g>
<g >
</g>
<g >
</g>
<g >
</g>
<g >
</g>
<g >
</g>
<g >
</g>
<g >
</g>
<g >
</g>
<g style="fill:#000000; fill-opacity:1.0; 
stroke:#000000; stroke-width:0; stroke-opacity:1; 
stroke-linecap:round; stroke-linejoin:round;">
<path style="fill:#000000; fill-opacity:1.0; 
stroke:#000000; stroke-width:0; stroke-opacity:1; 
stroke-linecap:round; stroke-linejoin:round;fill-rule:evenodd;"
d="M 15929.1,10098.4
15929.1,9744.09
16519.7,9744.09
16519.7,10098.4
Z" /> 
<path style="fill:#000000; fill-opacity:1.0; 
stroke:#000000; stroke-width:0; stroke-opacity:1; 
stroke-linecap:round; stroke-linejoin:round;fill-rule:evenodd;"
d="M 15929.1,10689
15929.1,10334.6
16519.7,10334.6
16519.7,10689
Z" /> 
<path style="fill:#000000; fill-opacity:1.0; 
stroke:#000000; stroke-width:0; stroke-opacity:1; 
stroke-linecap:round; stroke-linejoin:round;fill-rule:evenodd;"
d="M 15929.1,11279.5
15929.1,10925.2
16519.7,10925.2
16519.7,11279.5
Z" /> 
<path style="fill:#000000; fill-opacity:1.0; 
stroke:#000000; stroke-width:0; stroke-opacity:1; 
stroke-linecap:round; stroke-linejoin:round;fill-rule:evenodd;"
d="M 15929.1,11870.1
15929.1,11515.7
16519.7,11515.7
16519.7,11870.1
Z" /> 
<path style="fill:#000000; fill-opacity:1.0; 
stroke:#000000; stroke-width:0; stroke-opacity:1; 
stroke-linecap:round; stroke-linejoin:round;fill-rule:evenodd;"
d="M 15929.1,12460.6
15929.1,12106.3
16519.7,12106.3
16519.7,12460.6
Z" /> 
<path style="fill:#000000; fill-opacity:1.0; 
stroke:#000000; stroke-width:0; stroke-opacity:1; 
stroke-linecap:round; stroke-linejoin:round;fill-rule:evenodd;"
d="M 15929.1,13051.2
15929.1,12696.9
16519.7,12696.9
16519.7,13051.2
Z" /> 
<path style="fill:#000000; fill-opacity:1.0; 
stroke:#000000; stroke-width:0; stroke-opacity:1; 
stroke-linecap:round; stroke-linejoin:round;fill-rule:evenodd;"
d="M 15929.1,13641.7
15929.1,13287.4
16519.7,13287.4
16519.7,13641.7
Z" /> 
<path style="fill:#000000; fill-opacity:1.0; 
stroke:#000000; stroke-width:0; stroke-opacity:1; 
stroke-linecap:round; stroke-linejoin:round;fill-rule:evenodd;"
d="M 15929.1,14232.3
15929.1,13878
16519.7,13878
16519.7,14232.3
Z" /> 
<path style="fill:#000000; fill-opacity:1.0; 
stroke:#000000; stroke-width:0; stroke-opacity:1; 
stroke-linecap:round; stroke-linejoin:round;fill-rule:evenodd;"
d="M 15929.1,14822.8
15929.1,14468.5
16519.7,14468.5
16519.7,14822.8
Z" /> 
<path style="fill:#000000; fill-opacity:1.0; 
stroke:#000000; stroke-width:0; stroke-opacity:1; 
stroke-linecap:round; stroke-linejoin:round;fill-rule:evenodd;"
d="M 22818.9,14822.8
22818.9,14468.5
23409.4,14468.5
23409.4,14822.8
Z" /> 
<path style="fill:#000000; fill-opacity:1.0; 
stroke:#000000; stroke-width:0; stroke-opacity:1; 
stroke-linecap:round; stroke-linejoin:round;fill-rule:evenodd;"
d="M 22818.9,14232.3
22818.9,13878
23409.4,13878
23409.4,14232.3
Z" /> 
<path style="fill:#000000; fill-opacity:1.0; 
stroke:#000000; stroke-width:0; stroke-opacity:1; 
stroke-linecap:round; stroke-linejoin:round;fill-rule:evenodd;"
d="M 22818.9,13641.7
22818.9,13287.4
23409.4,13287.4
23409.4,13641.7
Z" /> 
<path style="fill:#000000; fill-opacity:1.0; 
stroke:#000000; stroke-width:0; stroke-opacity:1; 
stroke-linecap:round; stroke-linejoin:round;fill-rule:evenodd;"
d="M 22818.9,13051.2
22818.9,12696.9
23409.4,12696.9
23409.4,13051.2
Z" /> 
<path style="fill:#000000; fill-opacity:1.0; 
stroke:#000000; stroke-width:0; stroke-opacity:1; 
stroke-linecap:round; stroke-linejoin:round;fill-rule:evenodd;"
d="M 22818.9,12460.6
22818.9,12106.3
23409.4,12106.3
23409.4,12460.6
Z" /> 
<path style="fill:#000000; fill-opacity:1.0; 
stroke:#000000; stroke-width:0; stroke-opacity:1; 
stroke-linecap:round; stroke-linejoin:round;fill-rule:evenodd;"
d="M 22818.9,11870.1
22818.9,11515.7
23409.4,11515.7
23409.4,11870.1
Z" /> 
<path style="fill:#000000; fill-opacity:1.0; 
stroke:#000000; stroke-width:0; stroke-opacity:1; 
stroke-linecap:round; stroke-linejoin:round;fill-rule:evenodd;"
d="M 22818.9,11279.5
22818.9,10925.2
23409.4,10925.2
23409.4,11279.5
Z" /> 
<path style="fill:#000000; fill-opacity:1.0; 
stroke:#000000; stroke-width:0; stroke-opacity:1; 
stroke-linecap:round; stroke-linejoin:round;fill-rule:evenodd;"
d="M 22818.9,10689
22818.9,10334.6
23409.4,10334.6
23409.4,10689
Z" /> 
<path style="fill:#000000; fill-opacity:1.0; 
stroke:#000000; stroke-width:0; stroke-opacity:1; 
stroke-linecap:round; stroke-linejoin:round;fill-rule:evenodd;"
d="M 22818.9,10098.4
22818.9,9744.09
23409.4,9744.09
23409.4,10098.4
Z" /> 
</g>
<g >
</g>
<g style="fill:#000000; fill-opacity:1.0; 
stroke:#000000; stroke-width:0; stroke-opacity:1; 
stroke-linecap:round; stroke-linejoin:round;">
<path style="fill:#000000; fill-opacity:1.0; 
stroke:#000000; stroke-width:0; stroke-opacity:1; 
stroke-linecap:round; stroke-linejoin:round;fill-rule:evenodd;"
d="M 33208.3,12599.4
33227.4,12602.2
33246.1,12606.9
33264.3,12613.4
33281.8,12621.7
33298.3,12631.6
33313.9,12643.1
33328.2,12656.1
33341.1,12670.4
33352.7,12685.9
33362.6,12702.5
33370.8,12719.9
33377.4,12738.1
33382,12756.9
33384.9,12776
33385.8,12795.3
33385.8,13582.7
33384.9,13602
33382,13621.1
33377.4,13639.8
33370.8,13658
33362.6,13675.5
33352.7,13692
33341.1,13707.6
33328.2,13721.9
33313.9,13734.8
33298.3,13746.4
33281.8,13756.3
33264.3,13764.5
33246.1,13771.1
33227.4,13775.7
33208.3,13778.6
33189,13779.5
32795.3,13779.5
32776,13778.6
32756.9,13775.7
32738.1,13771.1
32719.9,13764.5
32702.5,13756.3
32685.9,13746.4
32670.4,13734.8
32656.1,13721.9
32643.1,13707.6
32631.6,13692
32621.7,13675.5
32613.4,13658
32606.9,13639.8
32602.2,13621.1
32599.4,13602
32598.4,13582.7
32598.4,12795.3
32599.4,12776
32602.2,12756.9
32606.9,12738.1
32613.4,12719.9
32621.7,12702.5
32631.6,12685.9
32643.1,12670.4
32656.1,12656.1
32670.4,12643.1
32685.9,12631.6
32702.5,12621.7
32719.9,12613.4
32738.1,12606.9
32756.9,12602.2
32776,12599.4
32795.3,12598.4
33189,12598.4
Z" /> 
<path style="fill:#000000; fill-opacity:1.0; 
stroke:#000000; stroke-width:0; stroke-opacity:1; 
stroke-linecap:round; stroke-linejoin:round;fill-rule:evenodd;"
d="M 31643.7,12578.7
32135.8,12578.7
32135.8,12736.2
31643.7,12736.2
Z" /> 
<path style="fill:#000000; fill-opacity:1.0; 
stroke:#000000; stroke-width:0; stroke-opacity:1; 
stroke-linecap:round; stroke-linejoin:round;fill-rule:evenodd;"
d="M 31643.7,12854.3
32135.8,12854.3
32135.8,13011.8
31643.7,13011.8
Z" /> 
<path style="fill:#000000; fill-opacity:1.0; 
stroke:#000000; stroke-width:0; stroke-opacity:1; 
stroke-linecap:round; stroke-linejoin:round;fill-rule:evenodd;"
d="M 31643.7,13110.2
32135.8,13110.2
32135.8,13267.7
31643.7,13267.7
Z" /> 
<path style="fill:#000000; fill-opacity:1.0; 
stroke:#000000; stroke-width:0; stroke-opacity:1; 
stroke-linecap:round; stroke-linejoin:round;fill-rule:evenodd;"
d="M 31643.7,13366.1
32135.8,13366.1
32135.8,13523.6
31643.7,13523.6
Z" /> 
<path style="fill:#000000; fill-opacity:1.0; 
stroke:#000000; stroke-width:0; stroke-opacity:1; 
stroke-linecap:round; stroke-linejoin:round;fill-rule:evenodd;"
d="M 31643.7,13622
32135.8,13622
32135.8,13779.5
31643.7,13779.5
Z" /> 
</g>
<g >
</g>
<g style="fill:#000000; fill-opacity:1.0; 
stroke:#000000; stroke-width:0; stroke-opacity:1; 
stroke-linecap:round; stroke-linejoin:round;">
<path style="fill:#000000; fill-opacity:1.0; 
stroke:#000000; stroke-width:0; stroke-opacity:1; 
stroke-linecap:round; stroke-linejoin:round;fill-rule:evenodd;"
d="M 29921.1,9193.39
29930.6,9194.8
29940,9197.15
29949.1,9200.41
29957.8,9204.54
29966.1,9209.5
29973.9,9215.25
29981,9221.74
29987.5,9228.9
29993.3,9236.66
29998.2,9244.94
30002.4,9253.67
30005.6,9262.77
30008,9272.14
30009.4,9281.69
30009.8,9291.34
30009.8,9803.15
30009.4,9812.8
30008,9822.35
30005.6,9831.72
30002.4,9840.82
29998.2,9849.55
29993.3,9857.83
29987.5,9865.59
29981,9872.75
29973.9,9879.23
29966.1,9884.99
29957.8,9889.95
29949.1,9894.08
29940,9897.34
29930.6,9899.68
29921.1,9901.1
29911.4,9901.57
29586.6,9901.57
29577,9901.1
29567.4,9899.68
29558,9897.34
29548.9,9894.08
29540.2,9889.95
29531.9,9884.99
29524.2,9879.23
29517,9872.75
29510.5,9865.59
29504.8,9857.83
29499.8,9849.55
29495.7,9840.82
29492.4,9831.72
29490.1,9822.35
29488.7,9812.8
29488.2,9803.15
29488.2,9291.34
29488.7,9281.69
29490.1,9272.14
29492.4,9262.77
29495.7,9253.67
29499.8,9244.94
29504.8,9236.66
29510.5,9228.9
29517,9221.74
29524.2,9215.25
29531.9,9209.5
29540.2,9204.54
29548.9,9200.41
29558,9197.15
29567.4,9194.8
29577,9193.39
29586.6,9192.91
29911.4,9192.91
Z" /> 
<path style="fill:#000000; fill-opacity:1.0; 
stroke:#000000; stroke-width:0; stroke-opacity:1; 
stroke-linecap:round; stroke-linejoin:round;fill-rule:evenodd;"
d="M 28690.8,9193.39
28700.3,9194.8
28709.7,9197.15
28718.8,9200.41
28727.5,9204.54
28735.8,9209.5
28743.5,9215.25
28750.7,9221.74
28757.2,9228.9
28762.9,9236.66
28767.9,9244.94
28772,9253.67
28775.3,9262.77
28777.6,9272.14
28779.1,9281.69
28779.5,9291.34
28779.5,9803.15
28779.1,9812.8
28777.6,9822.35
28775.3,9831.72
28772,9840.82
28767.9,9849.55
28762.9,9857.83
28757.2,9865.59
28750.7,9872.75
28743.5,9879.23
28735.8,9884.99
28727.5,9889.95
28718.8,9894.08
28709.7,9897.34
28700.3,9899.68
28690.8,9901.1
28681.1,9901.57
28356.3,9901.57
28346.7,9901.1
28337.1,9899.68
28327.7,9897.34
28318.6,9894.08
28309.9,9889.95
28301.6,9884.99
28293.9,9879.23
28286.7,9872.75
28280.2,9865.59
28274.5,9857.83
28269.5,9849.55
28265.4,9840.82
28262.1,9831.72
28259.8,9822.35
28258.3,9812.8
28257.9,9803.15
28257.9,9291.34
28258.3,9281.69
28259.8,9272.14
28262.1,9262.77
28265.4,9253.67
28269.5,9244.94
28274.5,9236.66
28280.2,9228.9
28286.7,9221.74
28293.9,9215.25
28301.6,9209.5
28309.9,9204.54
28318.6,9200.41
28327.7,9197.15
28337.1,9194.8
28346.7,9193.39
28356.3,9192.91
28681.1,9192.91
Z" /> 
</g>
<g >
</g>
<g style="fill:#000000; fill-opacity:1.0; 
stroke:#000000; stroke-width:0; stroke-opacity:1; 
stroke-linecap:round; stroke-linejoin:round;">
<path style="fill:#000000; fill-opacity:1.0; 
stroke:#000000; stroke-width:0; stroke-opacity:1; 
stroke-linecap:round; stroke-linejoin:round;fill-rule:evenodd;"
d="M 28690.8,12146.1
28700.3,12147.6
28709.7,12149.9
28718.8,12153.2
28727.5,12157.3
28735.8,12162.3
28743.5,12168
28750.7,12174.5
28757.2,12181.7
28762.9,12189.4
28767.9,12197.7
28772,12206.4
28775.3,12215.5
28777.6,12224.9
28779.1,12234.4
28779.5,12244.1
28779.5,12755.9
28779.1,12765.6
28777.6,12775.1
28775.3,12784.5
28772,12793.6
28767.9,12802.3
28762.9,12810.6
28757.2,12818.3
28750.7,12825.5
28743.5,12832
28735.8,12837.7
28727.5,12842.7
28718.8,12846.8
28709.7,12850.1
28700.3,12852.4
28690.8,12853.9
28681.1,12854.3
28356.3,12854.3
28346.7,12853.9
28337.1,12852.4
28327.7,12850.1
28318.6,12846.8
28309.9,12842.7
28301.6,12837.7
28293.9,12832
28286.7,12825.5
28280.2,12818.3
28274.5,12810.6
28269.5,12802.3
28265.4,12793.6
28262.1,12784.5
28259.8,12775.1
28258.3,12765.6
28257.9,12755.9
28257.9,12244.1
28258.3,12234.4
28259.8,12224.9
28262.1,12215.5
28265.4,12206.4
28269.5,12197.7
28274.5,12189.4
28280.2,12181.7
28286.7,12174.5
28293.9,12168
28301.6,12162.3
28309.9,12157.3
28318.6,12153.2
28327.7,12149.9
28337.1,12147.6
28346.7,12146.1
28356.3,12145.7
28681.1,12145.7
Z" /> 
<path style="fill:#000000; fill-opacity:1.0; 
stroke:#000000; stroke-width:0; stroke-opacity:1; 
stroke-linecap:round; stroke-linejoin:round;fill-rule:evenodd;"
d="M 29921.1,12146.1
29930.6,12147.6
29940,12149.9
29949.1,12153.2
29957.8,12157.3
29966.1,12162.3
29973.9,12168
29981,12174.5
29987.5,12181.7
29993.3,12189.4
29998.2,12197.7
30002.4,12206.4
30005.6,12215.5
30008,12224.9
30009.4,12234.4
30009.8,12244.1
30009.8,12755.9
30009.4,12765.6
30008,12775.1
30005.6,12784.5
30002.4,12793.6
29998.2,12802.3
29993.3,12810.6
29987.5,12818.3
29981,12825.5
29973.9,12832
29966.1,12837.7
29957.8,12842.7
29949.1,12846.8
29940,12850.1
29930.6,12852.4
29921.1,12853.9
29911.4,12854.3
29586.6,12854.3
29577,12853.9
29567.4,12852.4
29558,12850.1
29548.9,12846.8
29540.2,12842.7
29531.9,12837.7
29524.2,12832
29517,12825.5
29510.5,12818.3
29504.8,12810.6
29499.8,12802.3
29495.7,12793.6
29492.4,12784.5
29490.1,12775.1
29488.7,12765.6
29488.2,12755.9
29488.2,12244.1
29488.7,12234.4
29490.1,12224.9
29492.4,12215.5
29495.7,12206.4
29499.8,12197.7
29504.8,12189.4
29510.5,12181.7
29517,12174.5
29524.2,12168
29531.9,12162.3
29540.2,12157.3
29548.9,12153.2
29558,12149.9
29567.4,12147.6
29577,12146.1
29586.6,12145.7
29911.4,12145.7
Z" /> 
</g>
<g >
</g>
<g >
</g>
<g >
</g>
<g >
</g>
<g >
</g>
<g >
</g>
<g >
</g>
<g >
</g>
<g >
</g>
<g >
</g>
<g >
</g>
<g >
</g>
<g >
</g>
<g >
</g>
<g style="fill:#000000; fill-opacity:1.0; 
stroke:#000000; stroke-width:0; stroke-opacity:1; 
stroke-linecap:round; stroke-linejoin:round;">
<path style="fill:#000000; fill-opacity:1.0; 
stroke:#000000; stroke-width:0; stroke-opacity:1; 
stroke-linecap:round; stroke-linejoin:round;fill-rule:evenodd;"
d="M 17401.6,24763.8
17401.6,24252
18011.8,24252
18011.8,24763.8
Z" /> 
<path style="fill:#000000; fill-opacity:1.0; 
stroke:#000000; stroke-width:0; stroke-opacity:1; 
stroke-linecap:round; stroke-linejoin:round;fill-rule:evenodd;"
d="M 17401.6,26535.4
17401.6,26023.6
18011.8,26023.6
18011.8,26535.4
Z" /> 
<path style="fill:#000000; fill-opacity:1.0; 
stroke:#000000; stroke-width:0; stroke-opacity:1; 
stroke-linecap:round; stroke-linejoin:round;fill-rule:evenodd;"
d="M 14271.7,26535.4
14271.7,26023.6
14881.9,26023.6
14881.9,26535.4
Z" /> 
<path style="fill:#000000; fill-opacity:1.0; 
stroke:#000000; stroke-width:0; stroke-opacity:1; 
stroke-linecap:round; stroke-linejoin:round;fill-rule:evenodd;"
d="M 14271.7,24763.8
14271.7,24252
14881.9,24252
14881.9,24763.8
Z" /> 
</g>
<g >
</g>
<g style="fill:#000000; fill-opacity:1.0; 
stroke:#000000; stroke-width:0; stroke-opacity:1; 
stroke-linecap:round; stroke-linejoin:round;">
<path style="fill:#000000; fill-opacity:1.0; 
stroke:#000000; stroke-width:0; stroke-opacity:1; 
stroke-linecap:round; stroke-linejoin:round;fill-rule:evenodd;"
d="M 13070.9,24763.8
13070.9,24252
13681.1,24252
13681.1,24763.8
Z" /> 
<path style="fill:#000000; fill-opacity:1.0; 
stroke:#000000; stroke-width:0; stroke-opacity:1; 
stroke-linecap:round; stroke-linejoin:round;fill-rule:evenodd;"
d="M 13070.9,26535.4
13070.9,26023.6
13681.1,26023.6
13681.1,26535.4
Z" /> 
<path style="fill:#000000; fill-opacity:1.0; 
stroke:#000000; stroke-width:0; stroke-opacity:1; 
stroke-linecap:round; stroke-linejoin:round;fill-rule:evenodd;"
d="M 9940.94,26535.4
9940.94,26023.6
10551.2,26023.6
10551.2,26535.4
Z" /> 
<path style="fill:#000000; fill-opacity:1.0; 
stroke:#000000; stroke-width:0; stroke-opacity:1; 
stroke-linecap:round; stroke-linejoin:round;fill-rule:evenodd;"
d="M 9940.94,24763.8
9940.94,24252
10551.2,24252
10551.2,24763.8
Z" /> 
</g>
<g >
</g>
<g style="fill:#000000; fill-opacity:1.0; 
stroke:#000000; stroke-width:0; stroke-opacity:1; 
stroke-linecap:round; stroke-linejoin:round;">
<path style="fill:#000000; fill-opacity:1.0; 
stroke:#000000; stroke-width:0; stroke-opacity:1; 
stroke-linecap:round; stroke-linejoin:round;fill-rule:evenodd;"
d="M 28818.9,24763.8
28818.9,24252
29429.1,24252
29429.1,24763.8
Z" /> 
<path style="fill:#000000; fill-opacity:1.0; 
stroke:#000000; stroke-width:0; stroke-opacity:1; 
stroke-linecap:round; stroke-linejoin:round;fill-rule:evenodd;"
d="M 28818.9,26535.4
28818.9,26023.6
29429.1,26023.6
29429.1,26535.4
Z" /> 
<path style="fill:#000000; fill-opacity:1.0; 
stroke:#000000; stroke-width:0; stroke-opacity:1; 
stroke-linecap:round; stroke-linejoin:round;fill-rule:evenodd;"
d="M 25689,26535.4
25689,26023.6
26299.2,26023.6
26299.2,26535.4
Z" /> 
<path style="fill:#000000; fill-opacity:1.0; 
stroke:#000000; stroke-width:0; stroke-opacity:1; 
stroke-linecap:round; stroke-linejoin:round;fill-rule:evenodd;"
d="M 25689,24763.8
25689,24252
26299.2,24252
26299.2,24763.8
Z" /> 
</g>
<g >
</g>
<g style="fill:#000000; fill-opacity:1.0; 
stroke:#000000; stroke-width:0; stroke-opacity:1; 
stroke-linecap:round; stroke-linejoin:round;">
<path style="fill:#000000; fill-opacity:1.0; 
stroke:#000000; stroke-width:0; stroke-opacity:1; 
stroke-linecap:round; stroke-linejoin:round;fill-rule:evenodd;"
d="M 24488.2,24763.8
24488.2,24252
25098.4,24252
25098.4,24763.8
Z" /> 
<path style="fill:#000000; fill-opacity:1.0; 
stroke:#000000; stroke-width:0; stroke-opacity:1; 
stroke-linecap:round; stroke-linejoin:round;fill-rule:evenodd;"
d="M 24488.2,26535.4
24488.2,26023.6
25098.4,26023.6
25098.4,26535.4
Z" /> 
<path style="fill:#000000; fill-opacity:1.0; 
stroke:#000000; stroke-width:0; stroke-opacity:1; 
stroke-linecap:round; stroke-linejoin:round;fill-rule:evenodd;"
d="M 21358.3,26535.4
21358.3,26023.6
21968.5,26023.6
21968.5,26535.4
Z" /> 
<path style="fill:#000000; fill-opacity:1.0; 
stroke:#000000; stroke-width:0; stroke-opacity:1; 
stroke-linecap:round; stroke-linejoin:round;fill-rule:evenodd;"
d="M 21358.3,24763.8
21358.3,24252
21968.5,24252
21968.5,24763.8
Z" /> 
</g>
<g >
</g>
<g style="fill:#000000; fill-opacity:1.0; 
stroke:#000000; stroke-width:0; stroke-opacity:1; 
stroke-linecap:round; stroke-linejoin:round;">
<path style="fill:#000000; fill-opacity:1.0; 
stroke:#000000; stroke-width:0; stroke-opacity:1; 
stroke-linecap:round; stroke-linejoin:round;fill-rule:evenodd;"
d="M 12519.7,10527.6
12519.7,11472.4
11692.9,11472.4
11692.9,10527.6
Z" /> 
<path style="fill:#000000; fill-opacity:1.0; 
stroke:#000000; stroke-width:0; stroke-opacity:1; 
stroke-linecap:round; stroke-linejoin:round;fill-rule:evenodd;"
d="M 12519.7,7456.69
12519.7,8401.57
11692.9,8401.57
11692.9,7456.69
Z" /> 
</g>
<g >
</g>
<g style="fill:#000000; fill-opacity:1.0; 
stroke:#000000; stroke-width:0; stroke-opacity:1; 
stroke-linecap:round; stroke-linejoin:round;">
<path style="fill:#000000; fill-opacity:1.0; 
stroke:#000000; stroke-width:0; stroke-opacity:1; 
stroke-linecap:round; stroke-linejoin:round;fill-rule:evenodd;"
d="M 13996.1,10527.6
13996.1,11472.4
13169.3,11472.4
13169.3,10527.6
Z" /> 
<path style="fill:#000000; fill-opacity:1.0; 
stroke:#000000; stroke-width:0; stroke-opacity:1; 
stroke-linecap:round; stroke-linejoin:round;fill-rule:evenodd;"
d="M 13996.1,7456.69
13996.1,8401.57
13169.3,8401.57
13169.3,7456.69
Z" /> 
</g>
<g >
</g>
<g >
</g>
<g >
</g>
</g> 
</svg>
