<?xml version="1.0" standalone="no"?>
 <!DOCTYPE svg PUBLIC "-//W3C//DTD SVG 1.1//EN" 
 "http://www.w3.org/Graphics/SVG/1.1/DTD/svg11.dtd"> 
<svg
  xmlns:svg="http://www.w3.org/2000/svg"
  xmlns="http://www.w3.org/2000/svg"
  xmlns:xlink="http://www.w3.org/1999/xlink"
  version="1.1"
  width="29.700220cm" height="21.000720cm" viewBox="0 0 116930 82680">
<title>SVG Picture created as KitchenTimer-B_SilkS.svg date 2021/10/03 15:41:32 </title>
  <desc>Picture generated by PCBNEW </desc>
<g style="fill:#000000; fill-opacity:1;stroke:#000000; stroke-opacity:1;
stroke-linecap:round; stroke-linejoin:round;"
 transform="translate(0 0) scale(1 1)">
</g>
<g style="fill:#000000; fill-opacity:0.0; 
stroke:#000000; stroke-width:-0.000393701; stroke-opacity:1; 
stroke-linecap:round; stroke-linejoin:round;">
</g>
<g style="fill:#000000; fill-opacity:0.0; 
stroke:#000000; stroke-width:47.2441; stroke-opacity:1; 
stroke-linecap:round; stroke-linejoin:round;">
<path d="M30708 11909
L30905 11712
" />
<path d="M30905 12106
L30708 11909
" />
<path d="M30905 12106
L30708 12303
" />
<path d="M30708 11515
L30708 12303
" />
<path d="M30905 11712
L30708 11515
" />
<path d="M30905 12303
L30905 11712
" />
<path d="M30708 12303
L30905 12303
" />
<path d="M28838 16338
L29035 16240
" />
<path d="M28838 16633
L28838 16338
" />
<path d="M29035 16437
L28838 16633
" />
<path d="M29035 16633
L29035 16437
" />
<path d="M28838 16830
L29035 16633
" />
<path d="M29035 16830
L28838 16830
" />
<path d="M29035 16240
L29035 16830
" />
<path d="M28838 16043
L29035 16240
" />
<path d="M28838 16830
L28838 16043
" />
<path d="M12992 16240
L12795 16437
" />
<path d="M12992 16437
L12795 16633
" />
<path d="M12992 16633
L12795 16830
" />
<path d="M12992 16830
L12795 16830
" />
<path d="M12992 16240
L12992 16830
" />
<path d="M12795 16043
L12992 16240
" />
<path d="M12795 16830
L12795 16043
" />
<path d="M29728 14757
L29523 14757
" />
<path d="M29728 14179
L29523 14179
" />
<path d="M13783 15643
L13578 15643
" />
<path d="M13783 15064
L13578 15064
" />
<path d="M11214 12705
L11214 12884
" />
<path d="M10635 12705
L10635 12884
" />
<path d="M11327 8864
L11506 8864
" />
<path d="M11327 9442
L11506 9442
" />
<path d="M13490 19584
L13490 19785
" />
<path d="M13079 19584
L13079 19785
" />
<path d="M13490 16784
L13490 16985
" />
<path d="M13079 16784
L13079 16985
" />
<path d="M13490 18184
L13490 18385
" />
<path d="M13079 18184
L13079 18385
" />
<path d="M8692 15485
L8692 14717
" />
<path d="M8692 15485
L8692 16252
" />
<path d="M12677 15485
L12677 14717
" />
<path d="M12677 15485
L12677 16843
" />
<path d="M27889 9976
L28385 9976
" />
<path d="M30574 9976
L30078 9976
" />
<path d="M27889 11456
L27889 9976
" />
<path d="M30574 12342
L30574 9976
" />
<path d="M18793 24990
L18793 24812
" />
<path d="M18214 24990
L18214 24812
" />
<path d="M11411 24990
L11411 24812
" />
<path d="M10832 24990
L10832 24812
" />
<path d="M27159 24990
L27159 24812
" />
<path d="M26580 24990
L26580 24812
" />
<path d="M21155 24990
L21155 24812
" />
<path d="M20576 24990
L20576 24812
" />
<path d="M15107 19984
L14740 19984
" />
<path d="M13862 19984
L14229 19984
" />
<path d="M13862 19984
L13862 19133
" />
<path d="M15107 19984
L15107 19409
" />
<path d="M13079 20984
L13079 21185
" />
<path d="M13490 20984
L13490 21185
" />
<path d="M15107 22784
L14740 22784
" />
<path d="M13862 22784
L14229 22784
" />
<path d="M13862 22784
L13862 21933
" />
<path d="M15107 22784
L15107 22209
" />
<path d="M13079 22384
L13079 22585
" />
<path d="M13490 22384
L13490 22585
" />
<path d="M23784 20690
L23985 20690
" />
<path d="M23784 20279
L23985 20279
" />
<path d="M15107 21384
L14740 21384
" />
<path d="M13862 21384
L14229 21384
" />
<path d="M13862 21384
L13862 20533
" />
<path d="M15107 21384
L15107 20809
" />
<path d="M23784 21890
L23985 21890
" />
<path d="M23784 21479
L23985 21479
" />
<path d="M23784 18290
L23985 18290
" />
<path d="M23784 17879
L23985 17879
" />
<path d="M24692 15485
L24692 14717
" />
<path d="M24692 15485
L24692 16252
" />
<path d="M28677 15485
L28677 14717
" />
<path d="M28677 15485
L28677 16843
" />
<path d="M15107 18584
L14740 18584
" />
<path d="M13862 18584
L14229 18584
" />
<path d="M13862 18584
L13862 17733
" />
<path d="M15107 18584
L15107 18009
" />
<path d="M15107 17184
L14740 17184
" />
<path d="M13862 17184
L14229 17184
" />
<path d="M13862 17184
L13862 16333
" />
<path d="M15107 17184
L15107 16609
" />
<path d="M14464 8765
L14669 8765
" />
<path d="M14464 9344
L14669 9344
" />
<path d="M17218 24798
L17218 25004
" />
<path d="M16639 24798
L16639 25004
" />
<path d="M9738 24798
L9738 25004
" />
<path d="M9159 24798
L9159 25004
" />
<path d="M25486 24813
L25486 25019
" />
<path d="M24907 24813
L24907 25019
" />
<path d="M22828 24798
L22828 25004
" />
<path d="M22250 24798
L22250 25004
" />
<path d="M11520 7978
L11314 7978
" />
<path d="M11520 8557
L11314 8557
" />
<path d="M23784 20090
L23985 20090
" />
<path d="M23784 19679
L23985 19679
" />
<path d="M23784 19490
L23985 19490
" />
<path d="M23784 19079
L23985 19079
" />
<path d="M23784 17690
L23985 17690
" />
<path d="M23784 17279
L23985 17279
" />
<path d="M23784 21290
L23985 21290
" />
<path d="M23784 20879
L23985 20879
" />
<path d="M23784 18890
L23985 18890
" />
<path d="M23784 18479
L23985 18479
" />
<path d="M14846 8330
L14286 8330
" />
<path d="M14846 7614
L14286 7614
" />
</g>
<g style="fill:#000000; fill-opacity:0.0; 
stroke:#000000; stroke-width:59.0551; stroke-opacity:1; 
stroke-linecap:round; stroke-linejoin:round;">
<text x="29626" y="13976.4"
transform="scale(-1 1) translate(-59251.968504 0)"
textLength="691.882" font-size="524.934" lengthAdjust="spacingAndGlyphs"
text-anchor="middle" opacity="0">C3</text>
<path d="M29691 13920
L29710 13938
L29766 13957
L29804 13957
L29860 13938
L29897 13901
L29916 13863
L29935 13788
L29935 13732
L29916 13657
L29897 13620
L29860 13582
L29804 13563
L29766 13563
L29710 13582
L29691 13601
" />
<path d="M29560 13563
L29316 13563
L29447 13713
L29391 13713
L29354 13732
L29335 13751
L29316 13788
L29316 13882
L29335 13920
L29354 13938
L29391 13957
L29504 13957
L29541 13938
L29560 13920
" />
<text x="14960.6" y="15551.2"
transform="scale(-1 1) translate(-29921.259843 0)"
textLength="691.882" font-size="524.934" lengthAdjust="spacingAndGlyphs"
text-anchor="middle" opacity="0">C4</text>
<path d="M15026 15494
L15044 15513
L15101 15532
L15138 15532
L15194 15513
L15232 15476
L15251 15438
L15269 15363
L15269 15307
L15251 15232
L15232 15194
L15194 15157
L15138 15138
L15101 15138
L15044 15157
L15026 15176
" />
<path d="M14688 15269
L14688 15532
" />
<path d="M14782 15119
L14876 15401
L14632 15401
" />
<text x="10039.4" y="12992.1"
transform="scale(-1 1) translate(-20078.740157 0)"
textLength="691.882" font-size="524.934" lengthAdjust="spacingAndGlyphs"
text-anchor="middle" opacity="0">R1</text>
<path d="M10104 12973
L10236 12785
" />
<path d="M10329 12973
L10329 12579
L10179 12579
L10142 12598
L10123 12617
L10104 12654
L10104 12710
L10123 12748
L10142 12767
L10179 12785
L10329 12785
" />
<path d="M9730 12973
L9955 12973
" />
<path d="M9842 12973
L9842 12579
L9880 12635
L9917 12673
L9955 12692
" />
<text x="10334.6" y="9350.39"
transform="scale(-1 1) translate(-20669.291339 0)"
textLength="691.882" font-size="524.934" lengthAdjust="spacingAndGlyphs"
text-anchor="middle" opacity="0">R2</text>
<path d="M10400 9331
L10531 9144
" />
<path d="M10625 9331
L10625 8937
L10475 8937
L10437 8956
L10419 8975
L10400 9012
L10400 9069
L10419 9106
L10437 9125
L10475 9144
L10625 9144
" />
<path d="M10250 8975
L10231 8956
L10194 8937
L10100 8937
L10062 8956
L10044 8975
L10025 9012
L10025 9050
L10044 9106
L10269 9331
L10025 9331
" />
<text x="12598.4" y="19881.9"
transform="scale(-1 1) translate(-25196.850394 0)"
textLength="691.882" font-size="524.934" lengthAdjust="spacingAndGlyphs"
text-anchor="middle" opacity="0">R5</text>
<path d="M12664 19863
L12795 19675
" />
<path d="M12889 19863
L12889 19469
L12739 19469
L12701 19488
L12682 19506
L12664 19544
L12664 19600
L12682 19638
L12701 19656
L12739 19675
L12889 19675
" />
<path d="M12307 19469
L12495 19469
L12514 19656
L12495 19638
L12457 19619
L12364 19619
L12326 19638
L12307 19656
L12289 19694
L12289 19788
L12307 19825
L12326 19844
L12364 19863
L12457 19863
L12495 19844
L12514 19825
" />
<text x="12598.4" y="17519.7"
transform="scale(-1 1) translate(-25196.850394 0)"
textLength="691.882" font-size="524.934" lengthAdjust="spacingAndGlyphs"
text-anchor="middle" opacity="0">R3</text>
<path d="M12664 17500
L12795 17313
" />
<path d="M12889 17500
L12889 17107
L12739 17107
L12701 17125
L12682 17144
L12664 17182
L12664 17238
L12682 17275
L12701 17294
L12739 17313
L12889 17313
" />
<path d="M12532 17107
L12289 17107
L12420 17257
L12364 17257
L12326 17275
L12307 17294
L12289 17332
L12289 17425
L12307 17463
L12326 17482
L12364 17500
L12476 17500
L12514 17482
L12532 17463
" />
<text x="12598.4" y="18481.9"
transform="scale(-1 1) translate(-25196.850394 0)"
textLength="691.882" font-size="524.934" lengthAdjust="spacingAndGlyphs"
text-anchor="middle" opacity="0">R4</text>
<path d="M12664 18463
L12795 18275
" />
<path d="M12889 18463
L12889 18069
L12739 18069
L12701 18088
L12682 18106
L12664 18144
L12664 18200
L12682 18238
L12701 18256
L12739 18275
L12889 18275
" />
<path d="M12326 18200
L12326 18463
" />
<path d="M12420 18050
L12514 18331
L12270 18331
" />
<text x="8169.29" y="15649.6"
transform="scale(-1 1) translate(-16338.582677 0)"
textLength="710.63" font-size="524.934" lengthAdjust="spacingAndGlyphs"
text-anchor="middle" opacity="0">U3</text>
<path d="M8469 15237
L8469 15555
L8450 15593
L8431 15612
L8394 15630
L8319 15630
L8281 15612
L8263 15593
L8244 15555
L8244 15237
" />
<path d="M8094 15237
L7850 15237
L7981 15387
L7925 15387
L7888 15405
L7869 15424
L7850 15462
L7850 15555
L7869 15593
L7888 15612
L7925 15630
L8038 15630
L8075 15612
L8094 15593
" />
<text x="27362.2" y="10433.1"
transform="scale(-1 1) translate(-54724.409449 0)"
textLength="710.63" font-size="524.934" lengthAdjust="spacingAndGlyphs"
text-anchor="middle" opacity="0">U4</text>
<path d="M27662 10020
L27662 10339
L27643 10376
L27624 10395
L27587 10414
L27512 10414
L27474 10395
L27455 10376
L27437 10339
L27437 10020
" />
<path d="M27080 10151
L27080 10414
" />
<path d="M27174 10001
L27268 10283
L27024 10283
" />
<g transform="rotate(-90 18503.9 26378)">
<text x="18503.9" y="26574.8"
transform="scale(-1 1) translate(-37007.874016 0)"
textLength="1066.84" font-size="524.934" lengthAdjust="spacingAndGlyphs"
text-anchor="middle" opacity="0">R11</text>
</g>
<path d="M18682 26124
L18494 25993
" />
<path d="M18682 25899
L18288 25899
L18288 26049
L18307 26087
L18325 26106
L18363 26124
L18419 26124
L18457 26106
L18475 26087
L18494 26049
L18494 25899
" />
<path d="M18682 26499
L18682 26274
" />
<path d="M18682 26387
L18288 26387
L18344 26349
L18382 26312
L18400 26274
" />
<path d="M18682 26874
L18682 26649
" />
<path d="M18682 26762
L18288 26762
L18344 26724
L18382 26687
L18400 26649
" />
<g transform="rotate(-90 11122 26279.5)">
<text x="11122" y="26476.4"
transform="scale(-1 1) translate(-22244.094488 0)"
textLength="1066.84" font-size="524.934" lengthAdjust="spacingAndGlyphs"
text-anchor="middle" opacity="0">R10</text>
</g>
<path d="M11300 26026
L11112 25895
" />
<path d="M11300 25801
L10906 25801
L10906 25951
L10925 25988
L10943 26007
L10981 26026
L11037 26026
L11075 26007
L11093 25988
L11112 25951
L11112 25801
" />
<path d="M11300 26401
L11300 26176
" />
<path d="M11300 26288
L10906 26288
L10962 26251
L11000 26213
L11018 26176
" />
<path d="M10906 26645
L10906 26682
L10925 26720
L10943 26738
L10981 26757
L11056 26776
L11150 26776
L11225 26757
L11262 26738
L11281 26720
L11300 26682
L11300 26645
L11281 26607
L11262 26588
L11225 26570
L11150 26551
L11056 26551
L10981 26570
L10943 26588
L10925 26607
L10906 26645
" />
<g transform="rotate(-90 26870.1 26181.1)">
<text x="26870.1" y="26378"
transform="scale(-1 1) translate(-53740.157480 0)"
textLength="691.882" font-size="524.934" lengthAdjust="spacingAndGlyphs"
text-anchor="middle" opacity="0">R9</text>
</g>
<path d="M27048 26115
L26860 25984
" />
<path d="M27048 25890
L26654 25890
L26654 26040
L26673 26077
L26691 26096
L26729 26115
L26785 26115
L26823 26096
L26841 26077
L26860 26040
L26860 25890
" />
<path d="M27048 26302
L27048 26377
L27029 26415
L27010 26434
L26954 26471
L26879 26490
L26729 26490
L26691 26471
L26673 26452
L26654 26415
L26654 26340
L26673 26302
L26691 26284
L26729 26265
L26823 26265
L26860 26284
L26879 26302
L26898 26340
L26898 26415
L26879 26452
L26860 26471
L26823 26490
" />
<g transform="rotate(-90 20866.1 26181.1)">
<text x="20866.1" y="26378"
transform="scale(-1 1) translate(-41732.283465 0)"
textLength="691.882" font-size="524.934" lengthAdjust="spacingAndGlyphs"
text-anchor="middle" opacity="0">R8</text>
</g>
<path d="M21044 26115
L20856 25984
" />
<path d="M21044 25890
L20650 25890
L20650 26040
L20669 26077
L20688 26096
L20725 26115
L20781 26115
L20819 26096
L20838 26077
L20856 26040
L20856 25890
" />
<path d="M20819 26340
L20800 26302
L20781 26284
L20744 26265
L20725 26265
L20688 26284
L20669 26302
L20650 26340
L20650 26415
L20669 26452
L20688 26471
L20725 26490
L20744 26490
L20781 26471
L20800 26452
L20819 26415
L20819 26340
L20838 26302
L20856 26284
L20894 26265
L20969 26265
L21006 26284
L21025 26302
L21044 26340
L21044 26415
L21025 26452
L21006 26471
L20969 26490
L20894 26490
L20856 26471
L20838 26452
L20819 26415
" />
<text x="15649.6" y="19881.9"
transform="scale(-1 1) translate(-31299.212598 0)"
textLength="710.63" font-size="524.934" lengthAdjust="spacingAndGlyphs"
text-anchor="middle" opacity="0">Q3</text>
<path d="M15687 19900
L15724 19881
L15762 19844
L15818 19788
L15855 19769
L15893 19769
" />
<path d="M15874 19863
L15912 19844
L15949 19806
L15968 19731
L15968 19600
L15949 19525
L15912 19488
L15874 19469
L15799 19469
L15762 19488
L15724 19525
L15705 19600
L15705 19731
L15724 19806
L15762 19844
L15799 19863
L15874 19863
" />
<path d="M15574 19469
L15330 19469
L15462 19619
L15405 19619
L15368 19638
L15349 19656
L15330 19694
L15330 19788
L15349 19825
L15368 19844
L15405 19863
L15518 19863
L15555 19844
L15574 19825
" />
<text x="12598.4" y="21281.9"
transform="scale(-1 1) translate(-25196.850394 0)"
textLength="691.882" font-size="524.934" lengthAdjust="spacingAndGlyphs"
text-anchor="middle" opacity="0">R7</text>
<path d="M12664 21263
L12795 21075
" />
<path d="M12889 21263
L12889 20869
L12739 20869
L12701 20888
L12682 20906
L12664 20944
L12664 21000
L12682 21038
L12701 21056
L12739 21075
L12889 21075
" />
<path d="M12532 20869
L12270 20869
L12439 21263
" />
<text x="15649.6" y="22539.4"
transform="scale(-1 1) translate(-31299.212598 0)"
textLength="710.63" font-size="524.934" lengthAdjust="spacingAndGlyphs"
text-anchor="middle" opacity="0">Q4</text>
<path d="M15687 22558
L15724 22539
L15762 22501
L15818 22445
L15855 22426
L15893 22426
" />
<path d="M15874 22520
L15912 22501
L15949 22464
L15968 22389
L15968 22258
L15949 22183
L15912 22145
L15874 22126
L15799 22126
L15762 22145
L15724 22183
L15705 22258
L15705 22389
L15724 22464
L15762 22501
L15799 22520
L15874 22520
" />
<path d="M15368 22258
L15368 22520
" />
<path d="M15462 22108
L15555 22389
L15312 22389
" />
<text x="12598.4" y="22681.9"
transform="scale(-1 1) translate(-25196.850394 0)"
textLength="691.882" font-size="524.934" lengthAdjust="spacingAndGlyphs"
text-anchor="middle" opacity="0">R6</text>
<path d="M12664 22663
L12795 22475
" />
<path d="M12889 22663
L12889 22269
L12739 22269
L12701 22288
L12682 22306
L12664 22344
L12664 22400
L12682 22438
L12701 22456
L12739 22475
L12889 22475
" />
<path d="M12326 22269
L12401 22269
L12439 22288
L12457 22306
L12495 22363
L12514 22438
L12514 22588
L12495 22625
L12476 22644
L12439 22663
L12364 22663
L12326 22644
L12307 22625
L12289 22588
L12289 22494
L12307 22456
L12326 22438
L12364 22419
L12439 22419
L12476 22438
L12495 22456
L12514 22494
" />
<text x="25196.9" y="20669.3"
transform="scale(-1 1) translate(-50393.700787 0)"
textLength="1066.84" font-size="524.934" lengthAdjust="spacingAndGlyphs"
text-anchor="middle" opacity="0">R19</text>
<path d="M25449 20650
L25581 20463
" />
<path d="M25674 20650
L25674 20256
L25524 20256
L25487 20275
L25468 20294
L25449 20331
L25449 20388
L25468 20425
L25487 20444
L25524 20463
L25674 20463
" />
<path d="M25074 20650
L25299 20650
" />
<path d="M25187 20650
L25187 20256
L25224 20313
L25262 20350
L25299 20369
" />
<path d="M24887 20650
L24812 20650
L24775 20631
L24756 20613
L24718 20556
L24700 20481
L24700 20331
L24718 20294
L24737 20275
L24775 20256
L24850 20256
L24887 20275
L24906 20294
L24925 20331
L24925 20425
L24906 20463
L24887 20481
L24850 20500
L24775 20500
L24737 20481
L24718 20463
L24700 20425
" />
<text x="15649.6" y="21259.8"
transform="scale(-1 1) translate(-31299.212598 0)"
textLength="710.63" font-size="524.934" lengthAdjust="spacingAndGlyphs"
text-anchor="middle" opacity="0">Q5</text>
<path d="M15687 21278
L15724 21259
L15762 21222
L15818 21166
L15855 21147
L15893 21147
" />
<path d="M15874 21241
L15912 21222
L15949 21184
L15968 21109
L15968 20978
L15949 20903
L15912 20866
L15874 20847
L15799 20847
L15762 20866
L15724 20903
L15705 20978
L15705 21109
L15724 21184
L15762 21222
L15799 21241
L15874 21241
" />
<path d="M15349 20847
L15537 20847
L15555 21034
L15537 21016
L15499 20997
L15405 20997
L15368 21016
L15349 21034
L15330 21072
L15330 21166
L15349 21203
L15368 21222
L15405 21241
L15499 21241
L15537 21222
L15555 21203
" />
<text x="25196.9" y="21850.4"
transform="scale(-1 1) translate(-50393.700787 0)"
textLength="1066.84" font-size="524.934" lengthAdjust="spacingAndGlyphs"
text-anchor="middle" opacity="0">R18</text>
<path d="M25449 21831
L25581 21644
" />
<path d="M25674 21831
L25674 21437
L25524 21437
L25487 21456
L25468 21475
L25449 21512
L25449 21569
L25468 21606
L25487 21625
L25524 21644
L25674 21644
" />
<path d="M25074 21831
L25299 21831
" />
<path d="M25187 21831
L25187 21437
L25224 21494
L25262 21531
L25299 21550
" />
<path d="M24850 21606
L24887 21587
L24906 21569
L24925 21531
L24925 21512
L24906 21475
L24887 21456
L24850 21437
L24775 21437
L24737 21456
L24718 21475
L24700 21512
L24700 21531
L24718 21569
L24737 21587
L24775 21606
L24850 21606
L24887 21625
L24906 21644
L24925 21681
L24925 21756
L24906 21794
L24887 21812
L24850 21831
L24775 21831
L24737 21812
L24718 21794
L24700 21756
L24700 21681
L24718 21644
L24737 21625
L24775 21606
" />
<text x="25196.9" y="18307.1"
transform="scale(-1 1) translate(-50393.700787 0)"
textLength="1066.84" font-size="524.934" lengthAdjust="spacingAndGlyphs"
text-anchor="middle" opacity="0">R17</text>
<path d="M25449 18288
L25581 18100
" />
<path d="M25674 18288
L25674 17894
L25524 17894
L25487 17913
L25468 17932
L25449 17969
L25449 18025
L25468 18063
L25487 18082
L25524 18100
L25674 18100
" />
<path d="M25074 18288
L25299 18288
" />
<path d="M25187 18288
L25187 17894
L25224 17950
L25262 17988
L25299 18007
" />
<path d="M24943 17894
L24681 17894
L24850 18288
" />
<text x="29527.6" y="16830.7"
transform="scale(-1 1) translate(-59055.118110 0)"
textLength="710.63" font-size="524.934" lengthAdjust="spacingAndGlyphs"
text-anchor="middle" opacity="0">U2</text>
<path d="M29827 16418
L29827 16736
L29808 16774
L29790 16793
L29752 16811
L29677 16811
L29640 16793
L29621 16774
L29602 16736
L29602 16418
" />
<path d="M29433 16455
L29415 16437
L29377 16418
L29283 16418
L29246 16437
L29227 16455
L29208 16493
L29208 16530
L29227 16586
L29452 16811
L29208 16811
" />
<text x="15649.6" y="18405.5"
transform="scale(-1 1) translate(-31299.212598 0)"
textLength="710.63" font-size="524.934" lengthAdjust="spacingAndGlyphs"
text-anchor="middle" opacity="0">Q2</text>
<path d="M15687 18424
L15724 18405
L15762 18368
L15818 18311
L15855 18293
L15893 18293
" />
<path d="M15874 18386
L15912 18368
L15949 18330
L15968 18255
L15968 18124
L15949 18049
L15912 18011
L15874 17993
L15799 17993
L15762 18011
L15724 18049
L15705 18124
L15705 18255
L15724 18330
L15762 18368
L15799 18386
L15874 18386
" />
<path d="M15555 18030
L15537 18011
L15499 17993
L15405 17993
L15368 18011
L15349 18030
L15330 18068
L15330 18105
L15349 18161
L15574 18386
L15330 18386
" />
<text x="15649.6" y="17027.6"
transform="scale(-1 1) translate(-31299.212598 0)"
textLength="710.63" font-size="524.934" lengthAdjust="spacingAndGlyphs"
text-anchor="middle" opacity="0">Q1</text>
<path d="M15687 17046
L15724 17027
L15762 16990
L15818 16933
L15855 16915
L15893 16915
" />
<path d="M15874 17008
L15912 16990
L15949 16952
L15968 16877
L15968 16746
L15949 16671
L15912 16633
L15874 16615
L15799 16615
L15762 16633
L15724 16671
L15705 16746
L15705 16877
L15724 16952
L15762 16990
L15799 17008
L15874 17008
" />
<path d="M15330 17008
L15555 17008
" />
<path d="M15443 17008
L15443 16615
L15480 16671
L15518 16708
L15555 16727
" />
<text x="13189" y="9251.97"
transform="scale(-1 1) translate(-26377.952756 0)"
textLength="691.882" font-size="524.934" lengthAdjust="spacingAndGlyphs"
text-anchor="middle" opacity="0">C1</text>
<path d="M13254 9195
L13273 9214
L13329 9233
L13367 9233
L13423 9214
L13460 9176
L13479 9139
L13498 9064
L13498 9008
L13479 8933
L13460 8895
L13423 8858
L13367 8839
L13329 8839
L13273 8858
L13254 8877
" />
<path d="M12879 9233
L13104 9233
" />
<path d="M12992 9233
L12992 8839
L13029 8895
L13067 8933
L13104 8952
" />
<g transform="rotate(-90 16929.1 26378)">
<text x="16929.1" y="26574.8"
transform="scale(-1 1) translate(-33858.267717 0)"
textLength="1066.84" font-size="524.934" lengthAdjust="spacingAndGlyphs"
text-anchor="middle" opacity="0">C11</text>
</g>
<path d="M17069 26124
L17088 26106
L17107 26049
L17107 26012
L17088 25956
L17050 25918
L17013 25899
L16938 25881
L16882 25881
L16807 25899
L16769 25918
L16732 25956
L16713 26012
L16713 26049
L16732 26106
L16751 26124
" />
<path d="M17107 26499
L17107 26274
" />
<path d="M17107 26387
L16713 26387
L16769 26349
L16807 26312
L16826 26274
" />
<path d="M17107 26874
L17107 26649
" />
<path d="M17107 26762
L16713 26762
L16769 26724
L16807 26687
L16826 26649
" />
<g transform="rotate(-90 9448.82 26082.7)">
<text x="9448.82" y="26279.5"
transform="scale(-1 1) translate(-18897.637795 0)"
textLength="691.882" font-size="524.934" lengthAdjust="spacingAndGlyphs"
text-anchor="middle" opacity="0">C8</text>
</g>
<path d="M9589 26017
L9608 25998
L9626 25942
L9626 25904
L9608 25848
L9570 25810
L9533 25792
L9458 25773
L9401 25773
L9326 25792
L9289 25810
L9251 25848
L9233 25904
L9233 25942
L9251 25998
L9270 26017
" />
<path d="M9401 26242
L9383 26204
L9364 26185
L9326 26167
L9308 26167
L9270 26185
L9251 26204
L9233 26242
L9233 26317
L9251 26354
L9270 26373
L9308 26392
L9326 26392
L9364 26373
L9383 26354
L9401 26317
L9401 26242
L9420 26204
L9439 26185
L9476 26167
L9551 26167
L9589 26185
L9608 26204
L9626 26242
L9626 26317
L9608 26354
L9589 26373
L9551 26392
L9476 26392
L9439 26373
L9420 26354
L9401 26317
" />
<g transform="rotate(-90 25196.9 26181.1)">
<text x="25196.9" y="26378"
transform="scale(-1 1) translate(-50393.700787 0)"
textLength="691.882" font-size="524.934" lengthAdjust="spacingAndGlyphs"
text-anchor="middle" opacity="0">C7</text>
</g>
<path d="M25337 26115
L25356 26096
L25374 26040
L25374 26002
L25356 25946
L25318 25909
L25281 25890
L25206 25871
L25149 25871
L25074 25890
L25037 25909
L25000 25946
L24981 26002
L24981 26040
L25000 26096
L25018 26115
" />
<path d="M24981 26246
L24981 26509
L25374 26340
" />
<g transform="rotate(-90 22539.4 26181.1)">
<text x="22539.4" y="26378"
transform="scale(-1 1) translate(-45078.740157 0)"
textLength="691.882" font-size="524.934" lengthAdjust="spacingAndGlyphs"
text-anchor="middle" opacity="0">C6</text>
</g>
<path d="M22679 26115
L22698 26096
L22717 26040
L22717 26002
L22698 25946
L22661 25909
L22623 25890
L22548 25871
L22492 25871
L22417 25890
L22380 25909
L22342 25946
L22323 26002
L22323 26040
L22342 26096
L22361 26115
" />
<path d="M22323 26452
L22323 26377
L22342 26340
L22361 26321
L22417 26284
L22492 26265
L22642 26265
L22679 26284
L22698 26302
L22717 26340
L22717 26415
L22698 26452
L22679 26471
L22642 26490
L22548 26490
L22511 26471
L22492 26452
L22473 26415
L22473 26340
L22492 26302
L22511 26284
L22548 26265
" />
<text x="10334.6" y="8464.57"
transform="scale(-1 1) translate(-20669.291339 0)"
textLength="691.882" font-size="524.934" lengthAdjust="spacingAndGlyphs"
text-anchor="middle" opacity="0">C5</text>
<path d="M10400 8408
L10419 8427
L10475 8445
L10512 8445
L10568 8427
L10606 8389
L10625 8352
L10643 8277
L10643 8220
L10625 8145
L10606 8108
L10568 8070
L10512 8052
L10475 8052
L10419 8070
L10400 8089
" />
<path d="M10044 8052
L10231 8052
L10250 8239
L10231 8220
L10194 8202
L10100 8202
L10062 8220
L10044 8239
L10025 8277
L10025 8370
L10044 8408
L10062 8427
L10100 8445
L10194 8445
L10231 8427
L10250 8408
" />
<text x="25196.9" y="20078.7"
transform="scale(-1 1) translate(-50393.700787 0)"
textLength="1066.84" font-size="524.934" lengthAdjust="spacingAndGlyphs"
text-anchor="middle" opacity="0">R15</text>
<path d="M25449 20059
L25581 19872
" />
<path d="M25674 20059
L25674 19666
L25524 19666
L25487 19685
L25468 19703
L25449 19741
L25449 19797
L25468 19835
L25487 19853
L25524 19872
L25674 19872
" />
<path d="M25074 20059
L25299 20059
" />
<path d="M25187 20059
L25187 19666
L25224 19722
L25262 19760
L25299 19778
" />
<path d="M24718 19666
L24906 19666
L24925 19853
L24906 19835
L24868 19816
L24775 19816
L24737 19835
L24718 19853
L24700 19891
L24700 19985
L24718 20022
L24737 20041
L24775 20059
L24868 20059
L24906 20041
L24925 20022
" />
<text x="25196.9" y="19488.2"
transform="scale(-1 1) translate(-50393.700787 0)"
textLength="1066.84" font-size="524.934" lengthAdjust="spacingAndGlyphs"
text-anchor="middle" opacity="0">R16</text>
<path d="M25449 19469
L25581 19281
" />
<path d="M25674 19469
L25674 19075
L25524 19075
L25487 19094
L25468 19113
L25449 19150
L25449 19206
L25468 19244
L25487 19263
L25524 19281
L25674 19281
" />
<path d="M25074 19469
L25299 19469
" />
<path d="M25187 19469
L25187 19075
L25224 19131
L25262 19169
L25299 19188
" />
<path d="M24737 19075
L24812 19075
L24850 19094
L24868 19113
L24906 19169
L24925 19244
L24925 19394
L24906 19431
L24887 19450
L24850 19469
L24775 19469
L24737 19450
L24718 19431
L24700 19394
L24700 19300
L24718 19263
L24737 19244
L24775 19225
L24850 19225
L24887 19244
L24906 19263
L24925 19300
" />
<text x="25196.9" y="17716.5"
transform="scale(-1 1) translate(-50393.700787 0)"
textLength="1066.84" font-size="524.934" lengthAdjust="spacingAndGlyphs"
text-anchor="middle" opacity="0">R13</text>
<path d="M25449 17697
L25581 17510
" />
<path d="M25674 17697
L25674 17304
L25524 17304
L25487 17322
L25468 17341
L25449 17379
L25449 17435
L25468 17472
L25487 17491
L25524 17510
L25674 17510
" />
<path d="M25074 17697
L25299 17697
" />
<path d="M25187 17697
L25187 17304
L25224 17360
L25262 17397
L25299 17416
" />
<path d="M24943 17304
L24700 17304
L24831 17454
L24775 17454
L24737 17472
L24718 17491
L24700 17529
L24700 17622
L24718 17660
L24737 17679
L24775 17697
L24887 17697
L24925 17679
L24943 17660
" />
<text x="25196.9" y="21259.8"
transform="scale(-1 1) translate(-50393.700787 0)"
textLength="1066.84" font-size="524.934" lengthAdjust="spacingAndGlyphs"
text-anchor="middle" opacity="0">R14</text>
<path d="M25449 21241
L25581 21053
" />
<path d="M25674 21241
L25674 20847
L25524 20847
L25487 20866
L25468 20884
L25449 20922
L25449 20978
L25468 21016
L25487 21034
L25524 21053
L25674 21053
" />
<path d="M25074 21241
L25299 21241
" />
<path d="M25187 21241
L25187 20847
L25224 20903
L25262 20941
L25299 20959
" />
<path d="M24737 20978
L24737 21241
" />
<path d="M24831 20828
L24925 21109
L24681 21109
" />
<text x="25196.9" y="18897.6"
transform="scale(-1 1) translate(-50393.700787 0)"
textLength="1066.84" font-size="524.934" lengthAdjust="spacingAndGlyphs"
text-anchor="middle" opacity="0">R12</text>
<path d="M25449 18878
L25581 18691
" />
<path d="M25674 18878
L25674 18485
L25524 18485
L25487 18503
L25468 18522
L25449 18560
L25449 18616
L25468 18653
L25487 18672
L25524 18691
L25674 18691
" />
<path d="M25074 18878
L25299 18878
" />
<path d="M25187 18878
L25187 18485
L25224 18541
L25262 18578
L25299 18597
" />
<path d="M24925 18522
L24906 18503
L24868 18485
L24775 18485
L24737 18503
L24718 18522
L24700 18560
L24700 18597
L24718 18653
L24943 18878
L24700 18878
" />
<text x="13189" y="8169.29"
transform="scale(-1 1) translate(-26377.952756 0)"
textLength="691.882" font-size="524.934" lengthAdjust="spacingAndGlyphs"
text-anchor="middle" opacity="0">C2</text>
<path d="M13254 8113
L13273 8131
L13329 8150
L13367 8150
L13423 8131
L13460 8094
L13479 8056
L13498 7981
L13498 7925
L13479 7850
L13460 7813
L13423 7775
L13367 7756
L13329 7756
L13273 7775
L13254 7794
" />
<path d="M13104 7794
L13085 7775
L13048 7756
L12954 7756
L12917 7775
L12898 7794
L12879 7831
L12879 7869
L12898 7925
L13123 8150
L12879 8150
" />
<g >
</g>
</g> 
</svg>
