%TF.GenerationSoftware,KiCad,Pcbnew,(5.1.10)-1*%
%TF.CreationDate,2021-10-03T21:55:55+02:00*%
%TF.ProjectId,KitchenTimer,4b697463-6865-46e5-9469-6d65722e6b69,rev?*%
%TF.SameCoordinates,Original*%
%TF.FileFunction,Copper,L1,Top*%
%TF.FilePolarity,Positive*%
%FSLAX46Y46*%
G04 Gerber Fmt 4.6, Leading zero omitted, Abs format (unit mm)*
G04 Created by KiCad (PCBNEW (5.1.10)-1) date 2021-10-03 21:55:55*
%MOMM*%
%LPD*%
G01*
G04 APERTURE LIST*
%TA.AperFunction,ComponentPad*%
%ADD10C,1.500000*%
%TD*%
%TA.AperFunction,ComponentPad*%
%ADD11C,5.600000*%
%TD*%
%TA.AperFunction,SMDPad,CuDef*%
%ADD12R,1.500000X0.900000*%
%TD*%
%TA.AperFunction,SMDPad,CuDef*%
%ADD13R,4.000000X4.000000*%
%TD*%
%TA.AperFunction,ComponentPad*%
%ADD14O,1.800000X1.100000*%
%TD*%
%TA.AperFunction,SMDPad,CuDef*%
%ADD15R,1.250000X0.400000*%
%TD*%
%TA.AperFunction,ComponentPad*%
%ADD16C,1.290000*%
%TD*%
%TA.AperFunction,ComponentPad*%
%ADD17O,1.700000X1.700000*%
%TD*%
%TA.AperFunction,ComponentPad*%
%ADD18R,1.700000X1.700000*%
%TD*%
%TA.AperFunction,SMDPad,CuDef*%
%ADD19R,1.550000X1.300000*%
%TD*%
%TA.AperFunction,SMDPad,CuDef*%
%ADD20R,2.100000X2.400000*%
%TD*%
%TA.AperFunction,ViaPad*%
%ADD21C,0.800000*%
%TD*%
%TA.AperFunction,Conductor*%
%ADD22C,0.500000*%
%TD*%
%TA.AperFunction,Conductor*%
%ADD23C,0.200000*%
%TD*%
%TA.AperFunction,Conductor*%
%ADD24C,0.750000*%
%TD*%
%TA.AperFunction,Conductor*%
%ADD25C,0.350000*%
%TD*%
%TA.AperFunction,Conductor*%
%ADD26C,0.250000*%
%TD*%
%TA.AperFunction,Conductor*%
%ADD27C,0.100000*%
%TD*%
G04 APERTURE END LIST*
%TO.P,C12,1*%
%TO.N,+3V3*%
%TA.AperFunction,SMDPad,CuDef*%
G36*
G01*
X76225000Y-26099998D02*
X76225000Y-27400002D01*
G75*
G02*
X75975002Y-27650000I-249998J0D01*
G01*
X75149998Y-27650000D01*
G75*
G02*
X74900000Y-27400002I0J249998D01*
G01*
X74900000Y-26099998D01*
G75*
G02*
X75149998Y-25850000I249998J0D01*
G01*
X75975002Y-25850000D01*
G75*
G02*
X76225000Y-26099998I0J-249998D01*
G01*
G37*
%TD.AperFunction*%
%TO.P,C12,2*%
%TO.N,GND*%
%TA.AperFunction,SMDPad,CuDef*%
G36*
G01*
X73100000Y-26099998D02*
X73100000Y-27400002D01*
G75*
G02*
X72850002Y-27650000I-249998J0D01*
G01*
X72024998Y-27650000D01*
G75*
G02*
X71775000Y-27400002I0J249998D01*
G01*
X71775000Y-26099998D01*
G75*
G02*
X72024998Y-25850000I249998J0D01*
G01*
X72850002Y-25850000D01*
G75*
G02*
X73100000Y-26099998I0J-249998D01*
G01*
G37*
%TD.AperFunction*%
%TD*%
D10*
%TO.P,LED1,14*%
%TO.N,Char_1_Power*%
X42380000Y-42380000D03*
%TO.P,LED1,13*%
%TO.N,Net-(LED1-Pad13)*%
X44920000Y-42380000D03*
%TO.P,LED1,12*%
%TO.N,Net-(LED1-Pad12)*%
X47460000Y-42380000D03*
%TO.P,LED1,11*%
%TO.N,Char_2_Power*%
X50000000Y-42380000D03*
%TO.P,LED1,10*%
%TO.N,Char_3_Power*%
X52540000Y-42380000D03*
%TO.P,LED1,9*%
%TO.N,Net-(LED1-Pad9)*%
X55080000Y-42380000D03*
%TO.P,LED1,8*%
%TO.N,Net-(LED1-Pad8)*%
X57620000Y-42380000D03*
%TO.P,LED1,7*%
%TO.N,Char_(':')_Power*%
X57620000Y-57620000D03*
%TO.P,LED1,6*%
%TO.N,Char_4_Power*%
X55080000Y-57620000D03*
%TO.P,LED1,5*%
%TO.N,Net-(LED1-Pad5)*%
X52540000Y-57620000D03*
%TO.P,LED1,4*%
%TO.N,Net-(LED1-Pad4)*%
X50000000Y-57620000D03*
%TO.P,LED1,3*%
%TO.N,Net-(LED1-Pad3)*%
X47460000Y-57620000D03*
%TO.P,LED1,2*%
%TO.N,Net-(LED1-Pad2)*%
X44920000Y-57620000D03*
%TO.P,LED1,1*%
%TO.N,Net-(LED1-Pad1)*%
X42380000Y-57620000D03*
%TD*%
%TO.P,C10,2*%
%TO.N,GND*%
%TA.AperFunction,SMDPad,CuDef*%
G36*
G01*
X73100000Y-28599998D02*
X73100000Y-29900002D01*
G75*
G02*
X72850002Y-30150000I-249998J0D01*
G01*
X72024998Y-30150000D01*
G75*
G02*
X71775000Y-29900002I0J249998D01*
G01*
X71775000Y-28599998D01*
G75*
G02*
X72024998Y-28350000I249998J0D01*
G01*
X72850002Y-28350000D01*
G75*
G02*
X73100000Y-28599998I0J-249998D01*
G01*
G37*
%TD.AperFunction*%
%TO.P,C10,1*%
%TO.N,+5V*%
%TA.AperFunction,SMDPad,CuDef*%
G36*
G01*
X76225000Y-28599998D02*
X76225000Y-29900002D01*
G75*
G02*
X75975002Y-30150000I-249998J0D01*
G01*
X75149998Y-30150000D01*
G75*
G02*
X74900000Y-29900002I0J249998D01*
G01*
X74900000Y-28599998D01*
G75*
G02*
X75149998Y-28350000I249998J0D01*
G01*
X75975002Y-28350000D01*
G75*
G02*
X76225000Y-28599998I0J-249998D01*
G01*
G37*
%TD.AperFunction*%
%TD*%
D11*
%TO.P,J6,1*%
%TO.N,GND*%
X18750000Y-23000000D03*
%TD*%
%TO.P,J5,1*%
%TO.N,GND*%
X18750000Y-69000000D03*
%TD*%
%TO.P,J4,1*%
%TO.N,GND*%
X81000000Y-23000000D03*
%TD*%
%TO.P,J3,1*%
%TO.N,GND*%
X81250000Y-69000000D03*
%TD*%
D12*
%TO.P,U1,1*%
%TO.N,+3V3*%
X41210000Y-25200000D03*
%TO.P,U1,2*%
%TO.N,ESP_Enable*%
X41210000Y-26700000D03*
%TO.P,U1,3*%
%TO.N,BTN_ResetCountdown*%
X41210000Y-28200000D03*
%TO.P,U1,4*%
%TO.N,!Clear*%
X41210000Y-29700000D03*
%TO.P,U1,5*%
%TO.N,ShiftRegister_Output_Enable*%
X41210000Y-31200000D03*
%TO.P,U1,6*%
%TO.N,BTN_StartStop*%
X41210000Y-32700000D03*
%TO.P,U1,7*%
%TO.N,BTN_Up*%
X41210000Y-34200000D03*
%TO.P,U1,8*%
%TO.N,BTN_Down*%
X41210000Y-35700000D03*
%TO.P,U1,9*%
%TO.N,GND*%
X41210000Y-37200000D03*
%TO.P,U1,10*%
%TO.N,Clock*%
X58710000Y-37200000D03*
%TO.P,U1,11*%
%TO.N,ESP_RX*%
X58710000Y-35700000D03*
%TO.P,U1,12*%
%TO.N,ESP_TX*%
X58710000Y-34200000D03*
%TO.P,U1,13*%
%TO.N,GND*%
X58710000Y-32700000D03*
%TO.P,U1,14*%
%TO.N,Latch*%
X58710000Y-31200000D03*
%TO.P,U1,15*%
%TO.N,ESP_Reset*%
X58710000Y-29700000D03*
%TO.P,U1,16*%
%TO.N,Net-(U1-Pad16)*%
X58710000Y-28200000D03*
%TO.P,U1,17*%
%TO.N,Data*%
X58710000Y-26700000D03*
%TO.P,U1,18*%
%TO.N,GND*%
X58710000Y-25200000D03*
D13*
%TO.P,U1,19*%
X51060000Y-33710000D03*
%TD*%
D14*
%TO.P,J2,6*%
%TO.N,GND*%
X83800000Y-29900000D03*
%TA.AperFunction,SMDPad,CuDef*%
G36*
G01*
X84300000Y-35000000D02*
X83300000Y-35000000D01*
G75*
G02*
X82800000Y-34500000I0J500000D01*
G01*
X82800000Y-32500000D01*
G75*
G02*
X83300000Y-32000000I500000J0D01*
G01*
X84300000Y-32000000D01*
G75*
G02*
X84800000Y-32500000I0J-500000D01*
G01*
X84800000Y-34500000D01*
G75*
G02*
X84300000Y-35000000I-500000J0D01*
G01*
G37*
%TD.AperFunction*%
D15*
%TO.P,J2,5*%
X81000000Y-32150000D03*
%TO.P,J2,4*%
%TO.N,Net-(J2-Pad4)*%
X81000000Y-32850000D03*
%TO.P,J2,3*%
%TO.N,Net-(J2-Pad3)*%
X81000000Y-33500000D03*
%TO.P,J2,2*%
%TO.N,Net-(J2-Pad2)*%
X81000000Y-34150000D03*
%TO.P,J2,1*%
%TO.N,+5V*%
X81000000Y-34800000D03*
D16*
%TO.P,J2,6*%
%TO.N,GND*%
X81000000Y-31075000D03*
X81000000Y-35925000D03*
D14*
X83800000Y-29900000D03*
X83800000Y-37100000D03*
%TD*%
%TO.P,C13,1*%
%TO.N,+3V3*%
%TA.AperFunction,SMDPad,CuDef*%
G36*
G01*
X76225000Y-23599998D02*
X76225000Y-24900002D01*
G75*
G02*
X75975002Y-25150000I-249998J0D01*
G01*
X75149998Y-25150000D01*
G75*
G02*
X74900000Y-24900002I0J249998D01*
G01*
X74900000Y-23599998D01*
G75*
G02*
X75149998Y-23350000I249998J0D01*
G01*
X75975002Y-23350000D01*
G75*
G02*
X76225000Y-23599998I0J-249998D01*
G01*
G37*
%TD.AperFunction*%
%TO.P,C13,2*%
%TO.N,GND*%
%TA.AperFunction,SMDPad,CuDef*%
G36*
G01*
X73100000Y-23599998D02*
X73100000Y-24900002D01*
G75*
G02*
X72850002Y-25150000I-249998J0D01*
G01*
X72024998Y-25150000D01*
G75*
G02*
X71775000Y-24900002I0J249998D01*
G01*
X71775000Y-23599998D01*
G75*
G02*
X72024998Y-23350000I249998J0D01*
G01*
X72850002Y-23350000D01*
G75*
G02*
X73100000Y-23599998I0J-249998D01*
G01*
G37*
%TD.AperFunction*%
%TD*%
%TO.P,C9,2*%
%TO.N,GND*%
%TA.AperFunction,SMDPad,CuDef*%
G36*
G01*
X73100000Y-31099998D02*
X73100000Y-32400002D01*
G75*
G02*
X72850002Y-32650000I-249998J0D01*
G01*
X72024998Y-32650000D01*
G75*
G02*
X71775000Y-32400002I0J249998D01*
G01*
X71775000Y-31099998D01*
G75*
G02*
X72024998Y-30850000I249998J0D01*
G01*
X72850002Y-30850000D01*
G75*
G02*
X73100000Y-31099998I0J-249998D01*
G01*
G37*
%TD.AperFunction*%
%TO.P,C9,1*%
%TO.N,+5V*%
%TA.AperFunction,SMDPad,CuDef*%
G36*
G01*
X76225000Y-31099998D02*
X76225000Y-32400002D01*
G75*
G02*
X75975002Y-32650000I-249998J0D01*
G01*
X75149998Y-32650000D01*
G75*
G02*
X74900000Y-32400002I0J249998D01*
G01*
X74900000Y-31099998D01*
G75*
G02*
X75149998Y-30850000I249998J0D01*
G01*
X75975002Y-30850000D01*
G75*
G02*
X76225000Y-31099998I0J-249998D01*
G01*
G37*
%TD.AperFunction*%
%TD*%
D17*
%TO.P,J1,4*%
%TO.N,GND*%
X62681281Y-20534799D03*
%TO.P,J1,3*%
%TO.N,ESP_RX*%
X65221281Y-20534799D03*
%TO.P,J1,2*%
%TO.N,ESP_TX*%
X67761281Y-20534799D03*
D18*
%TO.P,J1,1*%
%TO.N,+5V*%
X70301281Y-20534799D03*
%TD*%
D19*
%TO.P,SW6,3*%
%TO.N,BTN_Down*%
X44975000Y-62250000D03*
%TO.P,SW6,4*%
%TO.N,GND*%
X44975000Y-66750000D03*
%TO.P,SW6,2*%
X37025000Y-66750000D03*
%TO.P,SW6,1*%
%TO.N,BTN_Down*%
X37025000Y-62250000D03*
%TD*%
%TO.P,SW5,3*%
%TO.N,BTN_Up*%
X33975000Y-62250000D03*
%TO.P,SW5,4*%
%TO.N,GND*%
X33975000Y-66750000D03*
%TO.P,SW5,2*%
X26025000Y-66750000D03*
%TO.P,SW5,1*%
%TO.N,BTN_Up*%
X26025000Y-62250000D03*
%TD*%
%TO.P,SW4,3*%
%TO.N,BTN_ResetCountdown*%
X73975000Y-62250000D03*
%TO.P,SW4,4*%
%TO.N,GND*%
X73975000Y-66750000D03*
%TO.P,SW4,2*%
X66025000Y-66750000D03*
%TO.P,SW4,1*%
%TO.N,BTN_ResetCountdown*%
X66025000Y-62250000D03*
%TD*%
%TO.P,SW3,3*%
%TO.N,BTN_StartStop*%
X62975000Y-62250000D03*
%TO.P,SW3,4*%
%TO.N,GND*%
X62975000Y-66750000D03*
%TO.P,SW3,2*%
X55025000Y-66750000D03*
%TO.P,SW3,1*%
%TO.N,BTN_StartStop*%
X55025000Y-62250000D03*
%TD*%
D20*
%TO.P,SW2,1*%
%TO.N,ESP_Enable*%
X30750000Y-27940000D03*
%TO.P,SW2,2*%
%TO.N,GND*%
X30750000Y-20140000D03*
%TD*%
%TO.P,SW1,1*%
%TO.N,BTN_Down*%
X34500000Y-27940000D03*
%TO.P,SW1,2*%
%TO.N,GND*%
X34500000Y-20140000D03*
%TD*%
D21*
%TO.N,GND*%
X33500000Y-22500000D03*
X33500000Y-23500000D03*
%TO.N,+5V*%
X74250000Y-34500020D03*
%TO.N,+3V3*%
X40000000Y-22000000D03*
X40000000Y-21000000D03*
X40000000Y-20000000D03*
X40000000Y-19000000D03*
X39500000Y-23000000D03*
X31750000Y-58250000D03*
X31750000Y-54750000D03*
X31750000Y-51250000D03*
X31750000Y-44250000D03*
X31750000Y-47750000D03*
X77000000Y-23750000D03*
X77000000Y-24750000D03*
X77000000Y-25750000D03*
X77000000Y-26750000D03*
X78000000Y-26750000D03*
%TO.N,ESP_RX*%
X69301281Y-30534799D03*
X67250000Y-29749974D03*
%TO.N,Char_2_Power*%
X40250000Y-46250000D03*
%TO.N,Char_3_Power*%
X40250000Y-48250000D03*
%TO.N,Char_4_Power*%
X41322006Y-54572000D03*
%TO.N,Char_(':')_Power*%
X40348000Y-53556000D03*
%TO.N,ShiftRegister_Output_Enable*%
X37801281Y-31284799D03*
X45000000Y-31250000D03*
%TO.N,BTN_Down*%
X39300013Y-35699987D03*
X27750000Y-25000000D03*
X39250000Y-66000000D03*
X45000000Y-62250000D03*
X38750000Y-28500000D03*
%TO.N,ESP_Enable*%
X38000012Y-26750000D03*
%TO.N,BTN_StartStop*%
X34000000Y-30500000D03*
X27750000Y-26500000D03*
X55000000Y-62250000D03*
%TO.N,BTN_ResetCountdown*%
X66000000Y-62250000D03*
X38500000Y-25500000D03*
X44750000Y-26750000D03*
%TO.N,BTN_Up*%
X27750000Y-28000000D03*
X32250000Y-30425000D03*
X26025000Y-62250000D03*
%TO.N,Data*%
X60950000Y-26700000D03*
%TO.N,Latch*%
X25814212Y-34250000D03*
X66249998Y-33500000D03*
%TO.N,Clock*%
X65801281Y-39034799D03*
X25301281Y-38784799D03*
%TO.N,!Clear*%
X54801281Y-30534799D03*
X24999998Y-33500000D03*
%TO.N,GND*%
X61000000Y-32750000D03*
X51060000Y-33710000D03*
X25250000Y-46250000D03*
X44250000Y-36500000D03*
X40500000Y-65000000D03*
X55000000Y-65000000D03*
X66000000Y-65000000D03*
X23000000Y-67000000D03*
X25500000Y-20250000D03*
X30250000Y-31500000D03*
X77000000Y-39000000D03*
X60750000Y-42750000D03*
X34500000Y-23500000D03*
%TD*%
D22*
%TO.N,*%
X14000000Y-19750000D02*
X14000000Y-18250000D01*
X14000000Y-18250000D02*
X15500000Y-18250000D01*
D23*
X14500000Y-18750000D02*
X15467151Y-19717151D01*
D24*
%TO.N,+5V*%
X75762500Y-29050000D02*
X75562500Y-29250000D01*
D25*
X75562500Y-31750000D02*
X75562500Y-29250000D01*
X75249980Y-34500020D02*
X74250000Y-34500020D01*
X75562500Y-34187500D02*
X75249980Y-34500020D01*
X75562500Y-31750000D02*
X75562500Y-34187500D01*
X76175000Y-34800000D02*
X75562500Y-34187500D01*
X81000000Y-34800000D02*
X76175000Y-34800000D01*
X70301281Y-20534799D02*
X72284799Y-20534799D01*
X72284799Y-20534799D02*
X74000000Y-22250000D01*
X74000000Y-22250000D02*
X74000000Y-29000000D01*
X74250000Y-29250000D02*
X75562500Y-29250000D01*
X74000000Y-29000000D02*
X74250000Y-29250000D01*
D26*
%TO.N,+3V3*%
X31750000Y-44250000D02*
X31750000Y-47750000D01*
X31750000Y-47750000D02*
X31750000Y-51250000D01*
X31750000Y-51250000D02*
X31750000Y-54750000D01*
X31750000Y-54750000D02*
X31750000Y-58250000D01*
D25*
X41210000Y-25200000D02*
X39950000Y-25200000D01*
X39500000Y-24750000D02*
X39500000Y-23000000D01*
X39950000Y-25200000D02*
X39500000Y-24750000D01*
X39500000Y-23000000D02*
X40000000Y-22500000D01*
X40000000Y-22500000D02*
X40000000Y-19000000D01*
D26*
%TO.N,ESP_RX*%
X65221281Y-27721255D02*
X67250000Y-29749974D01*
X65221281Y-20534799D02*
X65221281Y-27721255D01*
X67550000Y-35700000D02*
X58710000Y-35700000D01*
X69301281Y-33948719D02*
X67550000Y-35700000D01*
X69301281Y-30534799D02*
X69301281Y-33948719D01*
%TO.N,ESP_TX*%
X67761281Y-21736880D02*
X67761281Y-20534799D01*
X68301281Y-22276880D02*
X67761281Y-21736880D01*
X68301281Y-33198719D02*
X68301281Y-22276880D01*
X66600000Y-34900000D02*
X68301281Y-33198719D01*
X65150000Y-34900000D02*
X66600000Y-34900000D01*
X64450000Y-34200000D02*
X65150000Y-34900000D01*
X58710000Y-34200000D02*
X64450000Y-34200000D01*
D25*
%TO.N,Char_2_Power*%
X48500000Y-46250000D02*
X40250000Y-46250000D01*
X50000000Y-44750000D02*
X48500000Y-46250000D01*
X50000000Y-42380000D02*
X50000000Y-44750000D01*
%TO.N,Char_3_Power*%
X50250000Y-48250000D02*
X40250000Y-48250000D01*
X52540000Y-45960000D02*
X50250000Y-48250000D01*
X52540000Y-42380000D02*
X52540000Y-45960000D01*
%TO.N,Char_4_Power*%
X52032000Y-54572000D02*
X41322006Y-54572000D01*
X55080000Y-57620000D02*
X52032000Y-54572000D01*
%TO.N,Char_(':')_Power*%
X57620000Y-54572000D02*
X56604000Y-53556000D01*
X57620000Y-57620000D02*
X57620000Y-54572000D01*
X56604000Y-53556000D02*
X40348000Y-53556000D01*
D26*
%TO.N,ShiftRegister_Output_Enable*%
X41125201Y-31284799D02*
X41210000Y-31200000D01*
X37801281Y-31284799D02*
X41125201Y-31284799D01*
X41260000Y-31250000D02*
X41210000Y-31200000D01*
X45000000Y-31250000D02*
X41260000Y-31250000D01*
D25*
%TO.N,BTN_Down*%
X41210000Y-35700000D02*
X39300026Y-35700000D01*
X39300026Y-35700000D02*
X39300013Y-35699987D01*
X27750000Y-25000000D02*
X23500000Y-25000000D01*
X23500000Y-25000000D02*
X19000000Y-29500000D01*
X19000000Y-29500000D02*
X19000000Y-63750000D01*
X19000000Y-63750000D02*
X20250000Y-65000000D01*
X38250000Y-65000000D02*
X39250000Y-66000000D01*
X20250000Y-65000000D02*
X38250000Y-65000000D01*
X34500000Y-27940000D02*
X38190000Y-27940000D01*
X38190000Y-27940000D02*
X38750000Y-28500000D01*
X37025000Y-62250000D02*
X45000000Y-62250000D01*
%TO.N,ESP_Enable*%
X32500000Y-26000000D02*
X30750000Y-27750000D01*
X37250000Y-26000000D02*
X32500000Y-26000000D01*
X38000000Y-26750000D02*
X37250000Y-26000000D01*
X30750000Y-27750000D02*
X30750000Y-27940000D01*
X41160000Y-26750000D02*
X38000000Y-26750000D01*
X41210000Y-26700000D02*
X41160000Y-26750000D01*
%TO.N,BTN_StartStop*%
X36200000Y-32700000D02*
X34000000Y-30500000D01*
X41210000Y-32700000D02*
X36200000Y-32700000D01*
X52750000Y-62250000D02*
X55025000Y-62250000D01*
X51250000Y-63750000D02*
X52750000Y-62250000D01*
X21750000Y-63750000D02*
X51250000Y-63750000D01*
X20250000Y-62250000D02*
X21750000Y-63750000D01*
X20250000Y-30750000D02*
X20250000Y-62250000D01*
X24500000Y-26500000D02*
X20250000Y-30750000D01*
X27750000Y-26500000D02*
X24500000Y-26500000D01*
X55000000Y-62250000D02*
X62975000Y-62250000D01*
%TO.N,BTN_ResetCountdown*%
X41210000Y-28200000D02*
X41210000Y-28210000D01*
X41210000Y-28210000D02*
X41170000Y-28250000D01*
X23500000Y-33534000D02*
X28750000Y-28284000D01*
X28750000Y-28284000D02*
X28750000Y-26250000D01*
X66025000Y-62250000D02*
X63775000Y-60000000D01*
X63775000Y-60000000D02*
X26500000Y-60000000D01*
X26500000Y-60000000D02*
X23500000Y-57000000D01*
X23500000Y-57000000D02*
X23500000Y-33534000D01*
X28750000Y-26250000D02*
X29899999Y-25100001D01*
X29899999Y-25100001D02*
X38100001Y-25100001D01*
X38100001Y-25100001D02*
X38500000Y-25500000D01*
X66025000Y-62250000D02*
X73975000Y-62250000D01*
X41210000Y-28200000D02*
X43300000Y-28200000D01*
X43300000Y-28200000D02*
X44750000Y-26750000D01*
%TO.N,BTN_Up*%
X26025000Y-62250000D02*
X23250000Y-62250000D01*
X23250000Y-62250000D02*
X21500000Y-60500000D01*
X21500000Y-60500000D02*
X21500000Y-31500000D01*
X25000000Y-28000000D02*
X27750000Y-28000000D01*
X21500000Y-31500000D02*
X25000000Y-28000000D01*
X36025000Y-34200000D02*
X41210000Y-34200000D01*
X32250000Y-30425000D02*
X36025000Y-34200000D01*
X26025000Y-62250000D02*
X33975000Y-62250000D01*
D26*
%TO.N,Data*%
X58710000Y-26700000D02*
X60950000Y-26700000D01*
%TO.N,Latch*%
X29849011Y-38284799D02*
X25814212Y-34250000D01*
X53551281Y-38284799D02*
X29849011Y-38284799D01*
X56301281Y-35534799D02*
X53551281Y-38284799D01*
X56301281Y-31784799D02*
X56301281Y-35534799D01*
X56886080Y-31200000D02*
X56301281Y-31784799D01*
X58710000Y-31200000D02*
X56886080Y-31200000D01*
X58710000Y-31200000D02*
X63949998Y-31200000D01*
X63949998Y-31200000D02*
X66249998Y-33500000D01*
%TO.N,Clock*%
X64966482Y-37200000D02*
X65801281Y-38034799D01*
X58710000Y-37200000D02*
X64966482Y-37200000D01*
X65801281Y-38034799D02*
X65801281Y-39034799D01*
X54965201Y-39034799D02*
X25551281Y-39034799D01*
X56800000Y-37200000D02*
X54965201Y-39034799D01*
X25551281Y-39034799D02*
X25301281Y-38784799D01*
X58710000Y-37200000D02*
X56800000Y-37200000D01*
%TO.N,!Clear*%
X28799998Y-29700000D02*
X24999998Y-33500000D01*
X41210000Y-29700000D02*
X28799998Y-29700000D01*
X53966482Y-29700000D02*
X54801281Y-30534799D01*
X41210000Y-29700000D02*
X53966482Y-29700000D01*
D25*
%TO.N,GND*%
X51060000Y-32940000D02*
X51060000Y-33710000D01*
X58760000Y-32750000D02*
X58710000Y-32700000D01*
X61000000Y-32750000D02*
X58760000Y-32750000D01*
%TD*%
D26*
%TO.N,GND*%
X36625000Y-24000000D02*
X36632206Y-24073159D01*
X36653545Y-24143506D01*
X36688199Y-24208339D01*
X36734835Y-24265165D01*
X36984835Y-24515165D01*
X37027283Y-24550001D01*
X29927006Y-24550001D01*
X29899998Y-24547341D01*
X29872990Y-24550001D01*
X29872981Y-24550001D01*
X29792180Y-24557959D01*
X29688505Y-24589409D01*
X29592957Y-24640480D01*
X29592955Y-24640481D01*
X29592956Y-24640481D01*
X29530194Y-24691988D01*
X29530189Y-24691993D01*
X29509209Y-24709211D01*
X29491991Y-24730191D01*
X28380191Y-25841992D01*
X28359211Y-25859210D01*
X28341993Y-25880190D01*
X28341987Y-25880196D01*
X28290479Y-25942958D01*
X28289955Y-25943939D01*
X28244034Y-25898018D01*
X28117100Y-25813204D01*
X27976059Y-25754783D01*
X27952013Y-25750000D01*
X27976059Y-25745217D01*
X28117100Y-25686796D01*
X28244034Y-25601982D01*
X28351982Y-25494034D01*
X28436796Y-25367100D01*
X28495217Y-25226059D01*
X28525000Y-25076331D01*
X28525000Y-24923669D01*
X28495217Y-24773941D01*
X28436796Y-24632900D01*
X28351982Y-24505966D01*
X28244034Y-24398018D01*
X28117100Y-24313204D01*
X27976059Y-24254783D01*
X27826331Y-24225000D01*
X27673669Y-24225000D01*
X27523941Y-24254783D01*
X27382900Y-24313204D01*
X27255966Y-24398018D01*
X27203984Y-24450000D01*
X23527007Y-24450000D01*
X23499999Y-24447340D01*
X23472991Y-24450000D01*
X23472982Y-24450000D01*
X23392181Y-24457958D01*
X23288506Y-24489408D01*
X23268690Y-24500000D01*
X23192957Y-24540479D01*
X23130195Y-24591987D01*
X23130190Y-24591992D01*
X23109210Y-24609210D01*
X23091992Y-24630190D01*
X18630196Y-29091987D01*
X18609210Y-29109210D01*
X18540479Y-29192958D01*
X18489408Y-29288507D01*
X18457958Y-29392182D01*
X18450000Y-29472983D01*
X18450000Y-29472992D01*
X18447340Y-29500000D01*
X18450000Y-29527008D01*
X18450001Y-63722982D01*
X18447340Y-63750000D01*
X18457959Y-63857818D01*
X18489409Y-63961494D01*
X18540479Y-64057042D01*
X18591987Y-64119804D01*
X18591993Y-64119810D01*
X18609211Y-64140790D01*
X18630191Y-64158008D01*
X19841992Y-65369810D01*
X19859210Y-65390790D01*
X19880190Y-65408008D01*
X19880195Y-65408013D01*
X19942958Y-65459521D01*
X20038506Y-65510592D01*
X20142181Y-65542042D01*
X20222982Y-65550000D01*
X20222992Y-65550000D01*
X20250000Y-65552660D01*
X20277008Y-65550000D01*
X38022183Y-65550000D01*
X38475000Y-66002817D01*
X38475000Y-66076331D01*
X38504783Y-66226059D01*
X38563204Y-66367100D01*
X38648018Y-66494034D01*
X38755966Y-66601982D01*
X38882900Y-66686796D01*
X39023941Y-66745217D01*
X39173669Y-66775000D01*
X39326331Y-66775000D01*
X39476059Y-66745217D01*
X39617100Y-66686796D01*
X39744034Y-66601982D01*
X39851982Y-66494034D01*
X39936796Y-66367100D01*
X39995217Y-66226059D01*
X40025000Y-66076331D01*
X40025000Y-65923669D01*
X39995217Y-65773941D01*
X39936796Y-65632900D01*
X39851982Y-65505966D01*
X39744034Y-65398018D01*
X39617100Y-65313204D01*
X39476059Y-65254783D01*
X39326331Y-65225000D01*
X39252817Y-65225000D01*
X38658012Y-64630195D01*
X38640790Y-64609210D01*
X38557042Y-64540479D01*
X38461494Y-64489408D01*
X38357819Y-64457958D01*
X38277018Y-64450000D01*
X38277008Y-64450000D01*
X38250000Y-64447340D01*
X38222992Y-64450000D01*
X20477818Y-64450000D01*
X19550000Y-63522183D01*
X19550000Y-29727817D01*
X23727818Y-25550000D01*
X27203984Y-25550000D01*
X27255966Y-25601982D01*
X27382900Y-25686796D01*
X27523941Y-25745217D01*
X27547987Y-25750000D01*
X27523941Y-25754783D01*
X27382900Y-25813204D01*
X27255966Y-25898018D01*
X27203984Y-25950000D01*
X24527011Y-25950000D01*
X24500000Y-25947340D01*
X24472989Y-25950000D01*
X24472982Y-25950000D01*
X24392181Y-25957958D01*
X24288506Y-25989408D01*
X24192958Y-26040479D01*
X24109210Y-26109210D01*
X24091987Y-26130196D01*
X19880196Y-30341987D01*
X19859210Y-30359210D01*
X19790479Y-30442958D01*
X19739408Y-30538507D01*
X19707958Y-30642182D01*
X19700000Y-30722983D01*
X19700000Y-30722992D01*
X19697340Y-30750000D01*
X19700000Y-30777008D01*
X19700001Y-62222982D01*
X19697340Y-62250000D01*
X19700001Y-62277018D01*
X19707959Y-62357819D01*
X19739409Y-62461494D01*
X19790479Y-62557042D01*
X19841987Y-62619804D01*
X19841993Y-62619810D01*
X19859211Y-62640790D01*
X19880191Y-62658008D01*
X21341992Y-64119810D01*
X21359210Y-64140790D01*
X21380190Y-64158008D01*
X21380195Y-64158013D01*
X21432097Y-64200607D01*
X21442958Y-64209521D01*
X21538506Y-64260592D01*
X21642181Y-64292042D01*
X21722982Y-64300000D01*
X21722991Y-64300000D01*
X21749999Y-64302660D01*
X21777007Y-64300000D01*
X51222992Y-64300000D01*
X51250000Y-64302660D01*
X51277008Y-64300000D01*
X51277018Y-64300000D01*
X51357819Y-64292042D01*
X51461494Y-64260592D01*
X51557042Y-64209521D01*
X51640790Y-64140790D01*
X51658013Y-64119804D01*
X52977818Y-62800000D01*
X53873186Y-62800000D01*
X53873186Y-62900000D01*
X53880426Y-62973513D01*
X53901869Y-63044200D01*
X53936691Y-63109347D01*
X53983552Y-63166448D01*
X54040653Y-63213309D01*
X54105800Y-63248131D01*
X54176487Y-63269574D01*
X54250000Y-63276814D01*
X55800000Y-63276814D01*
X55873513Y-63269574D01*
X55944200Y-63248131D01*
X56009347Y-63213309D01*
X56066448Y-63166448D01*
X56113309Y-63109347D01*
X56148131Y-63044200D01*
X56169574Y-62973513D01*
X56176814Y-62900000D01*
X56176814Y-62800000D01*
X61823186Y-62800000D01*
X61823186Y-62900000D01*
X61830426Y-62973513D01*
X61851869Y-63044200D01*
X61886691Y-63109347D01*
X61933552Y-63166448D01*
X61990653Y-63213309D01*
X62055800Y-63248131D01*
X62126487Y-63269574D01*
X62200000Y-63276814D01*
X63750000Y-63276814D01*
X63823513Y-63269574D01*
X63894200Y-63248131D01*
X63959347Y-63213309D01*
X64016448Y-63166448D01*
X64063309Y-63109347D01*
X64098131Y-63044200D01*
X64119574Y-62973513D01*
X64126814Y-62900000D01*
X64126814Y-61600000D01*
X64119574Y-61526487D01*
X64098131Y-61455800D01*
X64063309Y-61390653D01*
X64016448Y-61333552D01*
X63959347Y-61286691D01*
X63894200Y-61251869D01*
X63823513Y-61230426D01*
X63750000Y-61223186D01*
X62200000Y-61223186D01*
X62126487Y-61230426D01*
X62055800Y-61251869D01*
X61990653Y-61286691D01*
X61933552Y-61333552D01*
X61886691Y-61390653D01*
X61851869Y-61455800D01*
X61830426Y-61526487D01*
X61823186Y-61600000D01*
X61823186Y-61700000D01*
X56176814Y-61700000D01*
X56176814Y-61600000D01*
X56169574Y-61526487D01*
X56148131Y-61455800D01*
X56113309Y-61390653D01*
X56066448Y-61333552D01*
X56009347Y-61286691D01*
X55944200Y-61251869D01*
X55873513Y-61230426D01*
X55800000Y-61223186D01*
X54250000Y-61223186D01*
X54176487Y-61230426D01*
X54105800Y-61251869D01*
X54040653Y-61286691D01*
X53983552Y-61333552D01*
X53936691Y-61390653D01*
X53901869Y-61455800D01*
X53880426Y-61526487D01*
X53873186Y-61600000D01*
X53873186Y-61700000D01*
X52777007Y-61700000D01*
X52749999Y-61697340D01*
X52722991Y-61700000D01*
X52722982Y-61700000D01*
X52642181Y-61707958D01*
X52538506Y-61739408D01*
X52442958Y-61790479D01*
X52442956Y-61790480D01*
X52442957Y-61790480D01*
X52380195Y-61841987D01*
X52380190Y-61841992D01*
X52359210Y-61859210D01*
X52341992Y-61880190D01*
X51022183Y-63200000D01*
X45975564Y-63200000D01*
X46016448Y-63166448D01*
X46063309Y-63109347D01*
X46098131Y-63044200D01*
X46119574Y-62973513D01*
X46126814Y-62900000D01*
X46126814Y-61600000D01*
X46119574Y-61526487D01*
X46098131Y-61455800D01*
X46063309Y-61390653D01*
X46016448Y-61333552D01*
X45959347Y-61286691D01*
X45894200Y-61251869D01*
X45823513Y-61230426D01*
X45750000Y-61223186D01*
X44200000Y-61223186D01*
X44126487Y-61230426D01*
X44055800Y-61251869D01*
X43990653Y-61286691D01*
X43933552Y-61333552D01*
X43886691Y-61390653D01*
X43851869Y-61455800D01*
X43830426Y-61526487D01*
X43823186Y-61600000D01*
X43823186Y-61700000D01*
X38176814Y-61700000D01*
X38176814Y-61600000D01*
X38169574Y-61526487D01*
X38148131Y-61455800D01*
X38113309Y-61390653D01*
X38066448Y-61333552D01*
X38009347Y-61286691D01*
X37944200Y-61251869D01*
X37873513Y-61230426D01*
X37800000Y-61223186D01*
X36250000Y-61223186D01*
X36176487Y-61230426D01*
X36105800Y-61251869D01*
X36040653Y-61286691D01*
X35983552Y-61333552D01*
X35936691Y-61390653D01*
X35901869Y-61455800D01*
X35880426Y-61526487D01*
X35873186Y-61600000D01*
X35873186Y-62900000D01*
X35880426Y-62973513D01*
X35901869Y-63044200D01*
X35936691Y-63109347D01*
X35983552Y-63166448D01*
X36024436Y-63200000D01*
X34975564Y-63200000D01*
X35016448Y-63166448D01*
X35063309Y-63109347D01*
X35098131Y-63044200D01*
X35119574Y-62973513D01*
X35126814Y-62900000D01*
X35126814Y-61600000D01*
X35119574Y-61526487D01*
X35098131Y-61455800D01*
X35063309Y-61390653D01*
X35016448Y-61333552D01*
X34959347Y-61286691D01*
X34894200Y-61251869D01*
X34823513Y-61230426D01*
X34750000Y-61223186D01*
X33200000Y-61223186D01*
X33126487Y-61230426D01*
X33055800Y-61251869D01*
X32990653Y-61286691D01*
X32933552Y-61333552D01*
X32886691Y-61390653D01*
X32851869Y-61455800D01*
X32830426Y-61526487D01*
X32823186Y-61600000D01*
X32823186Y-61700000D01*
X27176814Y-61700000D01*
X27176814Y-61600000D01*
X27169574Y-61526487D01*
X27148131Y-61455800D01*
X27113309Y-61390653D01*
X27066448Y-61333552D01*
X27009347Y-61286691D01*
X26944200Y-61251869D01*
X26873513Y-61230426D01*
X26800000Y-61223186D01*
X25250000Y-61223186D01*
X25176487Y-61230426D01*
X25105800Y-61251869D01*
X25040653Y-61286691D01*
X24983552Y-61333552D01*
X24936691Y-61390653D01*
X24901869Y-61455800D01*
X24880426Y-61526487D01*
X24873186Y-61600000D01*
X24873186Y-61700000D01*
X23477817Y-61700000D01*
X22050000Y-60272183D01*
X22050000Y-31727817D01*
X25227818Y-28550000D01*
X27203984Y-28550000D01*
X27255966Y-28601982D01*
X27382900Y-28686796D01*
X27514766Y-28741416D01*
X23130191Y-33125992D01*
X23109211Y-33143210D01*
X23091993Y-33164190D01*
X23091987Y-33164196D01*
X23040479Y-33226958D01*
X22997306Y-33307731D01*
X22989409Y-33322506D01*
X22959964Y-33419574D01*
X22957959Y-33426182D01*
X22947340Y-33534000D01*
X22950001Y-33561018D01*
X22950000Y-56972992D01*
X22947340Y-57000000D01*
X22950000Y-57027008D01*
X22950000Y-57027017D01*
X22957958Y-57107818D01*
X22989408Y-57211493D01*
X23040479Y-57307042D01*
X23109210Y-57390790D01*
X23130196Y-57408013D01*
X26091987Y-60369804D01*
X26109210Y-60390790D01*
X26130196Y-60408013D01*
X26192958Y-60459521D01*
X26288505Y-60510592D01*
X26342651Y-60527017D01*
X26392181Y-60542042D01*
X26472982Y-60550000D01*
X26472989Y-60550000D01*
X26500000Y-60552660D01*
X26527011Y-60550000D01*
X63547183Y-60550000D01*
X64873186Y-61876003D01*
X64873186Y-62900000D01*
X64880426Y-62973513D01*
X64901869Y-63044200D01*
X64936691Y-63109347D01*
X64983552Y-63166448D01*
X65040653Y-63213309D01*
X65105800Y-63248131D01*
X65176487Y-63269574D01*
X65250000Y-63276814D01*
X66800000Y-63276814D01*
X66873513Y-63269574D01*
X66944200Y-63248131D01*
X67009347Y-63213309D01*
X67066448Y-63166448D01*
X67113309Y-63109347D01*
X67148131Y-63044200D01*
X67169574Y-62973513D01*
X67176814Y-62900000D01*
X67176814Y-62800000D01*
X72823186Y-62800000D01*
X72823186Y-62900000D01*
X72830426Y-62973513D01*
X72851869Y-63044200D01*
X72886691Y-63109347D01*
X72933552Y-63166448D01*
X72990653Y-63213309D01*
X73055800Y-63248131D01*
X73126487Y-63269574D01*
X73200000Y-63276814D01*
X74750000Y-63276814D01*
X74823513Y-63269574D01*
X74894200Y-63248131D01*
X74959347Y-63213309D01*
X75016448Y-63166448D01*
X75063309Y-63109347D01*
X75098131Y-63044200D01*
X75119574Y-62973513D01*
X75126814Y-62900000D01*
X75126814Y-61600000D01*
X75119574Y-61526487D01*
X75098131Y-61455800D01*
X75063309Y-61390653D01*
X75016448Y-61333552D01*
X74959347Y-61286691D01*
X74894200Y-61251869D01*
X74823513Y-61230426D01*
X74750000Y-61223186D01*
X73200000Y-61223186D01*
X73126487Y-61230426D01*
X73055800Y-61251869D01*
X72990653Y-61286691D01*
X72933552Y-61333552D01*
X72886691Y-61390653D01*
X72851869Y-61455800D01*
X72830426Y-61526487D01*
X72823186Y-61600000D01*
X72823186Y-61700000D01*
X67176814Y-61700000D01*
X67176814Y-61600000D01*
X67169574Y-61526487D01*
X67148131Y-61455800D01*
X67113309Y-61390653D01*
X67066448Y-61333552D01*
X67009347Y-61286691D01*
X66944200Y-61251869D01*
X66873513Y-61230426D01*
X66800000Y-61223186D01*
X65776003Y-61223186D01*
X64183013Y-59630196D01*
X64165790Y-59609210D01*
X64082042Y-59540479D01*
X63986494Y-59489408D01*
X63882819Y-59457958D01*
X63802018Y-59450000D01*
X63802008Y-59450000D01*
X63775000Y-59447340D01*
X63747992Y-59450000D01*
X26727817Y-59450000D01*
X24050000Y-56772183D01*
X24050000Y-44173669D01*
X30975000Y-44173669D01*
X30975000Y-44326331D01*
X31004783Y-44476059D01*
X31063204Y-44617100D01*
X31148018Y-44744034D01*
X31250000Y-44846016D01*
X31250001Y-47153983D01*
X31148018Y-47255966D01*
X31063204Y-47382900D01*
X31004783Y-47523941D01*
X30975000Y-47673669D01*
X30975000Y-47826331D01*
X31004783Y-47976059D01*
X31063204Y-48117100D01*
X31148018Y-48244034D01*
X31250000Y-48346016D01*
X31250001Y-50653983D01*
X31148018Y-50755966D01*
X31063204Y-50882900D01*
X31004783Y-51023941D01*
X30975000Y-51173669D01*
X30975000Y-51326331D01*
X31004783Y-51476059D01*
X31063204Y-51617100D01*
X31148018Y-51744034D01*
X31250000Y-51846016D01*
X31250001Y-54153983D01*
X31148018Y-54255966D01*
X31063204Y-54382900D01*
X31004783Y-54523941D01*
X30975000Y-54673669D01*
X30975000Y-54826331D01*
X31004783Y-54976059D01*
X31063204Y-55117100D01*
X31148018Y-55244034D01*
X31250000Y-55346016D01*
X31250001Y-57653983D01*
X31148018Y-57755966D01*
X31063204Y-57882900D01*
X31004783Y-58023941D01*
X30975000Y-58173669D01*
X30975000Y-58326331D01*
X31004783Y-58476059D01*
X31063204Y-58617100D01*
X31148018Y-58744034D01*
X31255966Y-58851982D01*
X31382900Y-58936796D01*
X31523941Y-58995217D01*
X31673669Y-59025000D01*
X31826331Y-59025000D01*
X31976059Y-58995217D01*
X32117100Y-58936796D01*
X32244034Y-58851982D01*
X32351982Y-58744034D01*
X32436796Y-58617100D01*
X32495217Y-58476059D01*
X32525000Y-58326331D01*
X32525000Y-58173669D01*
X32495217Y-58023941D01*
X32436796Y-57882900D01*
X32351982Y-57755966D01*
X32250000Y-57653984D01*
X32250000Y-57509197D01*
X41255000Y-57509197D01*
X41255000Y-57730803D01*
X41298233Y-57948150D01*
X41383038Y-58152887D01*
X41506156Y-58337145D01*
X41662855Y-58493844D01*
X41847113Y-58616962D01*
X42051850Y-58701767D01*
X42269197Y-58745000D01*
X42490803Y-58745000D01*
X42708150Y-58701767D01*
X42912887Y-58616962D01*
X43097145Y-58493844D01*
X43253844Y-58337145D01*
X43376962Y-58152887D01*
X43461767Y-57948150D01*
X43505000Y-57730803D01*
X43505000Y-57509197D01*
X43795000Y-57509197D01*
X43795000Y-57730803D01*
X43838233Y-57948150D01*
X43923038Y-58152887D01*
X44046156Y-58337145D01*
X44202855Y-58493844D01*
X44387113Y-58616962D01*
X44591850Y-58701767D01*
X44809197Y-58745000D01*
X45030803Y-58745000D01*
X45248150Y-58701767D01*
X45452887Y-58616962D01*
X45637145Y-58493844D01*
X45793844Y-58337145D01*
X45916962Y-58152887D01*
X46001767Y-57948150D01*
X46045000Y-57730803D01*
X46045000Y-57509197D01*
X46335000Y-57509197D01*
X46335000Y-57730803D01*
X46378233Y-57948150D01*
X46463038Y-58152887D01*
X46586156Y-58337145D01*
X46742855Y-58493844D01*
X46927113Y-58616962D01*
X47131850Y-58701767D01*
X47349197Y-58745000D01*
X47570803Y-58745000D01*
X47788150Y-58701767D01*
X47992887Y-58616962D01*
X48177145Y-58493844D01*
X48333844Y-58337145D01*
X48456962Y-58152887D01*
X48541767Y-57948150D01*
X48585000Y-57730803D01*
X48585000Y-57509197D01*
X48875000Y-57509197D01*
X48875000Y-57730803D01*
X48918233Y-57948150D01*
X49003038Y-58152887D01*
X49126156Y-58337145D01*
X49282855Y-58493844D01*
X49467113Y-58616962D01*
X49671850Y-58701767D01*
X49889197Y-58745000D01*
X50110803Y-58745000D01*
X50328150Y-58701767D01*
X50532887Y-58616962D01*
X50717145Y-58493844D01*
X50873844Y-58337145D01*
X50996962Y-58152887D01*
X51081767Y-57948150D01*
X51125000Y-57730803D01*
X51125000Y-57509197D01*
X51415000Y-57509197D01*
X51415000Y-57730803D01*
X51458233Y-57948150D01*
X51543038Y-58152887D01*
X51666156Y-58337145D01*
X51822855Y-58493844D01*
X52007113Y-58616962D01*
X52211850Y-58701767D01*
X52429197Y-58745000D01*
X52650803Y-58745000D01*
X52868150Y-58701767D01*
X53072887Y-58616962D01*
X53257145Y-58493844D01*
X53413844Y-58337145D01*
X53536962Y-58152887D01*
X53621767Y-57948150D01*
X53665000Y-57730803D01*
X53665000Y-57509197D01*
X53621767Y-57291850D01*
X53536962Y-57087113D01*
X53413844Y-56902855D01*
X53257145Y-56746156D01*
X53072887Y-56623038D01*
X52868150Y-56538233D01*
X52650803Y-56495000D01*
X52429197Y-56495000D01*
X52211850Y-56538233D01*
X52007113Y-56623038D01*
X51822855Y-56746156D01*
X51666156Y-56902855D01*
X51543038Y-57087113D01*
X51458233Y-57291850D01*
X51415000Y-57509197D01*
X51125000Y-57509197D01*
X51081767Y-57291850D01*
X50996962Y-57087113D01*
X50873844Y-56902855D01*
X50717145Y-56746156D01*
X50532887Y-56623038D01*
X50328150Y-56538233D01*
X50110803Y-56495000D01*
X49889197Y-56495000D01*
X49671850Y-56538233D01*
X49467113Y-56623038D01*
X49282855Y-56746156D01*
X49126156Y-56902855D01*
X49003038Y-57087113D01*
X48918233Y-57291850D01*
X48875000Y-57509197D01*
X48585000Y-57509197D01*
X48541767Y-57291850D01*
X48456962Y-57087113D01*
X48333844Y-56902855D01*
X48177145Y-56746156D01*
X47992887Y-56623038D01*
X47788150Y-56538233D01*
X47570803Y-56495000D01*
X47349197Y-56495000D01*
X47131850Y-56538233D01*
X46927113Y-56623038D01*
X46742855Y-56746156D01*
X46586156Y-56902855D01*
X46463038Y-57087113D01*
X46378233Y-57291850D01*
X46335000Y-57509197D01*
X46045000Y-57509197D01*
X46001767Y-57291850D01*
X45916962Y-57087113D01*
X45793844Y-56902855D01*
X45637145Y-56746156D01*
X45452887Y-56623038D01*
X45248150Y-56538233D01*
X45030803Y-56495000D01*
X44809197Y-56495000D01*
X44591850Y-56538233D01*
X44387113Y-56623038D01*
X44202855Y-56746156D01*
X44046156Y-56902855D01*
X43923038Y-57087113D01*
X43838233Y-57291850D01*
X43795000Y-57509197D01*
X43505000Y-57509197D01*
X43461767Y-57291850D01*
X43376962Y-57087113D01*
X43253844Y-56902855D01*
X43097145Y-56746156D01*
X42912887Y-56623038D01*
X42708150Y-56538233D01*
X42490803Y-56495000D01*
X42269197Y-56495000D01*
X42051850Y-56538233D01*
X41847113Y-56623038D01*
X41662855Y-56746156D01*
X41506156Y-56902855D01*
X41383038Y-57087113D01*
X41298233Y-57291850D01*
X41255000Y-57509197D01*
X32250000Y-57509197D01*
X32250000Y-55346016D01*
X32351982Y-55244034D01*
X32436796Y-55117100D01*
X32495217Y-54976059D01*
X32525000Y-54826331D01*
X32525000Y-54673669D01*
X32495217Y-54523941D01*
X32436796Y-54382900D01*
X32351982Y-54255966D01*
X32250000Y-54153984D01*
X32250000Y-53479669D01*
X39573000Y-53479669D01*
X39573000Y-53632331D01*
X39602783Y-53782059D01*
X39661204Y-53923100D01*
X39746018Y-54050034D01*
X39853966Y-54157982D01*
X39980900Y-54242796D01*
X40121941Y-54301217D01*
X40271669Y-54331000D01*
X40424331Y-54331000D01*
X40574059Y-54301217D01*
X40599716Y-54290589D01*
X40576789Y-54345941D01*
X40547006Y-54495669D01*
X40547006Y-54648331D01*
X40576789Y-54798059D01*
X40635210Y-54939100D01*
X40720024Y-55066034D01*
X40827972Y-55173982D01*
X40954906Y-55258796D01*
X41095947Y-55317217D01*
X41245675Y-55347000D01*
X41398337Y-55347000D01*
X41548065Y-55317217D01*
X41689106Y-55258796D01*
X41816040Y-55173982D01*
X41868022Y-55122000D01*
X51804183Y-55122000D01*
X53994218Y-57312036D01*
X53955000Y-57509197D01*
X53955000Y-57730803D01*
X53998233Y-57948150D01*
X54083038Y-58152887D01*
X54206156Y-58337145D01*
X54362855Y-58493844D01*
X54547113Y-58616962D01*
X54751850Y-58701767D01*
X54969197Y-58745000D01*
X55190803Y-58745000D01*
X55408150Y-58701767D01*
X55612887Y-58616962D01*
X55797145Y-58493844D01*
X55953844Y-58337145D01*
X56076962Y-58152887D01*
X56161767Y-57948150D01*
X56205000Y-57730803D01*
X56205000Y-57509197D01*
X56161767Y-57291850D01*
X56076962Y-57087113D01*
X55953844Y-56902855D01*
X55797145Y-56746156D01*
X55612887Y-56623038D01*
X55408150Y-56538233D01*
X55190803Y-56495000D01*
X54969197Y-56495000D01*
X54772036Y-56534218D01*
X52440012Y-54202195D01*
X52422790Y-54181210D01*
X52339042Y-54112479D01*
X52326921Y-54106000D01*
X56376183Y-54106000D01*
X57070001Y-54799819D01*
X57070000Y-56634472D01*
X56902855Y-56746156D01*
X56746156Y-56902855D01*
X56623038Y-57087113D01*
X56538233Y-57291850D01*
X56495000Y-57509197D01*
X56495000Y-57730803D01*
X56538233Y-57948150D01*
X56623038Y-58152887D01*
X56746156Y-58337145D01*
X56902855Y-58493844D01*
X57087113Y-58616962D01*
X57291850Y-58701767D01*
X57509197Y-58745000D01*
X57730803Y-58745000D01*
X57948150Y-58701767D01*
X58152887Y-58616962D01*
X58337145Y-58493844D01*
X58493844Y-58337145D01*
X58616962Y-58152887D01*
X58701767Y-57948150D01*
X58745000Y-57730803D01*
X58745000Y-57509197D01*
X58701767Y-57291850D01*
X58616962Y-57087113D01*
X58493844Y-56902855D01*
X58337145Y-56746156D01*
X58170000Y-56634473D01*
X58170000Y-54599008D01*
X58172660Y-54572000D01*
X58170000Y-54544992D01*
X58170000Y-54544982D01*
X58162042Y-54464181D01*
X58130592Y-54360506D01*
X58090675Y-54285825D01*
X58079521Y-54264957D01*
X58028013Y-54202195D01*
X58028008Y-54202190D01*
X58010790Y-54181210D01*
X57989810Y-54163992D01*
X57012013Y-53186196D01*
X56994790Y-53165210D01*
X56911042Y-53096479D01*
X56815494Y-53045408D01*
X56711819Y-53013958D01*
X56631018Y-53006000D01*
X56631008Y-53006000D01*
X56604000Y-53003340D01*
X56576992Y-53006000D01*
X40894016Y-53006000D01*
X40842034Y-52954018D01*
X40715100Y-52869204D01*
X40574059Y-52810783D01*
X40424331Y-52781000D01*
X40271669Y-52781000D01*
X40121941Y-52810783D01*
X39980900Y-52869204D01*
X39853966Y-52954018D01*
X39746018Y-53061966D01*
X39661204Y-53188900D01*
X39602783Y-53329941D01*
X39573000Y-53479669D01*
X32250000Y-53479669D01*
X32250000Y-51846016D01*
X32351982Y-51744034D01*
X32436796Y-51617100D01*
X32495217Y-51476059D01*
X32525000Y-51326331D01*
X32525000Y-51173669D01*
X32495217Y-51023941D01*
X32436796Y-50882900D01*
X32351982Y-50755966D01*
X32250000Y-50653984D01*
X32250000Y-48346016D01*
X32351982Y-48244034D01*
X32398998Y-48173669D01*
X39475000Y-48173669D01*
X39475000Y-48326331D01*
X39504783Y-48476059D01*
X39563204Y-48617100D01*
X39648018Y-48744034D01*
X39755966Y-48851982D01*
X39882900Y-48936796D01*
X40023941Y-48995217D01*
X40173669Y-49025000D01*
X40326331Y-49025000D01*
X40476059Y-48995217D01*
X40617100Y-48936796D01*
X40744034Y-48851982D01*
X40796016Y-48800000D01*
X50222992Y-48800000D01*
X50250000Y-48802660D01*
X50277008Y-48800000D01*
X50277018Y-48800000D01*
X50357819Y-48792042D01*
X50461494Y-48760592D01*
X50557042Y-48709521D01*
X50640790Y-48640790D01*
X50658013Y-48619804D01*
X52909810Y-46368008D01*
X52930790Y-46350790D01*
X52948008Y-46329810D01*
X52948013Y-46329805D01*
X52999521Y-46267043D01*
X53050591Y-46171495D01*
X53050592Y-46171494D01*
X53082042Y-46067819D01*
X53090000Y-45987018D01*
X53090000Y-45987009D01*
X53092660Y-45960001D01*
X53090000Y-45932993D01*
X53090000Y-43365527D01*
X53257145Y-43253844D01*
X53413844Y-43097145D01*
X53536962Y-42912887D01*
X53621767Y-42708150D01*
X53665000Y-42490803D01*
X53665000Y-42269197D01*
X53955000Y-42269197D01*
X53955000Y-42490803D01*
X53998233Y-42708150D01*
X54083038Y-42912887D01*
X54206156Y-43097145D01*
X54362855Y-43253844D01*
X54547113Y-43376962D01*
X54751850Y-43461767D01*
X54969197Y-43505000D01*
X55190803Y-43505000D01*
X55408150Y-43461767D01*
X55612887Y-43376962D01*
X55797145Y-43253844D01*
X55953844Y-43097145D01*
X56076962Y-42912887D01*
X56161767Y-42708150D01*
X56205000Y-42490803D01*
X56205000Y-42269197D01*
X56495000Y-42269197D01*
X56495000Y-42490803D01*
X56538233Y-42708150D01*
X56623038Y-42912887D01*
X56746156Y-43097145D01*
X56902855Y-43253844D01*
X57087113Y-43376962D01*
X57291850Y-43461767D01*
X57509197Y-43505000D01*
X57730803Y-43505000D01*
X57948150Y-43461767D01*
X58152887Y-43376962D01*
X58337145Y-43253844D01*
X58493844Y-43097145D01*
X58616962Y-42912887D01*
X58701767Y-42708150D01*
X58745000Y-42490803D01*
X58745000Y-42269197D01*
X58701767Y-42051850D01*
X58616962Y-41847113D01*
X58493844Y-41662855D01*
X58337145Y-41506156D01*
X58152887Y-41383038D01*
X57948150Y-41298233D01*
X57730803Y-41255000D01*
X57509197Y-41255000D01*
X57291850Y-41298233D01*
X57087113Y-41383038D01*
X56902855Y-41506156D01*
X56746156Y-41662855D01*
X56623038Y-41847113D01*
X56538233Y-42051850D01*
X56495000Y-42269197D01*
X56205000Y-42269197D01*
X56161767Y-42051850D01*
X56076962Y-41847113D01*
X55953844Y-41662855D01*
X55797145Y-41506156D01*
X55612887Y-41383038D01*
X55408150Y-41298233D01*
X55190803Y-41255000D01*
X54969197Y-41255000D01*
X54751850Y-41298233D01*
X54547113Y-41383038D01*
X54362855Y-41506156D01*
X54206156Y-41662855D01*
X54083038Y-41847113D01*
X53998233Y-42051850D01*
X53955000Y-42269197D01*
X53665000Y-42269197D01*
X53621767Y-42051850D01*
X53536962Y-41847113D01*
X53413844Y-41662855D01*
X53257145Y-41506156D01*
X53072887Y-41383038D01*
X52868150Y-41298233D01*
X52650803Y-41255000D01*
X52429197Y-41255000D01*
X52211850Y-41298233D01*
X52007113Y-41383038D01*
X51822855Y-41506156D01*
X51666156Y-41662855D01*
X51543038Y-41847113D01*
X51458233Y-42051850D01*
X51415000Y-42269197D01*
X51415000Y-42490803D01*
X51458233Y-42708150D01*
X51543038Y-42912887D01*
X51666156Y-43097145D01*
X51822855Y-43253844D01*
X51990000Y-43365528D01*
X51990001Y-45732181D01*
X50022183Y-47700000D01*
X40796016Y-47700000D01*
X40744034Y-47648018D01*
X40617100Y-47563204D01*
X40476059Y-47504783D01*
X40326331Y-47475000D01*
X40173669Y-47475000D01*
X40023941Y-47504783D01*
X39882900Y-47563204D01*
X39755966Y-47648018D01*
X39648018Y-47755966D01*
X39563204Y-47882900D01*
X39504783Y-48023941D01*
X39475000Y-48173669D01*
X32398998Y-48173669D01*
X32436796Y-48117100D01*
X32495217Y-47976059D01*
X32525000Y-47826331D01*
X32525000Y-47673669D01*
X32495217Y-47523941D01*
X32436796Y-47382900D01*
X32351982Y-47255966D01*
X32250000Y-47153984D01*
X32250000Y-46173669D01*
X39475000Y-46173669D01*
X39475000Y-46326331D01*
X39504783Y-46476059D01*
X39563204Y-46617100D01*
X39648018Y-46744034D01*
X39755966Y-46851982D01*
X39882900Y-46936796D01*
X40023941Y-46995217D01*
X40173669Y-47025000D01*
X40326331Y-47025000D01*
X40476059Y-46995217D01*
X40617100Y-46936796D01*
X40744034Y-46851982D01*
X40796016Y-46800000D01*
X48472992Y-46800000D01*
X48500000Y-46802660D01*
X48527008Y-46800000D01*
X48527018Y-46800000D01*
X48607819Y-46792042D01*
X48711494Y-46760592D01*
X48807042Y-46709521D01*
X48890790Y-46640790D01*
X48908013Y-46619804D01*
X50369810Y-45158008D01*
X50390790Y-45140790D01*
X50408008Y-45119810D01*
X50408013Y-45119805D01*
X50459520Y-45057043D01*
X50459521Y-45057042D01*
X50510592Y-44961494D01*
X50542042Y-44857819D01*
X50550000Y-44777018D01*
X50550000Y-44777009D01*
X50552660Y-44750001D01*
X50550000Y-44722993D01*
X50550000Y-43365527D01*
X50717145Y-43253844D01*
X50873844Y-43097145D01*
X50996962Y-42912887D01*
X51081767Y-42708150D01*
X51125000Y-42490803D01*
X51125000Y-42269197D01*
X51081767Y-42051850D01*
X50996962Y-41847113D01*
X50873844Y-41662855D01*
X50717145Y-41506156D01*
X50532887Y-41383038D01*
X50328150Y-41298233D01*
X50110803Y-41255000D01*
X49889197Y-41255000D01*
X49671850Y-41298233D01*
X49467113Y-41383038D01*
X49282855Y-41506156D01*
X49126156Y-41662855D01*
X49003038Y-41847113D01*
X48918233Y-42051850D01*
X48875000Y-42269197D01*
X48875000Y-42490803D01*
X48918233Y-42708150D01*
X49003038Y-42912887D01*
X49126156Y-43097145D01*
X49282855Y-43253844D01*
X49450000Y-43365528D01*
X49450001Y-44522181D01*
X48272183Y-45700000D01*
X40796016Y-45700000D01*
X40744034Y-45648018D01*
X40617100Y-45563204D01*
X40476059Y-45504783D01*
X40326331Y-45475000D01*
X40173669Y-45475000D01*
X40023941Y-45504783D01*
X39882900Y-45563204D01*
X39755966Y-45648018D01*
X39648018Y-45755966D01*
X39563204Y-45882900D01*
X39504783Y-46023941D01*
X39475000Y-46173669D01*
X32250000Y-46173669D01*
X32250000Y-44846016D01*
X32351982Y-44744034D01*
X32436796Y-44617100D01*
X32495217Y-44476059D01*
X32525000Y-44326331D01*
X32525000Y-44173669D01*
X32495217Y-44023941D01*
X32436796Y-43882900D01*
X32351982Y-43755966D01*
X32244034Y-43648018D01*
X32117100Y-43563204D01*
X31976059Y-43504783D01*
X31826331Y-43475000D01*
X31673669Y-43475000D01*
X31523941Y-43504783D01*
X31382900Y-43563204D01*
X31255966Y-43648018D01*
X31148018Y-43755966D01*
X31063204Y-43882900D01*
X31004783Y-44023941D01*
X30975000Y-44173669D01*
X24050000Y-44173669D01*
X24050000Y-42269197D01*
X41255000Y-42269197D01*
X41255000Y-42490803D01*
X41298233Y-42708150D01*
X41383038Y-42912887D01*
X41506156Y-43097145D01*
X41662855Y-43253844D01*
X41847113Y-43376962D01*
X42051850Y-43461767D01*
X42269197Y-43505000D01*
X42490803Y-43505000D01*
X42708150Y-43461767D01*
X42912887Y-43376962D01*
X43097145Y-43253844D01*
X43253844Y-43097145D01*
X43376962Y-42912887D01*
X43461767Y-42708150D01*
X43505000Y-42490803D01*
X43505000Y-42269197D01*
X43795000Y-42269197D01*
X43795000Y-42490803D01*
X43838233Y-42708150D01*
X43923038Y-42912887D01*
X44046156Y-43097145D01*
X44202855Y-43253844D01*
X44387113Y-43376962D01*
X44591850Y-43461767D01*
X44809197Y-43505000D01*
X45030803Y-43505000D01*
X45248150Y-43461767D01*
X45452887Y-43376962D01*
X45637145Y-43253844D01*
X45793844Y-43097145D01*
X45916962Y-42912887D01*
X46001767Y-42708150D01*
X46045000Y-42490803D01*
X46045000Y-42269197D01*
X46335000Y-42269197D01*
X46335000Y-42490803D01*
X46378233Y-42708150D01*
X46463038Y-42912887D01*
X46586156Y-43097145D01*
X46742855Y-43253844D01*
X46927113Y-43376962D01*
X47131850Y-43461767D01*
X47349197Y-43505000D01*
X47570803Y-43505000D01*
X47788150Y-43461767D01*
X47992887Y-43376962D01*
X48177145Y-43253844D01*
X48333844Y-43097145D01*
X48456962Y-42912887D01*
X48541767Y-42708150D01*
X48585000Y-42490803D01*
X48585000Y-42269197D01*
X48541767Y-42051850D01*
X48456962Y-41847113D01*
X48333844Y-41662855D01*
X48177145Y-41506156D01*
X47992887Y-41383038D01*
X47788150Y-41298233D01*
X47570803Y-41255000D01*
X47349197Y-41255000D01*
X47131850Y-41298233D01*
X46927113Y-41383038D01*
X46742855Y-41506156D01*
X46586156Y-41662855D01*
X46463038Y-41847113D01*
X46378233Y-42051850D01*
X46335000Y-42269197D01*
X46045000Y-42269197D01*
X46001767Y-42051850D01*
X45916962Y-41847113D01*
X45793844Y-41662855D01*
X45637145Y-41506156D01*
X45452887Y-41383038D01*
X45248150Y-41298233D01*
X45030803Y-41255000D01*
X44809197Y-41255000D01*
X44591850Y-41298233D01*
X44387113Y-41383038D01*
X44202855Y-41506156D01*
X44046156Y-41662855D01*
X43923038Y-41847113D01*
X43838233Y-42051850D01*
X43795000Y-42269197D01*
X43505000Y-42269197D01*
X43461767Y-42051850D01*
X43376962Y-41847113D01*
X43253844Y-41662855D01*
X43097145Y-41506156D01*
X42912887Y-41383038D01*
X42708150Y-41298233D01*
X42490803Y-41255000D01*
X42269197Y-41255000D01*
X42051850Y-41298233D01*
X41847113Y-41383038D01*
X41662855Y-41506156D01*
X41506156Y-41662855D01*
X41383038Y-41847113D01*
X41298233Y-42051850D01*
X41255000Y-42269197D01*
X24050000Y-42269197D01*
X24050000Y-33761817D01*
X24226738Y-33585079D01*
X24254781Y-33726059D01*
X24313202Y-33867100D01*
X24398016Y-33994034D01*
X24505964Y-34101982D01*
X24632898Y-34186796D01*
X24773939Y-34245217D01*
X24923667Y-34275000D01*
X25039212Y-34275000D01*
X25039212Y-34326331D01*
X25068995Y-34476059D01*
X25127416Y-34617100D01*
X25212230Y-34744034D01*
X25320178Y-34851982D01*
X25447112Y-34936796D01*
X25588153Y-34995217D01*
X25737881Y-35025000D01*
X25882107Y-35025000D01*
X29391904Y-38534799D01*
X26036581Y-38534799D01*
X25988077Y-38417699D01*
X25903263Y-38290765D01*
X25795315Y-38182817D01*
X25668381Y-38098003D01*
X25527340Y-38039582D01*
X25377612Y-38009799D01*
X25224950Y-38009799D01*
X25075222Y-38039582D01*
X24934181Y-38098003D01*
X24807247Y-38182817D01*
X24699299Y-38290765D01*
X24614485Y-38417699D01*
X24556064Y-38558740D01*
X24526281Y-38708468D01*
X24526281Y-38861130D01*
X24556064Y-39010858D01*
X24614485Y-39151899D01*
X24699299Y-39278833D01*
X24807247Y-39386781D01*
X24934181Y-39471595D01*
X25075222Y-39530016D01*
X25224950Y-39559799D01*
X25377612Y-39559799D01*
X25511053Y-39533256D01*
X25526721Y-39534799D01*
X25526730Y-39534799D01*
X25551280Y-39537217D01*
X25575830Y-39534799D01*
X54940641Y-39534799D01*
X54965201Y-39537218D01*
X54989761Y-39534799D01*
X55063218Y-39527564D01*
X55157468Y-39498974D01*
X55244330Y-39452545D01*
X55320465Y-39390063D01*
X55336130Y-39370975D01*
X57007107Y-37700000D01*
X57588110Y-37700000D01*
X57590426Y-37723513D01*
X57611869Y-37794200D01*
X57646691Y-37859347D01*
X57693552Y-37916448D01*
X57750653Y-37963309D01*
X57815800Y-37998131D01*
X57886487Y-38019574D01*
X57960000Y-38026814D01*
X59460000Y-38026814D01*
X59533513Y-38019574D01*
X59604200Y-37998131D01*
X59669347Y-37963309D01*
X59726448Y-37916448D01*
X59773309Y-37859347D01*
X59808131Y-37794200D01*
X59829574Y-37723513D01*
X59831890Y-37700000D01*
X64759377Y-37700000D01*
X65301281Y-38241905D01*
X65301281Y-38438783D01*
X65199299Y-38540765D01*
X65114485Y-38667699D01*
X65056064Y-38808740D01*
X65026281Y-38958468D01*
X65026281Y-39111130D01*
X65056064Y-39260858D01*
X65114485Y-39401899D01*
X65199299Y-39528833D01*
X65307247Y-39636781D01*
X65434181Y-39721595D01*
X65575222Y-39780016D01*
X65724950Y-39809799D01*
X65877612Y-39809799D01*
X66027340Y-39780016D01*
X66168381Y-39721595D01*
X66295315Y-39636781D01*
X66403263Y-39528833D01*
X66488077Y-39401899D01*
X66546498Y-39260858D01*
X66576281Y-39111130D01*
X66576281Y-38958468D01*
X66546498Y-38808740D01*
X66488077Y-38667699D01*
X66403263Y-38540765D01*
X66301281Y-38438783D01*
X66301281Y-38059356D01*
X66303700Y-38034798D01*
X66300088Y-37998131D01*
X66294046Y-37936782D01*
X66265456Y-37842532D01*
X66219027Y-37755670D01*
X66156545Y-37679535D01*
X66137462Y-37663874D01*
X65337411Y-36863824D01*
X65321746Y-36844736D01*
X65245611Y-36782254D01*
X65158749Y-36735825D01*
X65064499Y-36707235D01*
X64991042Y-36700000D01*
X64966482Y-36697581D01*
X64941922Y-36700000D01*
X59831890Y-36700000D01*
X59829574Y-36676487D01*
X59808131Y-36605800D01*
X59773309Y-36540653D01*
X59726448Y-36483552D01*
X59685564Y-36450000D01*
X59726448Y-36416448D01*
X59773309Y-36359347D01*
X59808131Y-36294200D01*
X59829574Y-36223513D01*
X59831890Y-36200000D01*
X67525440Y-36200000D01*
X67550000Y-36202419D01*
X67574560Y-36200000D01*
X67648017Y-36192765D01*
X67742267Y-36164175D01*
X67829129Y-36117746D01*
X67905264Y-36055264D01*
X67920929Y-36036176D01*
X69637468Y-34319639D01*
X69656545Y-34303983D01*
X69719027Y-34227848D01*
X69765456Y-34140986D01*
X69794046Y-34046736D01*
X69801281Y-33973279D01*
X69801281Y-33973270D01*
X69803699Y-33948720D01*
X69801281Y-33924170D01*
X69801281Y-31130815D01*
X69903263Y-31028833D01*
X69988077Y-30901899D01*
X70046498Y-30760858D01*
X70076281Y-30611130D01*
X70076281Y-30458468D01*
X70046498Y-30308740D01*
X69988077Y-30167699D01*
X69903263Y-30040765D01*
X69795315Y-29932817D01*
X69668381Y-29848003D01*
X69527340Y-29789582D01*
X69377612Y-29759799D01*
X69224950Y-29759799D01*
X69075222Y-29789582D01*
X68934181Y-29848003D01*
X68807247Y-29932817D01*
X68801281Y-29938783D01*
X68801281Y-22301429D01*
X68803699Y-22276879D01*
X68801281Y-22252329D01*
X68801281Y-22252320D01*
X68794046Y-22178863D01*
X68765456Y-22084613D01*
X68719027Y-21997751D01*
X68656545Y-21921616D01*
X68637467Y-21905959D01*
X68347741Y-21616234D01*
X68542173Y-21486318D01*
X68712800Y-21315691D01*
X68846862Y-21115054D01*
X68939205Y-20892118D01*
X68986281Y-20655451D01*
X68986281Y-20414147D01*
X68939205Y-20177480D01*
X68846862Y-19954544D01*
X68712800Y-19753907D01*
X68643692Y-19684799D01*
X69074467Y-19684799D01*
X69074467Y-21384799D01*
X69081707Y-21458312D01*
X69103150Y-21528999D01*
X69137972Y-21594146D01*
X69184833Y-21651247D01*
X69241934Y-21698108D01*
X69307081Y-21732930D01*
X69377768Y-21754373D01*
X69451281Y-21761613D01*
X71151281Y-21761613D01*
X71224794Y-21754373D01*
X71295481Y-21732930D01*
X71360628Y-21698108D01*
X71417729Y-21651247D01*
X71464590Y-21594146D01*
X71499412Y-21528999D01*
X71520855Y-21458312D01*
X71528095Y-21384799D01*
X71528095Y-21084799D01*
X72056982Y-21084799D01*
X73450000Y-22477817D01*
X73450001Y-28972982D01*
X73447340Y-29000000D01*
X73450001Y-29027018D01*
X73457959Y-29107819D01*
X73485922Y-29200000D01*
X73489409Y-29211494D01*
X73540479Y-29307042D01*
X73591987Y-29369804D01*
X73591993Y-29369810D01*
X73609211Y-29390790D01*
X73630191Y-29408008D01*
X73841987Y-29619804D01*
X73859210Y-29640790D01*
X73942958Y-29709521D01*
X74038506Y-29760592D01*
X74142181Y-29792042D01*
X74222982Y-29800000D01*
X74222991Y-29800000D01*
X74249999Y-29802660D01*
X74277007Y-29800000D01*
X74523186Y-29800000D01*
X74523186Y-29900002D01*
X74535230Y-30022287D01*
X74570899Y-30139873D01*
X74628823Y-30248240D01*
X74706775Y-30343225D01*
X74801760Y-30421177D01*
X74910127Y-30479101D01*
X74979022Y-30500000D01*
X74910127Y-30520899D01*
X74801760Y-30578823D01*
X74706775Y-30656775D01*
X74628823Y-30751760D01*
X74570899Y-30860127D01*
X74535230Y-30977713D01*
X74523186Y-31099998D01*
X74523186Y-32400002D01*
X74535230Y-32522287D01*
X74570899Y-32639873D01*
X74628823Y-32748240D01*
X74706775Y-32843225D01*
X74801760Y-32921177D01*
X74910127Y-32979101D01*
X75012501Y-33010155D01*
X75012501Y-33950020D01*
X74796016Y-33950020D01*
X74744034Y-33898038D01*
X74617100Y-33813224D01*
X74476059Y-33754803D01*
X74326331Y-33725020D01*
X74173669Y-33725020D01*
X74023941Y-33754803D01*
X73882900Y-33813224D01*
X73755966Y-33898038D01*
X73648018Y-34005986D01*
X73563204Y-34132920D01*
X73504783Y-34273961D01*
X73475000Y-34423689D01*
X73475000Y-34576351D01*
X73504783Y-34726079D01*
X73563204Y-34867120D01*
X73648018Y-34994054D01*
X73755966Y-35102002D01*
X73882900Y-35186816D01*
X74023941Y-35245237D01*
X74173669Y-35275020D01*
X74326331Y-35275020D01*
X74476059Y-35245237D01*
X74617100Y-35186816D01*
X74744034Y-35102002D01*
X74796016Y-35050020D01*
X75222972Y-35050020D01*
X75249980Y-35052680D01*
X75276988Y-35050020D01*
X75276998Y-35050020D01*
X75357799Y-35042062D01*
X75461474Y-35010612D01*
X75556828Y-34959645D01*
X75766987Y-35169804D01*
X75784210Y-35190790D01*
X75805196Y-35208013D01*
X75867958Y-35259521D01*
X75963505Y-35310592D01*
X76067181Y-35342042D01*
X76147982Y-35350000D01*
X76147989Y-35350000D01*
X76175000Y-35352660D01*
X76202011Y-35350000D01*
X80236961Y-35350000D01*
X80301487Y-35369574D01*
X80375000Y-35376814D01*
X81625000Y-35376814D01*
X81698513Y-35369574D01*
X81769200Y-35348131D01*
X81834347Y-35313309D01*
X81891448Y-35266448D01*
X81938309Y-35209347D01*
X81973131Y-35144200D01*
X81994574Y-35073513D01*
X82001814Y-35000000D01*
X82001814Y-34600000D01*
X81994574Y-34526487D01*
X81978955Y-34475000D01*
X81994574Y-34423513D01*
X82001814Y-34350000D01*
X82001814Y-33950000D01*
X81994574Y-33876487D01*
X81978955Y-33825000D01*
X81994574Y-33773513D01*
X82001814Y-33700000D01*
X82001814Y-33300000D01*
X81994574Y-33226487D01*
X81978955Y-33175000D01*
X81994574Y-33123513D01*
X82001814Y-33050000D01*
X82001814Y-32650000D01*
X81994574Y-32576487D01*
X81973131Y-32505800D01*
X81938309Y-32440653D01*
X81891448Y-32383552D01*
X81834347Y-32336691D01*
X81769200Y-32301869D01*
X81698513Y-32280426D01*
X81625000Y-32273186D01*
X80375000Y-32273186D01*
X80301487Y-32280426D01*
X80230800Y-32301869D01*
X80165653Y-32336691D01*
X80108552Y-32383552D01*
X80061691Y-32440653D01*
X80026869Y-32505800D01*
X80005426Y-32576487D01*
X79998186Y-32650000D01*
X79998186Y-33050000D01*
X80005426Y-33123513D01*
X80021045Y-33175000D01*
X80005426Y-33226487D01*
X79998186Y-33300000D01*
X79998186Y-33700000D01*
X80005426Y-33773513D01*
X80021045Y-33825000D01*
X80005426Y-33876487D01*
X79998186Y-33950000D01*
X79998186Y-34250000D01*
X76402817Y-34250000D01*
X76112500Y-33959683D01*
X76112500Y-33010155D01*
X76214873Y-32979101D01*
X76323240Y-32921177D01*
X76418225Y-32843225D01*
X76496177Y-32748240D01*
X76554101Y-32639873D01*
X76589770Y-32522287D01*
X76601814Y-32400002D01*
X76601814Y-31099998D01*
X76589770Y-30977713D01*
X76554101Y-30860127D01*
X76496177Y-30751760D01*
X76418225Y-30656775D01*
X76323240Y-30578823D01*
X76214873Y-30520899D01*
X76145978Y-30500000D01*
X76214873Y-30479101D01*
X76323240Y-30421177D01*
X76418225Y-30343225D01*
X76496177Y-30248240D01*
X76554101Y-30139873D01*
X76589770Y-30022287D01*
X76601814Y-29900002D01*
X76601814Y-28599998D01*
X76589770Y-28477713D01*
X76558613Y-28375000D01*
X78250000Y-28375000D01*
X78323159Y-28367794D01*
X78393506Y-28346455D01*
X78458339Y-28311801D01*
X78515165Y-28265165D01*
X79265165Y-27515165D01*
X79311801Y-27458339D01*
X79346455Y-27393506D01*
X79367794Y-27323159D01*
X79375000Y-27250000D01*
X79375000Y-26250000D01*
X79367794Y-26176841D01*
X79346455Y-26106494D01*
X79311801Y-26041661D01*
X79265165Y-25984835D01*
X78125000Y-24844670D01*
X78125000Y-23000000D01*
X78117794Y-22926841D01*
X78096455Y-22856494D01*
X78061801Y-22791661D01*
X78015165Y-22734835D01*
X77765165Y-22484835D01*
X77708339Y-22438199D01*
X77643506Y-22403545D01*
X77573159Y-22382206D01*
X77500000Y-22375000D01*
X75000000Y-22375000D01*
X74926841Y-22382206D01*
X74856494Y-22403545D01*
X74791661Y-22438199D01*
X74734835Y-22484835D01*
X74550000Y-22669670D01*
X74550000Y-22277011D01*
X74552660Y-22250000D01*
X74550000Y-22222989D01*
X74550000Y-22222982D01*
X74542042Y-22142181D01*
X74510592Y-22038506D01*
X74459521Y-21942958D01*
X74390790Y-21859210D01*
X74369804Y-21841987D01*
X72692812Y-20164995D01*
X72675589Y-20144009D01*
X72591841Y-20075278D01*
X72496293Y-20024207D01*
X72392618Y-19992757D01*
X72311817Y-19984799D01*
X72311807Y-19984799D01*
X72284799Y-19982139D01*
X72257791Y-19984799D01*
X71528095Y-19984799D01*
X71528095Y-19684799D01*
X71520855Y-19611286D01*
X71499412Y-19540599D01*
X71464590Y-19475452D01*
X71417729Y-19418351D01*
X71360628Y-19371490D01*
X71295481Y-19336668D01*
X71224794Y-19315225D01*
X71151281Y-19307985D01*
X69451281Y-19307985D01*
X69377768Y-19315225D01*
X69307081Y-19336668D01*
X69241934Y-19371490D01*
X69184833Y-19418351D01*
X69137972Y-19475452D01*
X69103150Y-19540599D01*
X69081707Y-19611286D01*
X69074467Y-19684799D01*
X68643692Y-19684799D01*
X68542173Y-19583280D01*
X68341536Y-19449218D01*
X68118600Y-19356875D01*
X67881933Y-19309799D01*
X67640629Y-19309799D01*
X67403962Y-19356875D01*
X67181026Y-19449218D01*
X66980389Y-19583280D01*
X66809762Y-19753907D01*
X66675700Y-19954544D01*
X66583357Y-20177480D01*
X66536281Y-20414147D01*
X66536281Y-20655451D01*
X66583357Y-20892118D01*
X66675700Y-21115054D01*
X66809762Y-21315691D01*
X66980389Y-21486318D01*
X67181026Y-21620380D01*
X67261281Y-21653623D01*
X67261281Y-21712320D01*
X67258862Y-21736880D01*
X67262617Y-21775000D01*
X67268516Y-21834896D01*
X67297106Y-21929146D01*
X67343535Y-22016009D01*
X67406017Y-22092144D01*
X67425104Y-22107809D01*
X67801282Y-22483987D01*
X67801281Y-29205239D01*
X67744034Y-29147992D01*
X67617100Y-29063178D01*
X67476059Y-29004757D01*
X67326331Y-28974974D01*
X67182106Y-28974974D01*
X65721281Y-27514150D01*
X65721281Y-21653623D01*
X65801536Y-21620380D01*
X66002173Y-21486318D01*
X66172800Y-21315691D01*
X66306862Y-21115054D01*
X66399205Y-20892118D01*
X66446281Y-20655451D01*
X66446281Y-20414147D01*
X66399205Y-20177480D01*
X66306862Y-19954544D01*
X66172800Y-19753907D01*
X66002173Y-19583280D01*
X65801536Y-19449218D01*
X65578600Y-19356875D01*
X65341933Y-19309799D01*
X65100629Y-19309799D01*
X64863962Y-19356875D01*
X64641026Y-19449218D01*
X64440389Y-19583280D01*
X64269762Y-19753907D01*
X64135700Y-19954544D01*
X64043357Y-20177480D01*
X63996281Y-20414147D01*
X63996281Y-20655451D01*
X64043357Y-20892118D01*
X64135700Y-21115054D01*
X64269762Y-21315691D01*
X64440389Y-21486318D01*
X64641026Y-21620380D01*
X64721281Y-21653623D01*
X64721282Y-27696685D01*
X64718862Y-27721255D01*
X64728516Y-27819272D01*
X64751035Y-27893506D01*
X64757107Y-27913522D01*
X64803536Y-28000384D01*
X64866018Y-28076519D01*
X64885100Y-28092179D01*
X66475000Y-29682080D01*
X66475000Y-29826305D01*
X66504783Y-29976033D01*
X66563204Y-30117074D01*
X66648018Y-30244008D01*
X66755966Y-30351956D01*
X66882900Y-30436770D01*
X67023941Y-30495191D01*
X67173669Y-30524974D01*
X67326331Y-30524974D01*
X67476059Y-30495191D01*
X67617100Y-30436770D01*
X67744034Y-30351956D01*
X67801281Y-30294709D01*
X67801281Y-32991612D01*
X66944572Y-33848322D01*
X66995215Y-33726059D01*
X67024998Y-33576331D01*
X67024998Y-33423669D01*
X66995215Y-33273941D01*
X66936794Y-33132900D01*
X66851980Y-33005966D01*
X66744032Y-32898018D01*
X66617098Y-32813204D01*
X66476057Y-32754783D01*
X66326329Y-32725000D01*
X66182104Y-32725000D01*
X64320927Y-30863824D01*
X64305262Y-30844736D01*
X64229127Y-30782254D01*
X64142265Y-30735825D01*
X64048015Y-30707235D01*
X63974558Y-30700000D01*
X63949998Y-30697581D01*
X63925438Y-30700000D01*
X59831890Y-30700000D01*
X59829574Y-30676487D01*
X59808131Y-30605800D01*
X59773309Y-30540653D01*
X59726448Y-30483552D01*
X59685564Y-30450000D01*
X59726448Y-30416448D01*
X59773309Y-30359347D01*
X59808131Y-30294200D01*
X59829574Y-30223513D01*
X59836814Y-30150000D01*
X59836814Y-29250000D01*
X59829574Y-29176487D01*
X59808131Y-29105800D01*
X59773309Y-29040653D01*
X59726448Y-28983552D01*
X59685564Y-28950000D01*
X59726448Y-28916448D01*
X59773309Y-28859347D01*
X59808131Y-28794200D01*
X59829574Y-28723513D01*
X59836814Y-28650000D01*
X59836814Y-27750000D01*
X59829574Y-27676487D01*
X59808131Y-27605800D01*
X59773309Y-27540653D01*
X59726448Y-27483552D01*
X59685564Y-27450000D01*
X59726448Y-27416448D01*
X59773309Y-27359347D01*
X59808131Y-27294200D01*
X59829574Y-27223513D01*
X59831890Y-27200000D01*
X60353984Y-27200000D01*
X60455966Y-27301982D01*
X60582900Y-27386796D01*
X60723941Y-27445217D01*
X60873669Y-27475000D01*
X61026331Y-27475000D01*
X61176059Y-27445217D01*
X61317100Y-27386796D01*
X61444034Y-27301982D01*
X61551982Y-27194034D01*
X61636796Y-27067100D01*
X61695217Y-26926059D01*
X61725000Y-26776331D01*
X61725000Y-26623669D01*
X61695217Y-26473941D01*
X61636796Y-26332900D01*
X61551982Y-26205966D01*
X61444034Y-26098018D01*
X61317100Y-26013204D01*
X61176059Y-25954783D01*
X61026331Y-25925000D01*
X60873669Y-25925000D01*
X60723941Y-25954783D01*
X60582900Y-26013204D01*
X60455966Y-26098018D01*
X60353984Y-26200000D01*
X59831890Y-26200000D01*
X59829574Y-26176487D01*
X59808131Y-26105800D01*
X59773309Y-26040653D01*
X59726448Y-25983552D01*
X59669347Y-25936691D01*
X59604200Y-25901869D01*
X59533513Y-25880426D01*
X59460000Y-25873186D01*
X57960000Y-25873186D01*
X57886487Y-25880426D01*
X57815800Y-25901869D01*
X57750653Y-25936691D01*
X57693552Y-25983552D01*
X57646691Y-26040653D01*
X57611869Y-26105800D01*
X57590426Y-26176487D01*
X57583186Y-26250000D01*
X57583186Y-27150000D01*
X57590426Y-27223513D01*
X57611869Y-27294200D01*
X57646691Y-27359347D01*
X57693552Y-27416448D01*
X57734436Y-27450000D01*
X57693552Y-27483552D01*
X57646691Y-27540653D01*
X57611869Y-27605800D01*
X57590426Y-27676487D01*
X57583186Y-27750000D01*
X57583186Y-28650000D01*
X57590426Y-28723513D01*
X57611869Y-28794200D01*
X57646691Y-28859347D01*
X57693552Y-28916448D01*
X57734436Y-28950000D01*
X57693552Y-28983552D01*
X57646691Y-29040653D01*
X57611869Y-29105800D01*
X57590426Y-29176487D01*
X57583186Y-29250000D01*
X57583186Y-30150000D01*
X57590426Y-30223513D01*
X57611869Y-30294200D01*
X57646691Y-30359347D01*
X57693552Y-30416448D01*
X57734436Y-30450000D01*
X57693552Y-30483552D01*
X57646691Y-30540653D01*
X57611869Y-30605800D01*
X57590426Y-30676487D01*
X57588110Y-30700000D01*
X56910640Y-30700000D01*
X56886080Y-30697581D01*
X56861520Y-30700000D01*
X56788063Y-30707235D01*
X56693813Y-30735825D01*
X56606951Y-30782254D01*
X56530816Y-30844736D01*
X56515160Y-30863814D01*
X55965104Y-31413870D01*
X55946017Y-31429535D01*
X55883535Y-31505670D01*
X55837106Y-31592533D01*
X55819674Y-31650000D01*
X55808516Y-31686782D01*
X55798862Y-31784799D01*
X55801281Y-31809359D01*
X55801282Y-35327691D01*
X53344176Y-37784799D01*
X30056118Y-37784799D01*
X26589212Y-34317895D01*
X26589212Y-34173669D01*
X26559429Y-34023941D01*
X26501008Y-33882900D01*
X26416194Y-33755966D01*
X26308246Y-33648018D01*
X26181312Y-33563204D01*
X26040271Y-33504783D01*
X25890543Y-33475000D01*
X25774998Y-33475000D01*
X25774998Y-33432105D01*
X29007105Y-30200000D01*
X31504572Y-30200000D01*
X31475000Y-30348669D01*
X31475000Y-30501331D01*
X31504783Y-30651059D01*
X31563204Y-30792100D01*
X31648018Y-30919034D01*
X31755966Y-31026982D01*
X31882900Y-31111796D01*
X32023941Y-31170217D01*
X32173669Y-31200000D01*
X32247183Y-31200000D01*
X35616992Y-34569810D01*
X35634210Y-34590790D01*
X35655190Y-34608008D01*
X35655195Y-34608013D01*
X35702727Y-34647021D01*
X35717958Y-34659521D01*
X35813506Y-34710592D01*
X35917181Y-34742042D01*
X35997982Y-34750000D01*
X35997991Y-34750000D01*
X36024999Y-34752660D01*
X36052007Y-34750000D01*
X40098461Y-34750000D01*
X40111869Y-34794200D01*
X40146691Y-34859347D01*
X40193552Y-34916448D01*
X40234436Y-34950000D01*
X40193552Y-34983552D01*
X40146691Y-35040653D01*
X40111869Y-35105800D01*
X40098461Y-35150000D01*
X39846042Y-35150000D01*
X39794047Y-35098005D01*
X39667113Y-35013191D01*
X39526072Y-34954770D01*
X39376344Y-34924987D01*
X39223682Y-34924987D01*
X39073954Y-34954770D01*
X38932913Y-35013191D01*
X38805979Y-35098005D01*
X38698031Y-35205953D01*
X38613217Y-35332887D01*
X38554796Y-35473928D01*
X38525013Y-35623656D01*
X38525013Y-35776318D01*
X38554796Y-35926046D01*
X38613217Y-36067087D01*
X38698031Y-36194021D01*
X38805979Y-36301969D01*
X38932913Y-36386783D01*
X39073954Y-36445204D01*
X39223682Y-36474987D01*
X39376344Y-36474987D01*
X39526072Y-36445204D01*
X39667113Y-36386783D01*
X39794047Y-36301969D01*
X39846016Y-36250000D01*
X40098461Y-36250000D01*
X40111869Y-36294200D01*
X40146691Y-36359347D01*
X40193552Y-36416448D01*
X40250653Y-36463309D01*
X40315800Y-36498131D01*
X40386487Y-36519574D01*
X40460000Y-36526814D01*
X41960000Y-36526814D01*
X42033513Y-36519574D01*
X42104200Y-36498131D01*
X42169347Y-36463309D01*
X42226448Y-36416448D01*
X42273309Y-36359347D01*
X42308131Y-36294200D01*
X42329574Y-36223513D01*
X42336814Y-36150000D01*
X42336814Y-35250000D01*
X42329574Y-35176487D01*
X42308131Y-35105800D01*
X42273309Y-35040653D01*
X42226448Y-34983552D01*
X42185564Y-34950000D01*
X42226448Y-34916448D01*
X42273309Y-34859347D01*
X42308131Y-34794200D01*
X42329574Y-34723513D01*
X42336814Y-34650000D01*
X42336814Y-33750000D01*
X42329574Y-33676487D01*
X42308131Y-33605800D01*
X42273309Y-33540653D01*
X42226448Y-33483552D01*
X42185564Y-33450000D01*
X42226448Y-33416448D01*
X42273309Y-33359347D01*
X42308131Y-33294200D01*
X42329574Y-33223513D01*
X42336814Y-33150000D01*
X42336814Y-32250000D01*
X42329574Y-32176487D01*
X42308131Y-32105800D01*
X42273309Y-32040653D01*
X42226448Y-31983552D01*
X42185564Y-31950000D01*
X42226448Y-31916448D01*
X42273309Y-31859347D01*
X42308131Y-31794200D01*
X42321539Y-31750000D01*
X44403984Y-31750000D01*
X44505966Y-31851982D01*
X44632900Y-31936796D01*
X44773941Y-31995217D01*
X44923669Y-32025000D01*
X45076331Y-32025000D01*
X45226059Y-31995217D01*
X45367100Y-31936796D01*
X45494034Y-31851982D01*
X45601982Y-31744034D01*
X45686796Y-31617100D01*
X45745217Y-31476059D01*
X45775000Y-31326331D01*
X45775000Y-31173669D01*
X45745217Y-31023941D01*
X45686796Y-30882900D01*
X45601982Y-30755966D01*
X45494034Y-30648018D01*
X45367100Y-30563204D01*
X45226059Y-30504783D01*
X45076331Y-30475000D01*
X44923669Y-30475000D01*
X44773941Y-30504783D01*
X44632900Y-30563204D01*
X44505966Y-30648018D01*
X44403984Y-30750000D01*
X42336814Y-30750000D01*
X42329574Y-30676487D01*
X42308131Y-30605800D01*
X42273309Y-30540653D01*
X42226448Y-30483552D01*
X42185564Y-30450000D01*
X42226448Y-30416448D01*
X42273309Y-30359347D01*
X42308131Y-30294200D01*
X42329574Y-30223513D01*
X42331890Y-30200000D01*
X53759377Y-30200000D01*
X54026281Y-30466904D01*
X54026281Y-30611130D01*
X54056064Y-30760858D01*
X54114485Y-30901899D01*
X54199299Y-31028833D01*
X54307247Y-31136781D01*
X54434181Y-31221595D01*
X54575222Y-31280016D01*
X54724950Y-31309799D01*
X54877612Y-31309799D01*
X55027340Y-31280016D01*
X55168381Y-31221595D01*
X55295315Y-31136781D01*
X55403263Y-31028833D01*
X55488077Y-30901899D01*
X55546498Y-30760858D01*
X55576281Y-30611130D01*
X55576281Y-30458468D01*
X55546498Y-30308740D01*
X55488077Y-30167699D01*
X55403263Y-30040765D01*
X55295315Y-29932817D01*
X55168381Y-29848003D01*
X55027340Y-29789582D01*
X54877612Y-29759799D01*
X54733386Y-29759799D01*
X54337411Y-29363824D01*
X54321746Y-29344736D01*
X54245611Y-29282254D01*
X54158749Y-29235825D01*
X54064499Y-29207235D01*
X53991042Y-29200000D01*
X53966482Y-29197581D01*
X53941922Y-29200000D01*
X42331890Y-29200000D01*
X42329574Y-29176487D01*
X42308131Y-29105800D01*
X42273309Y-29040653D01*
X42226448Y-28983552D01*
X42185564Y-28950000D01*
X42226448Y-28916448D01*
X42273309Y-28859347D01*
X42308131Y-28794200D01*
X42321539Y-28750000D01*
X43272992Y-28750000D01*
X43300000Y-28752660D01*
X43327008Y-28750000D01*
X43327018Y-28750000D01*
X43407819Y-28742042D01*
X43511494Y-28710592D01*
X43607042Y-28659521D01*
X43690790Y-28590790D01*
X43708013Y-28569804D01*
X44752817Y-27525000D01*
X44826331Y-27525000D01*
X44976059Y-27495217D01*
X45117100Y-27436796D01*
X45244034Y-27351982D01*
X45351982Y-27244034D01*
X45436796Y-27117100D01*
X45495217Y-26976059D01*
X45525000Y-26826331D01*
X45525000Y-26673669D01*
X45495217Y-26523941D01*
X45436796Y-26382900D01*
X45351982Y-26255966D01*
X45244034Y-26148018D01*
X45117100Y-26063204D01*
X44976059Y-26004783D01*
X44826331Y-25975000D01*
X44673669Y-25975000D01*
X44523941Y-26004783D01*
X44382900Y-26063204D01*
X44255966Y-26148018D01*
X44148018Y-26255966D01*
X44063204Y-26382900D01*
X44004783Y-26523941D01*
X43975000Y-26673669D01*
X43975000Y-26747183D01*
X43072183Y-27650000D01*
X42321539Y-27650000D01*
X42308131Y-27605800D01*
X42273309Y-27540653D01*
X42226448Y-27483552D01*
X42185564Y-27450000D01*
X42226448Y-27416448D01*
X42273309Y-27359347D01*
X42308131Y-27294200D01*
X42329574Y-27223513D01*
X42336814Y-27150000D01*
X42336814Y-26363652D01*
X42393506Y-26346455D01*
X42458339Y-26311801D01*
X42515165Y-26265165D01*
X42765165Y-26015165D01*
X42811801Y-25958339D01*
X42846455Y-25893506D01*
X42867794Y-25823159D01*
X42875000Y-25750000D01*
X42875000Y-24650000D01*
X58980354Y-24650000D01*
X59000000Y-24651935D01*
X59019646Y-24650000D01*
X59019647Y-24650000D01*
X59078414Y-24644212D01*
X59153814Y-24621340D01*
X59223303Y-24584197D01*
X59284211Y-24534211D01*
X59296738Y-24518947D01*
X59518944Y-24296740D01*
X59534211Y-24284211D01*
X59584197Y-24223303D01*
X59621340Y-24153814D01*
X59644212Y-24078414D01*
X59650000Y-24019647D01*
X59650000Y-24019637D01*
X59651934Y-24000001D01*
X59650000Y-23980365D01*
X59650000Y-18915685D01*
X60165686Y-18400000D01*
X82084315Y-18400000D01*
X85850001Y-22165687D01*
X85850000Y-69834314D01*
X82084315Y-73600000D01*
X17915686Y-73600000D01*
X14150000Y-69834315D01*
X14150000Y-22165685D01*
X17915686Y-18400000D01*
X36625000Y-18400000D01*
X36625000Y-24000000D01*
%TA.AperFunction,Conductor*%
D27*
G36*
X36625000Y-24000000D02*
G01*
X36632206Y-24073159D01*
X36653545Y-24143506D01*
X36688199Y-24208339D01*
X36734835Y-24265165D01*
X36984835Y-24515165D01*
X37027283Y-24550001D01*
X29927006Y-24550001D01*
X29899998Y-24547341D01*
X29872990Y-24550001D01*
X29872981Y-24550001D01*
X29792180Y-24557959D01*
X29688505Y-24589409D01*
X29592957Y-24640480D01*
X29592955Y-24640481D01*
X29592956Y-24640481D01*
X29530194Y-24691988D01*
X29530189Y-24691993D01*
X29509209Y-24709211D01*
X29491991Y-24730191D01*
X28380191Y-25841992D01*
X28359211Y-25859210D01*
X28341993Y-25880190D01*
X28341987Y-25880196D01*
X28290479Y-25942958D01*
X28289955Y-25943939D01*
X28244034Y-25898018D01*
X28117100Y-25813204D01*
X27976059Y-25754783D01*
X27952013Y-25750000D01*
X27976059Y-25745217D01*
X28117100Y-25686796D01*
X28244034Y-25601982D01*
X28351982Y-25494034D01*
X28436796Y-25367100D01*
X28495217Y-25226059D01*
X28525000Y-25076331D01*
X28525000Y-24923669D01*
X28495217Y-24773941D01*
X28436796Y-24632900D01*
X28351982Y-24505966D01*
X28244034Y-24398018D01*
X28117100Y-24313204D01*
X27976059Y-24254783D01*
X27826331Y-24225000D01*
X27673669Y-24225000D01*
X27523941Y-24254783D01*
X27382900Y-24313204D01*
X27255966Y-24398018D01*
X27203984Y-24450000D01*
X23527007Y-24450000D01*
X23499999Y-24447340D01*
X23472991Y-24450000D01*
X23472982Y-24450000D01*
X23392181Y-24457958D01*
X23288506Y-24489408D01*
X23268690Y-24500000D01*
X23192957Y-24540479D01*
X23130195Y-24591987D01*
X23130190Y-24591992D01*
X23109210Y-24609210D01*
X23091992Y-24630190D01*
X18630196Y-29091987D01*
X18609210Y-29109210D01*
X18540479Y-29192958D01*
X18489408Y-29288507D01*
X18457958Y-29392182D01*
X18450000Y-29472983D01*
X18450000Y-29472992D01*
X18447340Y-29500000D01*
X18450000Y-29527008D01*
X18450001Y-63722982D01*
X18447340Y-63750000D01*
X18457959Y-63857818D01*
X18489409Y-63961494D01*
X18540479Y-64057042D01*
X18591987Y-64119804D01*
X18591993Y-64119810D01*
X18609211Y-64140790D01*
X18630191Y-64158008D01*
X19841992Y-65369810D01*
X19859210Y-65390790D01*
X19880190Y-65408008D01*
X19880195Y-65408013D01*
X19942958Y-65459521D01*
X20038506Y-65510592D01*
X20142181Y-65542042D01*
X20222982Y-65550000D01*
X20222992Y-65550000D01*
X20250000Y-65552660D01*
X20277008Y-65550000D01*
X38022183Y-65550000D01*
X38475000Y-66002817D01*
X38475000Y-66076331D01*
X38504783Y-66226059D01*
X38563204Y-66367100D01*
X38648018Y-66494034D01*
X38755966Y-66601982D01*
X38882900Y-66686796D01*
X39023941Y-66745217D01*
X39173669Y-66775000D01*
X39326331Y-66775000D01*
X39476059Y-66745217D01*
X39617100Y-66686796D01*
X39744034Y-66601982D01*
X39851982Y-66494034D01*
X39936796Y-66367100D01*
X39995217Y-66226059D01*
X40025000Y-66076331D01*
X40025000Y-65923669D01*
X39995217Y-65773941D01*
X39936796Y-65632900D01*
X39851982Y-65505966D01*
X39744034Y-65398018D01*
X39617100Y-65313204D01*
X39476059Y-65254783D01*
X39326331Y-65225000D01*
X39252817Y-65225000D01*
X38658012Y-64630195D01*
X38640790Y-64609210D01*
X38557042Y-64540479D01*
X38461494Y-64489408D01*
X38357819Y-64457958D01*
X38277018Y-64450000D01*
X38277008Y-64450000D01*
X38250000Y-64447340D01*
X38222992Y-64450000D01*
X20477818Y-64450000D01*
X19550000Y-63522183D01*
X19550000Y-29727817D01*
X23727818Y-25550000D01*
X27203984Y-25550000D01*
X27255966Y-25601982D01*
X27382900Y-25686796D01*
X27523941Y-25745217D01*
X27547987Y-25750000D01*
X27523941Y-25754783D01*
X27382900Y-25813204D01*
X27255966Y-25898018D01*
X27203984Y-25950000D01*
X24527011Y-25950000D01*
X24500000Y-25947340D01*
X24472989Y-25950000D01*
X24472982Y-25950000D01*
X24392181Y-25957958D01*
X24288506Y-25989408D01*
X24192958Y-26040479D01*
X24109210Y-26109210D01*
X24091987Y-26130196D01*
X19880196Y-30341987D01*
X19859210Y-30359210D01*
X19790479Y-30442958D01*
X19739408Y-30538507D01*
X19707958Y-30642182D01*
X19700000Y-30722983D01*
X19700000Y-30722992D01*
X19697340Y-30750000D01*
X19700000Y-30777008D01*
X19700001Y-62222982D01*
X19697340Y-62250000D01*
X19700001Y-62277018D01*
X19707959Y-62357819D01*
X19739409Y-62461494D01*
X19790479Y-62557042D01*
X19841987Y-62619804D01*
X19841993Y-62619810D01*
X19859211Y-62640790D01*
X19880191Y-62658008D01*
X21341992Y-64119810D01*
X21359210Y-64140790D01*
X21380190Y-64158008D01*
X21380195Y-64158013D01*
X21432097Y-64200607D01*
X21442958Y-64209521D01*
X21538506Y-64260592D01*
X21642181Y-64292042D01*
X21722982Y-64300000D01*
X21722991Y-64300000D01*
X21749999Y-64302660D01*
X21777007Y-64300000D01*
X51222992Y-64300000D01*
X51250000Y-64302660D01*
X51277008Y-64300000D01*
X51277018Y-64300000D01*
X51357819Y-64292042D01*
X51461494Y-64260592D01*
X51557042Y-64209521D01*
X51640790Y-64140790D01*
X51658013Y-64119804D01*
X52977818Y-62800000D01*
X53873186Y-62800000D01*
X53873186Y-62900000D01*
X53880426Y-62973513D01*
X53901869Y-63044200D01*
X53936691Y-63109347D01*
X53983552Y-63166448D01*
X54040653Y-63213309D01*
X54105800Y-63248131D01*
X54176487Y-63269574D01*
X54250000Y-63276814D01*
X55800000Y-63276814D01*
X55873513Y-63269574D01*
X55944200Y-63248131D01*
X56009347Y-63213309D01*
X56066448Y-63166448D01*
X56113309Y-63109347D01*
X56148131Y-63044200D01*
X56169574Y-62973513D01*
X56176814Y-62900000D01*
X56176814Y-62800000D01*
X61823186Y-62800000D01*
X61823186Y-62900000D01*
X61830426Y-62973513D01*
X61851869Y-63044200D01*
X61886691Y-63109347D01*
X61933552Y-63166448D01*
X61990653Y-63213309D01*
X62055800Y-63248131D01*
X62126487Y-63269574D01*
X62200000Y-63276814D01*
X63750000Y-63276814D01*
X63823513Y-63269574D01*
X63894200Y-63248131D01*
X63959347Y-63213309D01*
X64016448Y-63166448D01*
X64063309Y-63109347D01*
X64098131Y-63044200D01*
X64119574Y-62973513D01*
X64126814Y-62900000D01*
X64126814Y-61600000D01*
X64119574Y-61526487D01*
X64098131Y-61455800D01*
X64063309Y-61390653D01*
X64016448Y-61333552D01*
X63959347Y-61286691D01*
X63894200Y-61251869D01*
X63823513Y-61230426D01*
X63750000Y-61223186D01*
X62200000Y-61223186D01*
X62126487Y-61230426D01*
X62055800Y-61251869D01*
X61990653Y-61286691D01*
X61933552Y-61333552D01*
X61886691Y-61390653D01*
X61851869Y-61455800D01*
X61830426Y-61526487D01*
X61823186Y-61600000D01*
X61823186Y-61700000D01*
X56176814Y-61700000D01*
X56176814Y-61600000D01*
X56169574Y-61526487D01*
X56148131Y-61455800D01*
X56113309Y-61390653D01*
X56066448Y-61333552D01*
X56009347Y-61286691D01*
X55944200Y-61251869D01*
X55873513Y-61230426D01*
X55800000Y-61223186D01*
X54250000Y-61223186D01*
X54176487Y-61230426D01*
X54105800Y-61251869D01*
X54040653Y-61286691D01*
X53983552Y-61333552D01*
X53936691Y-61390653D01*
X53901869Y-61455800D01*
X53880426Y-61526487D01*
X53873186Y-61600000D01*
X53873186Y-61700000D01*
X52777007Y-61700000D01*
X52749999Y-61697340D01*
X52722991Y-61700000D01*
X52722982Y-61700000D01*
X52642181Y-61707958D01*
X52538506Y-61739408D01*
X52442958Y-61790479D01*
X52442956Y-61790480D01*
X52442957Y-61790480D01*
X52380195Y-61841987D01*
X52380190Y-61841992D01*
X52359210Y-61859210D01*
X52341992Y-61880190D01*
X51022183Y-63200000D01*
X45975564Y-63200000D01*
X46016448Y-63166448D01*
X46063309Y-63109347D01*
X46098131Y-63044200D01*
X46119574Y-62973513D01*
X46126814Y-62900000D01*
X46126814Y-61600000D01*
X46119574Y-61526487D01*
X46098131Y-61455800D01*
X46063309Y-61390653D01*
X46016448Y-61333552D01*
X45959347Y-61286691D01*
X45894200Y-61251869D01*
X45823513Y-61230426D01*
X45750000Y-61223186D01*
X44200000Y-61223186D01*
X44126487Y-61230426D01*
X44055800Y-61251869D01*
X43990653Y-61286691D01*
X43933552Y-61333552D01*
X43886691Y-61390653D01*
X43851869Y-61455800D01*
X43830426Y-61526487D01*
X43823186Y-61600000D01*
X43823186Y-61700000D01*
X38176814Y-61700000D01*
X38176814Y-61600000D01*
X38169574Y-61526487D01*
X38148131Y-61455800D01*
X38113309Y-61390653D01*
X38066448Y-61333552D01*
X38009347Y-61286691D01*
X37944200Y-61251869D01*
X37873513Y-61230426D01*
X37800000Y-61223186D01*
X36250000Y-61223186D01*
X36176487Y-61230426D01*
X36105800Y-61251869D01*
X36040653Y-61286691D01*
X35983552Y-61333552D01*
X35936691Y-61390653D01*
X35901869Y-61455800D01*
X35880426Y-61526487D01*
X35873186Y-61600000D01*
X35873186Y-62900000D01*
X35880426Y-62973513D01*
X35901869Y-63044200D01*
X35936691Y-63109347D01*
X35983552Y-63166448D01*
X36024436Y-63200000D01*
X34975564Y-63200000D01*
X35016448Y-63166448D01*
X35063309Y-63109347D01*
X35098131Y-63044200D01*
X35119574Y-62973513D01*
X35126814Y-62900000D01*
X35126814Y-61600000D01*
X35119574Y-61526487D01*
X35098131Y-61455800D01*
X35063309Y-61390653D01*
X35016448Y-61333552D01*
X34959347Y-61286691D01*
X34894200Y-61251869D01*
X34823513Y-61230426D01*
X34750000Y-61223186D01*
X33200000Y-61223186D01*
X33126487Y-61230426D01*
X33055800Y-61251869D01*
X32990653Y-61286691D01*
X32933552Y-61333552D01*
X32886691Y-61390653D01*
X32851869Y-61455800D01*
X32830426Y-61526487D01*
X32823186Y-61600000D01*
X32823186Y-61700000D01*
X27176814Y-61700000D01*
X27176814Y-61600000D01*
X27169574Y-61526487D01*
X27148131Y-61455800D01*
X27113309Y-61390653D01*
X27066448Y-61333552D01*
X27009347Y-61286691D01*
X26944200Y-61251869D01*
X26873513Y-61230426D01*
X26800000Y-61223186D01*
X25250000Y-61223186D01*
X25176487Y-61230426D01*
X25105800Y-61251869D01*
X25040653Y-61286691D01*
X24983552Y-61333552D01*
X24936691Y-61390653D01*
X24901869Y-61455800D01*
X24880426Y-61526487D01*
X24873186Y-61600000D01*
X24873186Y-61700000D01*
X23477817Y-61700000D01*
X22050000Y-60272183D01*
X22050000Y-31727817D01*
X25227818Y-28550000D01*
X27203984Y-28550000D01*
X27255966Y-28601982D01*
X27382900Y-28686796D01*
X27514766Y-28741416D01*
X23130191Y-33125992D01*
X23109211Y-33143210D01*
X23091993Y-33164190D01*
X23091987Y-33164196D01*
X23040479Y-33226958D01*
X22997306Y-33307731D01*
X22989409Y-33322506D01*
X22959964Y-33419574D01*
X22957959Y-33426182D01*
X22947340Y-33534000D01*
X22950001Y-33561018D01*
X22950000Y-56972992D01*
X22947340Y-57000000D01*
X22950000Y-57027008D01*
X22950000Y-57027017D01*
X22957958Y-57107818D01*
X22989408Y-57211493D01*
X23040479Y-57307042D01*
X23109210Y-57390790D01*
X23130196Y-57408013D01*
X26091987Y-60369804D01*
X26109210Y-60390790D01*
X26130196Y-60408013D01*
X26192958Y-60459521D01*
X26288505Y-60510592D01*
X26342651Y-60527017D01*
X26392181Y-60542042D01*
X26472982Y-60550000D01*
X26472989Y-60550000D01*
X26500000Y-60552660D01*
X26527011Y-60550000D01*
X63547183Y-60550000D01*
X64873186Y-61876003D01*
X64873186Y-62900000D01*
X64880426Y-62973513D01*
X64901869Y-63044200D01*
X64936691Y-63109347D01*
X64983552Y-63166448D01*
X65040653Y-63213309D01*
X65105800Y-63248131D01*
X65176487Y-63269574D01*
X65250000Y-63276814D01*
X66800000Y-63276814D01*
X66873513Y-63269574D01*
X66944200Y-63248131D01*
X67009347Y-63213309D01*
X67066448Y-63166448D01*
X67113309Y-63109347D01*
X67148131Y-63044200D01*
X67169574Y-62973513D01*
X67176814Y-62900000D01*
X67176814Y-62800000D01*
X72823186Y-62800000D01*
X72823186Y-62900000D01*
X72830426Y-62973513D01*
X72851869Y-63044200D01*
X72886691Y-63109347D01*
X72933552Y-63166448D01*
X72990653Y-63213309D01*
X73055800Y-63248131D01*
X73126487Y-63269574D01*
X73200000Y-63276814D01*
X74750000Y-63276814D01*
X74823513Y-63269574D01*
X74894200Y-63248131D01*
X74959347Y-63213309D01*
X75016448Y-63166448D01*
X75063309Y-63109347D01*
X75098131Y-63044200D01*
X75119574Y-62973513D01*
X75126814Y-62900000D01*
X75126814Y-61600000D01*
X75119574Y-61526487D01*
X75098131Y-61455800D01*
X75063309Y-61390653D01*
X75016448Y-61333552D01*
X74959347Y-61286691D01*
X74894200Y-61251869D01*
X74823513Y-61230426D01*
X74750000Y-61223186D01*
X73200000Y-61223186D01*
X73126487Y-61230426D01*
X73055800Y-61251869D01*
X72990653Y-61286691D01*
X72933552Y-61333552D01*
X72886691Y-61390653D01*
X72851869Y-61455800D01*
X72830426Y-61526487D01*
X72823186Y-61600000D01*
X72823186Y-61700000D01*
X67176814Y-61700000D01*
X67176814Y-61600000D01*
X67169574Y-61526487D01*
X67148131Y-61455800D01*
X67113309Y-61390653D01*
X67066448Y-61333552D01*
X67009347Y-61286691D01*
X66944200Y-61251869D01*
X66873513Y-61230426D01*
X66800000Y-61223186D01*
X65776003Y-61223186D01*
X64183013Y-59630196D01*
X64165790Y-59609210D01*
X64082042Y-59540479D01*
X63986494Y-59489408D01*
X63882819Y-59457958D01*
X63802018Y-59450000D01*
X63802008Y-59450000D01*
X63775000Y-59447340D01*
X63747992Y-59450000D01*
X26727817Y-59450000D01*
X24050000Y-56772183D01*
X24050000Y-44173669D01*
X30975000Y-44173669D01*
X30975000Y-44326331D01*
X31004783Y-44476059D01*
X31063204Y-44617100D01*
X31148018Y-44744034D01*
X31250000Y-44846016D01*
X31250001Y-47153983D01*
X31148018Y-47255966D01*
X31063204Y-47382900D01*
X31004783Y-47523941D01*
X30975000Y-47673669D01*
X30975000Y-47826331D01*
X31004783Y-47976059D01*
X31063204Y-48117100D01*
X31148018Y-48244034D01*
X31250000Y-48346016D01*
X31250001Y-50653983D01*
X31148018Y-50755966D01*
X31063204Y-50882900D01*
X31004783Y-51023941D01*
X30975000Y-51173669D01*
X30975000Y-51326331D01*
X31004783Y-51476059D01*
X31063204Y-51617100D01*
X31148018Y-51744034D01*
X31250000Y-51846016D01*
X31250001Y-54153983D01*
X31148018Y-54255966D01*
X31063204Y-54382900D01*
X31004783Y-54523941D01*
X30975000Y-54673669D01*
X30975000Y-54826331D01*
X31004783Y-54976059D01*
X31063204Y-55117100D01*
X31148018Y-55244034D01*
X31250000Y-55346016D01*
X31250001Y-57653983D01*
X31148018Y-57755966D01*
X31063204Y-57882900D01*
X31004783Y-58023941D01*
X30975000Y-58173669D01*
X30975000Y-58326331D01*
X31004783Y-58476059D01*
X31063204Y-58617100D01*
X31148018Y-58744034D01*
X31255966Y-58851982D01*
X31382900Y-58936796D01*
X31523941Y-58995217D01*
X31673669Y-59025000D01*
X31826331Y-59025000D01*
X31976059Y-58995217D01*
X32117100Y-58936796D01*
X32244034Y-58851982D01*
X32351982Y-58744034D01*
X32436796Y-58617100D01*
X32495217Y-58476059D01*
X32525000Y-58326331D01*
X32525000Y-58173669D01*
X32495217Y-58023941D01*
X32436796Y-57882900D01*
X32351982Y-57755966D01*
X32250000Y-57653984D01*
X32250000Y-57509197D01*
X41255000Y-57509197D01*
X41255000Y-57730803D01*
X41298233Y-57948150D01*
X41383038Y-58152887D01*
X41506156Y-58337145D01*
X41662855Y-58493844D01*
X41847113Y-58616962D01*
X42051850Y-58701767D01*
X42269197Y-58745000D01*
X42490803Y-58745000D01*
X42708150Y-58701767D01*
X42912887Y-58616962D01*
X43097145Y-58493844D01*
X43253844Y-58337145D01*
X43376962Y-58152887D01*
X43461767Y-57948150D01*
X43505000Y-57730803D01*
X43505000Y-57509197D01*
X43795000Y-57509197D01*
X43795000Y-57730803D01*
X43838233Y-57948150D01*
X43923038Y-58152887D01*
X44046156Y-58337145D01*
X44202855Y-58493844D01*
X44387113Y-58616962D01*
X44591850Y-58701767D01*
X44809197Y-58745000D01*
X45030803Y-58745000D01*
X45248150Y-58701767D01*
X45452887Y-58616962D01*
X45637145Y-58493844D01*
X45793844Y-58337145D01*
X45916962Y-58152887D01*
X46001767Y-57948150D01*
X46045000Y-57730803D01*
X46045000Y-57509197D01*
X46335000Y-57509197D01*
X46335000Y-57730803D01*
X46378233Y-57948150D01*
X46463038Y-58152887D01*
X46586156Y-58337145D01*
X46742855Y-58493844D01*
X46927113Y-58616962D01*
X47131850Y-58701767D01*
X47349197Y-58745000D01*
X47570803Y-58745000D01*
X47788150Y-58701767D01*
X47992887Y-58616962D01*
X48177145Y-58493844D01*
X48333844Y-58337145D01*
X48456962Y-58152887D01*
X48541767Y-57948150D01*
X48585000Y-57730803D01*
X48585000Y-57509197D01*
X48875000Y-57509197D01*
X48875000Y-57730803D01*
X48918233Y-57948150D01*
X49003038Y-58152887D01*
X49126156Y-58337145D01*
X49282855Y-58493844D01*
X49467113Y-58616962D01*
X49671850Y-58701767D01*
X49889197Y-58745000D01*
X50110803Y-58745000D01*
X50328150Y-58701767D01*
X50532887Y-58616962D01*
X50717145Y-58493844D01*
X50873844Y-58337145D01*
X50996962Y-58152887D01*
X51081767Y-57948150D01*
X51125000Y-57730803D01*
X51125000Y-57509197D01*
X51415000Y-57509197D01*
X51415000Y-57730803D01*
X51458233Y-57948150D01*
X51543038Y-58152887D01*
X51666156Y-58337145D01*
X51822855Y-58493844D01*
X52007113Y-58616962D01*
X52211850Y-58701767D01*
X52429197Y-58745000D01*
X52650803Y-58745000D01*
X52868150Y-58701767D01*
X53072887Y-58616962D01*
X53257145Y-58493844D01*
X53413844Y-58337145D01*
X53536962Y-58152887D01*
X53621767Y-57948150D01*
X53665000Y-57730803D01*
X53665000Y-57509197D01*
X53621767Y-57291850D01*
X53536962Y-57087113D01*
X53413844Y-56902855D01*
X53257145Y-56746156D01*
X53072887Y-56623038D01*
X52868150Y-56538233D01*
X52650803Y-56495000D01*
X52429197Y-56495000D01*
X52211850Y-56538233D01*
X52007113Y-56623038D01*
X51822855Y-56746156D01*
X51666156Y-56902855D01*
X51543038Y-57087113D01*
X51458233Y-57291850D01*
X51415000Y-57509197D01*
X51125000Y-57509197D01*
X51081767Y-57291850D01*
X50996962Y-57087113D01*
X50873844Y-56902855D01*
X50717145Y-56746156D01*
X50532887Y-56623038D01*
X50328150Y-56538233D01*
X50110803Y-56495000D01*
X49889197Y-56495000D01*
X49671850Y-56538233D01*
X49467113Y-56623038D01*
X49282855Y-56746156D01*
X49126156Y-56902855D01*
X49003038Y-57087113D01*
X48918233Y-57291850D01*
X48875000Y-57509197D01*
X48585000Y-57509197D01*
X48541767Y-57291850D01*
X48456962Y-57087113D01*
X48333844Y-56902855D01*
X48177145Y-56746156D01*
X47992887Y-56623038D01*
X47788150Y-56538233D01*
X47570803Y-56495000D01*
X47349197Y-56495000D01*
X47131850Y-56538233D01*
X46927113Y-56623038D01*
X46742855Y-56746156D01*
X46586156Y-56902855D01*
X46463038Y-57087113D01*
X46378233Y-57291850D01*
X46335000Y-57509197D01*
X46045000Y-57509197D01*
X46001767Y-57291850D01*
X45916962Y-57087113D01*
X45793844Y-56902855D01*
X45637145Y-56746156D01*
X45452887Y-56623038D01*
X45248150Y-56538233D01*
X45030803Y-56495000D01*
X44809197Y-56495000D01*
X44591850Y-56538233D01*
X44387113Y-56623038D01*
X44202855Y-56746156D01*
X44046156Y-56902855D01*
X43923038Y-57087113D01*
X43838233Y-57291850D01*
X43795000Y-57509197D01*
X43505000Y-57509197D01*
X43461767Y-57291850D01*
X43376962Y-57087113D01*
X43253844Y-56902855D01*
X43097145Y-56746156D01*
X42912887Y-56623038D01*
X42708150Y-56538233D01*
X42490803Y-56495000D01*
X42269197Y-56495000D01*
X42051850Y-56538233D01*
X41847113Y-56623038D01*
X41662855Y-56746156D01*
X41506156Y-56902855D01*
X41383038Y-57087113D01*
X41298233Y-57291850D01*
X41255000Y-57509197D01*
X32250000Y-57509197D01*
X32250000Y-55346016D01*
X32351982Y-55244034D01*
X32436796Y-55117100D01*
X32495217Y-54976059D01*
X32525000Y-54826331D01*
X32525000Y-54673669D01*
X32495217Y-54523941D01*
X32436796Y-54382900D01*
X32351982Y-54255966D01*
X32250000Y-54153984D01*
X32250000Y-53479669D01*
X39573000Y-53479669D01*
X39573000Y-53632331D01*
X39602783Y-53782059D01*
X39661204Y-53923100D01*
X39746018Y-54050034D01*
X39853966Y-54157982D01*
X39980900Y-54242796D01*
X40121941Y-54301217D01*
X40271669Y-54331000D01*
X40424331Y-54331000D01*
X40574059Y-54301217D01*
X40599716Y-54290589D01*
X40576789Y-54345941D01*
X40547006Y-54495669D01*
X40547006Y-54648331D01*
X40576789Y-54798059D01*
X40635210Y-54939100D01*
X40720024Y-55066034D01*
X40827972Y-55173982D01*
X40954906Y-55258796D01*
X41095947Y-55317217D01*
X41245675Y-55347000D01*
X41398337Y-55347000D01*
X41548065Y-55317217D01*
X41689106Y-55258796D01*
X41816040Y-55173982D01*
X41868022Y-55122000D01*
X51804183Y-55122000D01*
X53994218Y-57312036D01*
X53955000Y-57509197D01*
X53955000Y-57730803D01*
X53998233Y-57948150D01*
X54083038Y-58152887D01*
X54206156Y-58337145D01*
X54362855Y-58493844D01*
X54547113Y-58616962D01*
X54751850Y-58701767D01*
X54969197Y-58745000D01*
X55190803Y-58745000D01*
X55408150Y-58701767D01*
X55612887Y-58616962D01*
X55797145Y-58493844D01*
X55953844Y-58337145D01*
X56076962Y-58152887D01*
X56161767Y-57948150D01*
X56205000Y-57730803D01*
X56205000Y-57509197D01*
X56161767Y-57291850D01*
X56076962Y-57087113D01*
X55953844Y-56902855D01*
X55797145Y-56746156D01*
X55612887Y-56623038D01*
X55408150Y-56538233D01*
X55190803Y-56495000D01*
X54969197Y-56495000D01*
X54772036Y-56534218D01*
X52440012Y-54202195D01*
X52422790Y-54181210D01*
X52339042Y-54112479D01*
X52326921Y-54106000D01*
X56376183Y-54106000D01*
X57070001Y-54799819D01*
X57070000Y-56634472D01*
X56902855Y-56746156D01*
X56746156Y-56902855D01*
X56623038Y-57087113D01*
X56538233Y-57291850D01*
X56495000Y-57509197D01*
X56495000Y-57730803D01*
X56538233Y-57948150D01*
X56623038Y-58152887D01*
X56746156Y-58337145D01*
X56902855Y-58493844D01*
X57087113Y-58616962D01*
X57291850Y-58701767D01*
X57509197Y-58745000D01*
X57730803Y-58745000D01*
X57948150Y-58701767D01*
X58152887Y-58616962D01*
X58337145Y-58493844D01*
X58493844Y-58337145D01*
X58616962Y-58152887D01*
X58701767Y-57948150D01*
X58745000Y-57730803D01*
X58745000Y-57509197D01*
X58701767Y-57291850D01*
X58616962Y-57087113D01*
X58493844Y-56902855D01*
X58337145Y-56746156D01*
X58170000Y-56634473D01*
X58170000Y-54599008D01*
X58172660Y-54572000D01*
X58170000Y-54544992D01*
X58170000Y-54544982D01*
X58162042Y-54464181D01*
X58130592Y-54360506D01*
X58090675Y-54285825D01*
X58079521Y-54264957D01*
X58028013Y-54202195D01*
X58028008Y-54202190D01*
X58010790Y-54181210D01*
X57989810Y-54163992D01*
X57012013Y-53186196D01*
X56994790Y-53165210D01*
X56911042Y-53096479D01*
X56815494Y-53045408D01*
X56711819Y-53013958D01*
X56631018Y-53006000D01*
X56631008Y-53006000D01*
X56604000Y-53003340D01*
X56576992Y-53006000D01*
X40894016Y-53006000D01*
X40842034Y-52954018D01*
X40715100Y-52869204D01*
X40574059Y-52810783D01*
X40424331Y-52781000D01*
X40271669Y-52781000D01*
X40121941Y-52810783D01*
X39980900Y-52869204D01*
X39853966Y-52954018D01*
X39746018Y-53061966D01*
X39661204Y-53188900D01*
X39602783Y-53329941D01*
X39573000Y-53479669D01*
X32250000Y-53479669D01*
X32250000Y-51846016D01*
X32351982Y-51744034D01*
X32436796Y-51617100D01*
X32495217Y-51476059D01*
X32525000Y-51326331D01*
X32525000Y-51173669D01*
X32495217Y-51023941D01*
X32436796Y-50882900D01*
X32351982Y-50755966D01*
X32250000Y-50653984D01*
X32250000Y-48346016D01*
X32351982Y-48244034D01*
X32398998Y-48173669D01*
X39475000Y-48173669D01*
X39475000Y-48326331D01*
X39504783Y-48476059D01*
X39563204Y-48617100D01*
X39648018Y-48744034D01*
X39755966Y-48851982D01*
X39882900Y-48936796D01*
X40023941Y-48995217D01*
X40173669Y-49025000D01*
X40326331Y-49025000D01*
X40476059Y-48995217D01*
X40617100Y-48936796D01*
X40744034Y-48851982D01*
X40796016Y-48800000D01*
X50222992Y-48800000D01*
X50250000Y-48802660D01*
X50277008Y-48800000D01*
X50277018Y-48800000D01*
X50357819Y-48792042D01*
X50461494Y-48760592D01*
X50557042Y-48709521D01*
X50640790Y-48640790D01*
X50658013Y-48619804D01*
X52909810Y-46368008D01*
X52930790Y-46350790D01*
X52948008Y-46329810D01*
X52948013Y-46329805D01*
X52999521Y-46267043D01*
X53050591Y-46171495D01*
X53050592Y-46171494D01*
X53082042Y-46067819D01*
X53090000Y-45987018D01*
X53090000Y-45987009D01*
X53092660Y-45960001D01*
X53090000Y-45932993D01*
X53090000Y-43365527D01*
X53257145Y-43253844D01*
X53413844Y-43097145D01*
X53536962Y-42912887D01*
X53621767Y-42708150D01*
X53665000Y-42490803D01*
X53665000Y-42269197D01*
X53955000Y-42269197D01*
X53955000Y-42490803D01*
X53998233Y-42708150D01*
X54083038Y-42912887D01*
X54206156Y-43097145D01*
X54362855Y-43253844D01*
X54547113Y-43376962D01*
X54751850Y-43461767D01*
X54969197Y-43505000D01*
X55190803Y-43505000D01*
X55408150Y-43461767D01*
X55612887Y-43376962D01*
X55797145Y-43253844D01*
X55953844Y-43097145D01*
X56076962Y-42912887D01*
X56161767Y-42708150D01*
X56205000Y-42490803D01*
X56205000Y-42269197D01*
X56495000Y-42269197D01*
X56495000Y-42490803D01*
X56538233Y-42708150D01*
X56623038Y-42912887D01*
X56746156Y-43097145D01*
X56902855Y-43253844D01*
X57087113Y-43376962D01*
X57291850Y-43461767D01*
X57509197Y-43505000D01*
X57730803Y-43505000D01*
X57948150Y-43461767D01*
X58152887Y-43376962D01*
X58337145Y-43253844D01*
X58493844Y-43097145D01*
X58616962Y-42912887D01*
X58701767Y-42708150D01*
X58745000Y-42490803D01*
X58745000Y-42269197D01*
X58701767Y-42051850D01*
X58616962Y-41847113D01*
X58493844Y-41662855D01*
X58337145Y-41506156D01*
X58152887Y-41383038D01*
X57948150Y-41298233D01*
X57730803Y-41255000D01*
X57509197Y-41255000D01*
X57291850Y-41298233D01*
X57087113Y-41383038D01*
X56902855Y-41506156D01*
X56746156Y-41662855D01*
X56623038Y-41847113D01*
X56538233Y-42051850D01*
X56495000Y-42269197D01*
X56205000Y-42269197D01*
X56161767Y-42051850D01*
X56076962Y-41847113D01*
X55953844Y-41662855D01*
X55797145Y-41506156D01*
X55612887Y-41383038D01*
X55408150Y-41298233D01*
X55190803Y-41255000D01*
X54969197Y-41255000D01*
X54751850Y-41298233D01*
X54547113Y-41383038D01*
X54362855Y-41506156D01*
X54206156Y-41662855D01*
X54083038Y-41847113D01*
X53998233Y-42051850D01*
X53955000Y-42269197D01*
X53665000Y-42269197D01*
X53621767Y-42051850D01*
X53536962Y-41847113D01*
X53413844Y-41662855D01*
X53257145Y-41506156D01*
X53072887Y-41383038D01*
X52868150Y-41298233D01*
X52650803Y-41255000D01*
X52429197Y-41255000D01*
X52211850Y-41298233D01*
X52007113Y-41383038D01*
X51822855Y-41506156D01*
X51666156Y-41662855D01*
X51543038Y-41847113D01*
X51458233Y-42051850D01*
X51415000Y-42269197D01*
X51415000Y-42490803D01*
X51458233Y-42708150D01*
X51543038Y-42912887D01*
X51666156Y-43097145D01*
X51822855Y-43253844D01*
X51990000Y-43365528D01*
X51990001Y-45732181D01*
X50022183Y-47700000D01*
X40796016Y-47700000D01*
X40744034Y-47648018D01*
X40617100Y-47563204D01*
X40476059Y-47504783D01*
X40326331Y-47475000D01*
X40173669Y-47475000D01*
X40023941Y-47504783D01*
X39882900Y-47563204D01*
X39755966Y-47648018D01*
X39648018Y-47755966D01*
X39563204Y-47882900D01*
X39504783Y-48023941D01*
X39475000Y-48173669D01*
X32398998Y-48173669D01*
X32436796Y-48117100D01*
X32495217Y-47976059D01*
X32525000Y-47826331D01*
X32525000Y-47673669D01*
X32495217Y-47523941D01*
X32436796Y-47382900D01*
X32351982Y-47255966D01*
X32250000Y-47153984D01*
X32250000Y-46173669D01*
X39475000Y-46173669D01*
X39475000Y-46326331D01*
X39504783Y-46476059D01*
X39563204Y-46617100D01*
X39648018Y-46744034D01*
X39755966Y-46851982D01*
X39882900Y-46936796D01*
X40023941Y-46995217D01*
X40173669Y-47025000D01*
X40326331Y-47025000D01*
X40476059Y-46995217D01*
X40617100Y-46936796D01*
X40744034Y-46851982D01*
X40796016Y-46800000D01*
X48472992Y-46800000D01*
X48500000Y-46802660D01*
X48527008Y-46800000D01*
X48527018Y-46800000D01*
X48607819Y-46792042D01*
X48711494Y-46760592D01*
X48807042Y-46709521D01*
X48890790Y-46640790D01*
X48908013Y-46619804D01*
X50369810Y-45158008D01*
X50390790Y-45140790D01*
X50408008Y-45119810D01*
X50408013Y-45119805D01*
X50459520Y-45057043D01*
X50459521Y-45057042D01*
X50510592Y-44961494D01*
X50542042Y-44857819D01*
X50550000Y-44777018D01*
X50550000Y-44777009D01*
X50552660Y-44750001D01*
X50550000Y-44722993D01*
X50550000Y-43365527D01*
X50717145Y-43253844D01*
X50873844Y-43097145D01*
X50996962Y-42912887D01*
X51081767Y-42708150D01*
X51125000Y-42490803D01*
X51125000Y-42269197D01*
X51081767Y-42051850D01*
X50996962Y-41847113D01*
X50873844Y-41662855D01*
X50717145Y-41506156D01*
X50532887Y-41383038D01*
X50328150Y-41298233D01*
X50110803Y-41255000D01*
X49889197Y-41255000D01*
X49671850Y-41298233D01*
X49467113Y-41383038D01*
X49282855Y-41506156D01*
X49126156Y-41662855D01*
X49003038Y-41847113D01*
X48918233Y-42051850D01*
X48875000Y-42269197D01*
X48875000Y-42490803D01*
X48918233Y-42708150D01*
X49003038Y-42912887D01*
X49126156Y-43097145D01*
X49282855Y-43253844D01*
X49450000Y-43365528D01*
X49450001Y-44522181D01*
X48272183Y-45700000D01*
X40796016Y-45700000D01*
X40744034Y-45648018D01*
X40617100Y-45563204D01*
X40476059Y-45504783D01*
X40326331Y-45475000D01*
X40173669Y-45475000D01*
X40023941Y-45504783D01*
X39882900Y-45563204D01*
X39755966Y-45648018D01*
X39648018Y-45755966D01*
X39563204Y-45882900D01*
X39504783Y-46023941D01*
X39475000Y-46173669D01*
X32250000Y-46173669D01*
X32250000Y-44846016D01*
X32351982Y-44744034D01*
X32436796Y-44617100D01*
X32495217Y-44476059D01*
X32525000Y-44326331D01*
X32525000Y-44173669D01*
X32495217Y-44023941D01*
X32436796Y-43882900D01*
X32351982Y-43755966D01*
X32244034Y-43648018D01*
X32117100Y-43563204D01*
X31976059Y-43504783D01*
X31826331Y-43475000D01*
X31673669Y-43475000D01*
X31523941Y-43504783D01*
X31382900Y-43563204D01*
X31255966Y-43648018D01*
X31148018Y-43755966D01*
X31063204Y-43882900D01*
X31004783Y-44023941D01*
X30975000Y-44173669D01*
X24050000Y-44173669D01*
X24050000Y-42269197D01*
X41255000Y-42269197D01*
X41255000Y-42490803D01*
X41298233Y-42708150D01*
X41383038Y-42912887D01*
X41506156Y-43097145D01*
X41662855Y-43253844D01*
X41847113Y-43376962D01*
X42051850Y-43461767D01*
X42269197Y-43505000D01*
X42490803Y-43505000D01*
X42708150Y-43461767D01*
X42912887Y-43376962D01*
X43097145Y-43253844D01*
X43253844Y-43097145D01*
X43376962Y-42912887D01*
X43461767Y-42708150D01*
X43505000Y-42490803D01*
X43505000Y-42269197D01*
X43795000Y-42269197D01*
X43795000Y-42490803D01*
X43838233Y-42708150D01*
X43923038Y-42912887D01*
X44046156Y-43097145D01*
X44202855Y-43253844D01*
X44387113Y-43376962D01*
X44591850Y-43461767D01*
X44809197Y-43505000D01*
X45030803Y-43505000D01*
X45248150Y-43461767D01*
X45452887Y-43376962D01*
X45637145Y-43253844D01*
X45793844Y-43097145D01*
X45916962Y-42912887D01*
X46001767Y-42708150D01*
X46045000Y-42490803D01*
X46045000Y-42269197D01*
X46335000Y-42269197D01*
X46335000Y-42490803D01*
X46378233Y-42708150D01*
X46463038Y-42912887D01*
X46586156Y-43097145D01*
X46742855Y-43253844D01*
X46927113Y-43376962D01*
X47131850Y-43461767D01*
X47349197Y-43505000D01*
X47570803Y-43505000D01*
X47788150Y-43461767D01*
X47992887Y-43376962D01*
X48177145Y-43253844D01*
X48333844Y-43097145D01*
X48456962Y-42912887D01*
X48541767Y-42708150D01*
X48585000Y-42490803D01*
X48585000Y-42269197D01*
X48541767Y-42051850D01*
X48456962Y-41847113D01*
X48333844Y-41662855D01*
X48177145Y-41506156D01*
X47992887Y-41383038D01*
X47788150Y-41298233D01*
X47570803Y-41255000D01*
X47349197Y-41255000D01*
X47131850Y-41298233D01*
X46927113Y-41383038D01*
X46742855Y-41506156D01*
X46586156Y-41662855D01*
X46463038Y-41847113D01*
X46378233Y-42051850D01*
X46335000Y-42269197D01*
X46045000Y-42269197D01*
X46001767Y-42051850D01*
X45916962Y-41847113D01*
X45793844Y-41662855D01*
X45637145Y-41506156D01*
X45452887Y-41383038D01*
X45248150Y-41298233D01*
X45030803Y-41255000D01*
X44809197Y-41255000D01*
X44591850Y-41298233D01*
X44387113Y-41383038D01*
X44202855Y-41506156D01*
X44046156Y-41662855D01*
X43923038Y-41847113D01*
X43838233Y-42051850D01*
X43795000Y-42269197D01*
X43505000Y-42269197D01*
X43461767Y-42051850D01*
X43376962Y-41847113D01*
X43253844Y-41662855D01*
X43097145Y-41506156D01*
X42912887Y-41383038D01*
X42708150Y-41298233D01*
X42490803Y-41255000D01*
X42269197Y-41255000D01*
X42051850Y-41298233D01*
X41847113Y-41383038D01*
X41662855Y-41506156D01*
X41506156Y-41662855D01*
X41383038Y-41847113D01*
X41298233Y-42051850D01*
X41255000Y-42269197D01*
X24050000Y-42269197D01*
X24050000Y-33761817D01*
X24226738Y-33585079D01*
X24254781Y-33726059D01*
X24313202Y-33867100D01*
X24398016Y-33994034D01*
X24505964Y-34101982D01*
X24632898Y-34186796D01*
X24773939Y-34245217D01*
X24923667Y-34275000D01*
X25039212Y-34275000D01*
X25039212Y-34326331D01*
X25068995Y-34476059D01*
X25127416Y-34617100D01*
X25212230Y-34744034D01*
X25320178Y-34851982D01*
X25447112Y-34936796D01*
X25588153Y-34995217D01*
X25737881Y-35025000D01*
X25882107Y-35025000D01*
X29391904Y-38534799D01*
X26036581Y-38534799D01*
X25988077Y-38417699D01*
X25903263Y-38290765D01*
X25795315Y-38182817D01*
X25668381Y-38098003D01*
X25527340Y-38039582D01*
X25377612Y-38009799D01*
X25224950Y-38009799D01*
X25075222Y-38039582D01*
X24934181Y-38098003D01*
X24807247Y-38182817D01*
X24699299Y-38290765D01*
X24614485Y-38417699D01*
X24556064Y-38558740D01*
X24526281Y-38708468D01*
X24526281Y-38861130D01*
X24556064Y-39010858D01*
X24614485Y-39151899D01*
X24699299Y-39278833D01*
X24807247Y-39386781D01*
X24934181Y-39471595D01*
X25075222Y-39530016D01*
X25224950Y-39559799D01*
X25377612Y-39559799D01*
X25511053Y-39533256D01*
X25526721Y-39534799D01*
X25526730Y-39534799D01*
X25551280Y-39537217D01*
X25575830Y-39534799D01*
X54940641Y-39534799D01*
X54965201Y-39537218D01*
X54989761Y-39534799D01*
X55063218Y-39527564D01*
X55157468Y-39498974D01*
X55244330Y-39452545D01*
X55320465Y-39390063D01*
X55336130Y-39370975D01*
X57007107Y-37700000D01*
X57588110Y-37700000D01*
X57590426Y-37723513D01*
X57611869Y-37794200D01*
X57646691Y-37859347D01*
X57693552Y-37916448D01*
X57750653Y-37963309D01*
X57815800Y-37998131D01*
X57886487Y-38019574D01*
X57960000Y-38026814D01*
X59460000Y-38026814D01*
X59533513Y-38019574D01*
X59604200Y-37998131D01*
X59669347Y-37963309D01*
X59726448Y-37916448D01*
X59773309Y-37859347D01*
X59808131Y-37794200D01*
X59829574Y-37723513D01*
X59831890Y-37700000D01*
X64759377Y-37700000D01*
X65301281Y-38241905D01*
X65301281Y-38438783D01*
X65199299Y-38540765D01*
X65114485Y-38667699D01*
X65056064Y-38808740D01*
X65026281Y-38958468D01*
X65026281Y-39111130D01*
X65056064Y-39260858D01*
X65114485Y-39401899D01*
X65199299Y-39528833D01*
X65307247Y-39636781D01*
X65434181Y-39721595D01*
X65575222Y-39780016D01*
X65724950Y-39809799D01*
X65877612Y-39809799D01*
X66027340Y-39780016D01*
X66168381Y-39721595D01*
X66295315Y-39636781D01*
X66403263Y-39528833D01*
X66488077Y-39401899D01*
X66546498Y-39260858D01*
X66576281Y-39111130D01*
X66576281Y-38958468D01*
X66546498Y-38808740D01*
X66488077Y-38667699D01*
X66403263Y-38540765D01*
X66301281Y-38438783D01*
X66301281Y-38059356D01*
X66303700Y-38034798D01*
X66300088Y-37998131D01*
X66294046Y-37936782D01*
X66265456Y-37842532D01*
X66219027Y-37755670D01*
X66156545Y-37679535D01*
X66137462Y-37663874D01*
X65337411Y-36863824D01*
X65321746Y-36844736D01*
X65245611Y-36782254D01*
X65158749Y-36735825D01*
X65064499Y-36707235D01*
X64991042Y-36700000D01*
X64966482Y-36697581D01*
X64941922Y-36700000D01*
X59831890Y-36700000D01*
X59829574Y-36676487D01*
X59808131Y-36605800D01*
X59773309Y-36540653D01*
X59726448Y-36483552D01*
X59685564Y-36450000D01*
X59726448Y-36416448D01*
X59773309Y-36359347D01*
X59808131Y-36294200D01*
X59829574Y-36223513D01*
X59831890Y-36200000D01*
X67525440Y-36200000D01*
X67550000Y-36202419D01*
X67574560Y-36200000D01*
X67648017Y-36192765D01*
X67742267Y-36164175D01*
X67829129Y-36117746D01*
X67905264Y-36055264D01*
X67920929Y-36036176D01*
X69637468Y-34319639D01*
X69656545Y-34303983D01*
X69719027Y-34227848D01*
X69765456Y-34140986D01*
X69794046Y-34046736D01*
X69801281Y-33973279D01*
X69801281Y-33973270D01*
X69803699Y-33948720D01*
X69801281Y-33924170D01*
X69801281Y-31130815D01*
X69903263Y-31028833D01*
X69988077Y-30901899D01*
X70046498Y-30760858D01*
X70076281Y-30611130D01*
X70076281Y-30458468D01*
X70046498Y-30308740D01*
X69988077Y-30167699D01*
X69903263Y-30040765D01*
X69795315Y-29932817D01*
X69668381Y-29848003D01*
X69527340Y-29789582D01*
X69377612Y-29759799D01*
X69224950Y-29759799D01*
X69075222Y-29789582D01*
X68934181Y-29848003D01*
X68807247Y-29932817D01*
X68801281Y-29938783D01*
X68801281Y-22301429D01*
X68803699Y-22276879D01*
X68801281Y-22252329D01*
X68801281Y-22252320D01*
X68794046Y-22178863D01*
X68765456Y-22084613D01*
X68719027Y-21997751D01*
X68656545Y-21921616D01*
X68637467Y-21905959D01*
X68347741Y-21616234D01*
X68542173Y-21486318D01*
X68712800Y-21315691D01*
X68846862Y-21115054D01*
X68939205Y-20892118D01*
X68986281Y-20655451D01*
X68986281Y-20414147D01*
X68939205Y-20177480D01*
X68846862Y-19954544D01*
X68712800Y-19753907D01*
X68643692Y-19684799D01*
X69074467Y-19684799D01*
X69074467Y-21384799D01*
X69081707Y-21458312D01*
X69103150Y-21528999D01*
X69137972Y-21594146D01*
X69184833Y-21651247D01*
X69241934Y-21698108D01*
X69307081Y-21732930D01*
X69377768Y-21754373D01*
X69451281Y-21761613D01*
X71151281Y-21761613D01*
X71224794Y-21754373D01*
X71295481Y-21732930D01*
X71360628Y-21698108D01*
X71417729Y-21651247D01*
X71464590Y-21594146D01*
X71499412Y-21528999D01*
X71520855Y-21458312D01*
X71528095Y-21384799D01*
X71528095Y-21084799D01*
X72056982Y-21084799D01*
X73450000Y-22477817D01*
X73450001Y-28972982D01*
X73447340Y-29000000D01*
X73450001Y-29027018D01*
X73457959Y-29107819D01*
X73485922Y-29200000D01*
X73489409Y-29211494D01*
X73540479Y-29307042D01*
X73591987Y-29369804D01*
X73591993Y-29369810D01*
X73609211Y-29390790D01*
X73630191Y-29408008D01*
X73841987Y-29619804D01*
X73859210Y-29640790D01*
X73942958Y-29709521D01*
X74038506Y-29760592D01*
X74142181Y-29792042D01*
X74222982Y-29800000D01*
X74222991Y-29800000D01*
X74249999Y-29802660D01*
X74277007Y-29800000D01*
X74523186Y-29800000D01*
X74523186Y-29900002D01*
X74535230Y-30022287D01*
X74570899Y-30139873D01*
X74628823Y-30248240D01*
X74706775Y-30343225D01*
X74801760Y-30421177D01*
X74910127Y-30479101D01*
X74979022Y-30500000D01*
X74910127Y-30520899D01*
X74801760Y-30578823D01*
X74706775Y-30656775D01*
X74628823Y-30751760D01*
X74570899Y-30860127D01*
X74535230Y-30977713D01*
X74523186Y-31099998D01*
X74523186Y-32400002D01*
X74535230Y-32522287D01*
X74570899Y-32639873D01*
X74628823Y-32748240D01*
X74706775Y-32843225D01*
X74801760Y-32921177D01*
X74910127Y-32979101D01*
X75012501Y-33010155D01*
X75012501Y-33950020D01*
X74796016Y-33950020D01*
X74744034Y-33898038D01*
X74617100Y-33813224D01*
X74476059Y-33754803D01*
X74326331Y-33725020D01*
X74173669Y-33725020D01*
X74023941Y-33754803D01*
X73882900Y-33813224D01*
X73755966Y-33898038D01*
X73648018Y-34005986D01*
X73563204Y-34132920D01*
X73504783Y-34273961D01*
X73475000Y-34423689D01*
X73475000Y-34576351D01*
X73504783Y-34726079D01*
X73563204Y-34867120D01*
X73648018Y-34994054D01*
X73755966Y-35102002D01*
X73882900Y-35186816D01*
X74023941Y-35245237D01*
X74173669Y-35275020D01*
X74326331Y-35275020D01*
X74476059Y-35245237D01*
X74617100Y-35186816D01*
X74744034Y-35102002D01*
X74796016Y-35050020D01*
X75222972Y-35050020D01*
X75249980Y-35052680D01*
X75276988Y-35050020D01*
X75276998Y-35050020D01*
X75357799Y-35042062D01*
X75461474Y-35010612D01*
X75556828Y-34959645D01*
X75766987Y-35169804D01*
X75784210Y-35190790D01*
X75805196Y-35208013D01*
X75867958Y-35259521D01*
X75963505Y-35310592D01*
X76067181Y-35342042D01*
X76147982Y-35350000D01*
X76147989Y-35350000D01*
X76175000Y-35352660D01*
X76202011Y-35350000D01*
X80236961Y-35350000D01*
X80301487Y-35369574D01*
X80375000Y-35376814D01*
X81625000Y-35376814D01*
X81698513Y-35369574D01*
X81769200Y-35348131D01*
X81834347Y-35313309D01*
X81891448Y-35266448D01*
X81938309Y-35209347D01*
X81973131Y-35144200D01*
X81994574Y-35073513D01*
X82001814Y-35000000D01*
X82001814Y-34600000D01*
X81994574Y-34526487D01*
X81978955Y-34475000D01*
X81994574Y-34423513D01*
X82001814Y-34350000D01*
X82001814Y-33950000D01*
X81994574Y-33876487D01*
X81978955Y-33825000D01*
X81994574Y-33773513D01*
X82001814Y-33700000D01*
X82001814Y-33300000D01*
X81994574Y-33226487D01*
X81978955Y-33175000D01*
X81994574Y-33123513D01*
X82001814Y-33050000D01*
X82001814Y-32650000D01*
X81994574Y-32576487D01*
X81973131Y-32505800D01*
X81938309Y-32440653D01*
X81891448Y-32383552D01*
X81834347Y-32336691D01*
X81769200Y-32301869D01*
X81698513Y-32280426D01*
X81625000Y-32273186D01*
X80375000Y-32273186D01*
X80301487Y-32280426D01*
X80230800Y-32301869D01*
X80165653Y-32336691D01*
X80108552Y-32383552D01*
X80061691Y-32440653D01*
X80026869Y-32505800D01*
X80005426Y-32576487D01*
X79998186Y-32650000D01*
X79998186Y-33050000D01*
X80005426Y-33123513D01*
X80021045Y-33175000D01*
X80005426Y-33226487D01*
X79998186Y-33300000D01*
X79998186Y-33700000D01*
X80005426Y-33773513D01*
X80021045Y-33825000D01*
X80005426Y-33876487D01*
X79998186Y-33950000D01*
X79998186Y-34250000D01*
X76402817Y-34250000D01*
X76112500Y-33959683D01*
X76112500Y-33010155D01*
X76214873Y-32979101D01*
X76323240Y-32921177D01*
X76418225Y-32843225D01*
X76496177Y-32748240D01*
X76554101Y-32639873D01*
X76589770Y-32522287D01*
X76601814Y-32400002D01*
X76601814Y-31099998D01*
X76589770Y-30977713D01*
X76554101Y-30860127D01*
X76496177Y-30751760D01*
X76418225Y-30656775D01*
X76323240Y-30578823D01*
X76214873Y-30520899D01*
X76145978Y-30500000D01*
X76214873Y-30479101D01*
X76323240Y-30421177D01*
X76418225Y-30343225D01*
X76496177Y-30248240D01*
X76554101Y-30139873D01*
X76589770Y-30022287D01*
X76601814Y-29900002D01*
X76601814Y-28599998D01*
X76589770Y-28477713D01*
X76558613Y-28375000D01*
X78250000Y-28375000D01*
X78323159Y-28367794D01*
X78393506Y-28346455D01*
X78458339Y-28311801D01*
X78515165Y-28265165D01*
X79265165Y-27515165D01*
X79311801Y-27458339D01*
X79346455Y-27393506D01*
X79367794Y-27323159D01*
X79375000Y-27250000D01*
X79375000Y-26250000D01*
X79367794Y-26176841D01*
X79346455Y-26106494D01*
X79311801Y-26041661D01*
X79265165Y-25984835D01*
X78125000Y-24844670D01*
X78125000Y-23000000D01*
X78117794Y-22926841D01*
X78096455Y-22856494D01*
X78061801Y-22791661D01*
X78015165Y-22734835D01*
X77765165Y-22484835D01*
X77708339Y-22438199D01*
X77643506Y-22403545D01*
X77573159Y-22382206D01*
X77500000Y-22375000D01*
X75000000Y-22375000D01*
X74926841Y-22382206D01*
X74856494Y-22403545D01*
X74791661Y-22438199D01*
X74734835Y-22484835D01*
X74550000Y-22669670D01*
X74550000Y-22277011D01*
X74552660Y-22250000D01*
X74550000Y-22222989D01*
X74550000Y-22222982D01*
X74542042Y-22142181D01*
X74510592Y-22038506D01*
X74459521Y-21942958D01*
X74390790Y-21859210D01*
X74369804Y-21841987D01*
X72692812Y-20164995D01*
X72675589Y-20144009D01*
X72591841Y-20075278D01*
X72496293Y-20024207D01*
X72392618Y-19992757D01*
X72311817Y-19984799D01*
X72311807Y-19984799D01*
X72284799Y-19982139D01*
X72257791Y-19984799D01*
X71528095Y-19984799D01*
X71528095Y-19684799D01*
X71520855Y-19611286D01*
X71499412Y-19540599D01*
X71464590Y-19475452D01*
X71417729Y-19418351D01*
X71360628Y-19371490D01*
X71295481Y-19336668D01*
X71224794Y-19315225D01*
X71151281Y-19307985D01*
X69451281Y-19307985D01*
X69377768Y-19315225D01*
X69307081Y-19336668D01*
X69241934Y-19371490D01*
X69184833Y-19418351D01*
X69137972Y-19475452D01*
X69103150Y-19540599D01*
X69081707Y-19611286D01*
X69074467Y-19684799D01*
X68643692Y-19684799D01*
X68542173Y-19583280D01*
X68341536Y-19449218D01*
X68118600Y-19356875D01*
X67881933Y-19309799D01*
X67640629Y-19309799D01*
X67403962Y-19356875D01*
X67181026Y-19449218D01*
X66980389Y-19583280D01*
X66809762Y-19753907D01*
X66675700Y-19954544D01*
X66583357Y-20177480D01*
X66536281Y-20414147D01*
X66536281Y-20655451D01*
X66583357Y-20892118D01*
X66675700Y-21115054D01*
X66809762Y-21315691D01*
X66980389Y-21486318D01*
X67181026Y-21620380D01*
X67261281Y-21653623D01*
X67261281Y-21712320D01*
X67258862Y-21736880D01*
X67262617Y-21775000D01*
X67268516Y-21834896D01*
X67297106Y-21929146D01*
X67343535Y-22016009D01*
X67406017Y-22092144D01*
X67425104Y-22107809D01*
X67801282Y-22483987D01*
X67801281Y-29205239D01*
X67744034Y-29147992D01*
X67617100Y-29063178D01*
X67476059Y-29004757D01*
X67326331Y-28974974D01*
X67182106Y-28974974D01*
X65721281Y-27514150D01*
X65721281Y-21653623D01*
X65801536Y-21620380D01*
X66002173Y-21486318D01*
X66172800Y-21315691D01*
X66306862Y-21115054D01*
X66399205Y-20892118D01*
X66446281Y-20655451D01*
X66446281Y-20414147D01*
X66399205Y-20177480D01*
X66306862Y-19954544D01*
X66172800Y-19753907D01*
X66002173Y-19583280D01*
X65801536Y-19449218D01*
X65578600Y-19356875D01*
X65341933Y-19309799D01*
X65100629Y-19309799D01*
X64863962Y-19356875D01*
X64641026Y-19449218D01*
X64440389Y-19583280D01*
X64269762Y-19753907D01*
X64135700Y-19954544D01*
X64043357Y-20177480D01*
X63996281Y-20414147D01*
X63996281Y-20655451D01*
X64043357Y-20892118D01*
X64135700Y-21115054D01*
X64269762Y-21315691D01*
X64440389Y-21486318D01*
X64641026Y-21620380D01*
X64721281Y-21653623D01*
X64721282Y-27696685D01*
X64718862Y-27721255D01*
X64728516Y-27819272D01*
X64751035Y-27893506D01*
X64757107Y-27913522D01*
X64803536Y-28000384D01*
X64866018Y-28076519D01*
X64885100Y-28092179D01*
X66475000Y-29682080D01*
X66475000Y-29826305D01*
X66504783Y-29976033D01*
X66563204Y-30117074D01*
X66648018Y-30244008D01*
X66755966Y-30351956D01*
X66882900Y-30436770D01*
X67023941Y-30495191D01*
X67173669Y-30524974D01*
X67326331Y-30524974D01*
X67476059Y-30495191D01*
X67617100Y-30436770D01*
X67744034Y-30351956D01*
X67801281Y-30294709D01*
X67801281Y-32991612D01*
X66944572Y-33848322D01*
X66995215Y-33726059D01*
X67024998Y-33576331D01*
X67024998Y-33423669D01*
X66995215Y-33273941D01*
X66936794Y-33132900D01*
X66851980Y-33005966D01*
X66744032Y-32898018D01*
X66617098Y-32813204D01*
X66476057Y-32754783D01*
X66326329Y-32725000D01*
X66182104Y-32725000D01*
X64320927Y-30863824D01*
X64305262Y-30844736D01*
X64229127Y-30782254D01*
X64142265Y-30735825D01*
X64048015Y-30707235D01*
X63974558Y-30700000D01*
X63949998Y-30697581D01*
X63925438Y-30700000D01*
X59831890Y-30700000D01*
X59829574Y-30676487D01*
X59808131Y-30605800D01*
X59773309Y-30540653D01*
X59726448Y-30483552D01*
X59685564Y-30450000D01*
X59726448Y-30416448D01*
X59773309Y-30359347D01*
X59808131Y-30294200D01*
X59829574Y-30223513D01*
X59836814Y-30150000D01*
X59836814Y-29250000D01*
X59829574Y-29176487D01*
X59808131Y-29105800D01*
X59773309Y-29040653D01*
X59726448Y-28983552D01*
X59685564Y-28950000D01*
X59726448Y-28916448D01*
X59773309Y-28859347D01*
X59808131Y-28794200D01*
X59829574Y-28723513D01*
X59836814Y-28650000D01*
X59836814Y-27750000D01*
X59829574Y-27676487D01*
X59808131Y-27605800D01*
X59773309Y-27540653D01*
X59726448Y-27483552D01*
X59685564Y-27450000D01*
X59726448Y-27416448D01*
X59773309Y-27359347D01*
X59808131Y-27294200D01*
X59829574Y-27223513D01*
X59831890Y-27200000D01*
X60353984Y-27200000D01*
X60455966Y-27301982D01*
X60582900Y-27386796D01*
X60723941Y-27445217D01*
X60873669Y-27475000D01*
X61026331Y-27475000D01*
X61176059Y-27445217D01*
X61317100Y-27386796D01*
X61444034Y-27301982D01*
X61551982Y-27194034D01*
X61636796Y-27067100D01*
X61695217Y-26926059D01*
X61725000Y-26776331D01*
X61725000Y-26623669D01*
X61695217Y-26473941D01*
X61636796Y-26332900D01*
X61551982Y-26205966D01*
X61444034Y-26098018D01*
X61317100Y-26013204D01*
X61176059Y-25954783D01*
X61026331Y-25925000D01*
X60873669Y-25925000D01*
X60723941Y-25954783D01*
X60582900Y-26013204D01*
X60455966Y-26098018D01*
X60353984Y-26200000D01*
X59831890Y-26200000D01*
X59829574Y-26176487D01*
X59808131Y-26105800D01*
X59773309Y-26040653D01*
X59726448Y-25983552D01*
X59669347Y-25936691D01*
X59604200Y-25901869D01*
X59533513Y-25880426D01*
X59460000Y-25873186D01*
X57960000Y-25873186D01*
X57886487Y-25880426D01*
X57815800Y-25901869D01*
X57750653Y-25936691D01*
X57693552Y-25983552D01*
X57646691Y-26040653D01*
X57611869Y-26105800D01*
X57590426Y-26176487D01*
X57583186Y-26250000D01*
X57583186Y-27150000D01*
X57590426Y-27223513D01*
X57611869Y-27294200D01*
X57646691Y-27359347D01*
X57693552Y-27416448D01*
X57734436Y-27450000D01*
X57693552Y-27483552D01*
X57646691Y-27540653D01*
X57611869Y-27605800D01*
X57590426Y-27676487D01*
X57583186Y-27750000D01*
X57583186Y-28650000D01*
X57590426Y-28723513D01*
X57611869Y-28794200D01*
X57646691Y-28859347D01*
X57693552Y-28916448D01*
X57734436Y-28950000D01*
X57693552Y-28983552D01*
X57646691Y-29040653D01*
X57611869Y-29105800D01*
X57590426Y-29176487D01*
X57583186Y-29250000D01*
X57583186Y-30150000D01*
X57590426Y-30223513D01*
X57611869Y-30294200D01*
X57646691Y-30359347D01*
X57693552Y-30416448D01*
X57734436Y-30450000D01*
X57693552Y-30483552D01*
X57646691Y-30540653D01*
X57611869Y-30605800D01*
X57590426Y-30676487D01*
X57588110Y-30700000D01*
X56910640Y-30700000D01*
X56886080Y-30697581D01*
X56861520Y-30700000D01*
X56788063Y-30707235D01*
X56693813Y-30735825D01*
X56606951Y-30782254D01*
X56530816Y-30844736D01*
X56515160Y-30863814D01*
X55965104Y-31413870D01*
X55946017Y-31429535D01*
X55883535Y-31505670D01*
X55837106Y-31592533D01*
X55819674Y-31650000D01*
X55808516Y-31686782D01*
X55798862Y-31784799D01*
X55801281Y-31809359D01*
X55801282Y-35327691D01*
X53344176Y-37784799D01*
X30056118Y-37784799D01*
X26589212Y-34317895D01*
X26589212Y-34173669D01*
X26559429Y-34023941D01*
X26501008Y-33882900D01*
X26416194Y-33755966D01*
X26308246Y-33648018D01*
X26181312Y-33563204D01*
X26040271Y-33504783D01*
X25890543Y-33475000D01*
X25774998Y-33475000D01*
X25774998Y-33432105D01*
X29007105Y-30200000D01*
X31504572Y-30200000D01*
X31475000Y-30348669D01*
X31475000Y-30501331D01*
X31504783Y-30651059D01*
X31563204Y-30792100D01*
X31648018Y-30919034D01*
X31755966Y-31026982D01*
X31882900Y-31111796D01*
X32023941Y-31170217D01*
X32173669Y-31200000D01*
X32247183Y-31200000D01*
X35616992Y-34569810D01*
X35634210Y-34590790D01*
X35655190Y-34608008D01*
X35655195Y-34608013D01*
X35702727Y-34647021D01*
X35717958Y-34659521D01*
X35813506Y-34710592D01*
X35917181Y-34742042D01*
X35997982Y-34750000D01*
X35997991Y-34750000D01*
X36024999Y-34752660D01*
X36052007Y-34750000D01*
X40098461Y-34750000D01*
X40111869Y-34794200D01*
X40146691Y-34859347D01*
X40193552Y-34916448D01*
X40234436Y-34950000D01*
X40193552Y-34983552D01*
X40146691Y-35040653D01*
X40111869Y-35105800D01*
X40098461Y-35150000D01*
X39846042Y-35150000D01*
X39794047Y-35098005D01*
X39667113Y-35013191D01*
X39526072Y-34954770D01*
X39376344Y-34924987D01*
X39223682Y-34924987D01*
X39073954Y-34954770D01*
X38932913Y-35013191D01*
X38805979Y-35098005D01*
X38698031Y-35205953D01*
X38613217Y-35332887D01*
X38554796Y-35473928D01*
X38525013Y-35623656D01*
X38525013Y-35776318D01*
X38554796Y-35926046D01*
X38613217Y-36067087D01*
X38698031Y-36194021D01*
X38805979Y-36301969D01*
X38932913Y-36386783D01*
X39073954Y-36445204D01*
X39223682Y-36474987D01*
X39376344Y-36474987D01*
X39526072Y-36445204D01*
X39667113Y-36386783D01*
X39794047Y-36301969D01*
X39846016Y-36250000D01*
X40098461Y-36250000D01*
X40111869Y-36294200D01*
X40146691Y-36359347D01*
X40193552Y-36416448D01*
X40250653Y-36463309D01*
X40315800Y-36498131D01*
X40386487Y-36519574D01*
X40460000Y-36526814D01*
X41960000Y-36526814D01*
X42033513Y-36519574D01*
X42104200Y-36498131D01*
X42169347Y-36463309D01*
X42226448Y-36416448D01*
X42273309Y-36359347D01*
X42308131Y-36294200D01*
X42329574Y-36223513D01*
X42336814Y-36150000D01*
X42336814Y-35250000D01*
X42329574Y-35176487D01*
X42308131Y-35105800D01*
X42273309Y-35040653D01*
X42226448Y-34983552D01*
X42185564Y-34950000D01*
X42226448Y-34916448D01*
X42273309Y-34859347D01*
X42308131Y-34794200D01*
X42329574Y-34723513D01*
X42336814Y-34650000D01*
X42336814Y-33750000D01*
X42329574Y-33676487D01*
X42308131Y-33605800D01*
X42273309Y-33540653D01*
X42226448Y-33483552D01*
X42185564Y-33450000D01*
X42226448Y-33416448D01*
X42273309Y-33359347D01*
X42308131Y-33294200D01*
X42329574Y-33223513D01*
X42336814Y-33150000D01*
X42336814Y-32250000D01*
X42329574Y-32176487D01*
X42308131Y-32105800D01*
X42273309Y-32040653D01*
X42226448Y-31983552D01*
X42185564Y-31950000D01*
X42226448Y-31916448D01*
X42273309Y-31859347D01*
X42308131Y-31794200D01*
X42321539Y-31750000D01*
X44403984Y-31750000D01*
X44505966Y-31851982D01*
X44632900Y-31936796D01*
X44773941Y-31995217D01*
X44923669Y-32025000D01*
X45076331Y-32025000D01*
X45226059Y-31995217D01*
X45367100Y-31936796D01*
X45494034Y-31851982D01*
X45601982Y-31744034D01*
X45686796Y-31617100D01*
X45745217Y-31476059D01*
X45775000Y-31326331D01*
X45775000Y-31173669D01*
X45745217Y-31023941D01*
X45686796Y-30882900D01*
X45601982Y-30755966D01*
X45494034Y-30648018D01*
X45367100Y-30563204D01*
X45226059Y-30504783D01*
X45076331Y-30475000D01*
X44923669Y-30475000D01*
X44773941Y-30504783D01*
X44632900Y-30563204D01*
X44505966Y-30648018D01*
X44403984Y-30750000D01*
X42336814Y-30750000D01*
X42329574Y-30676487D01*
X42308131Y-30605800D01*
X42273309Y-30540653D01*
X42226448Y-30483552D01*
X42185564Y-30450000D01*
X42226448Y-30416448D01*
X42273309Y-30359347D01*
X42308131Y-30294200D01*
X42329574Y-30223513D01*
X42331890Y-30200000D01*
X53759377Y-30200000D01*
X54026281Y-30466904D01*
X54026281Y-30611130D01*
X54056064Y-30760858D01*
X54114485Y-30901899D01*
X54199299Y-31028833D01*
X54307247Y-31136781D01*
X54434181Y-31221595D01*
X54575222Y-31280016D01*
X54724950Y-31309799D01*
X54877612Y-31309799D01*
X55027340Y-31280016D01*
X55168381Y-31221595D01*
X55295315Y-31136781D01*
X55403263Y-31028833D01*
X55488077Y-30901899D01*
X55546498Y-30760858D01*
X55576281Y-30611130D01*
X55576281Y-30458468D01*
X55546498Y-30308740D01*
X55488077Y-30167699D01*
X55403263Y-30040765D01*
X55295315Y-29932817D01*
X55168381Y-29848003D01*
X55027340Y-29789582D01*
X54877612Y-29759799D01*
X54733386Y-29759799D01*
X54337411Y-29363824D01*
X54321746Y-29344736D01*
X54245611Y-29282254D01*
X54158749Y-29235825D01*
X54064499Y-29207235D01*
X53991042Y-29200000D01*
X53966482Y-29197581D01*
X53941922Y-29200000D01*
X42331890Y-29200000D01*
X42329574Y-29176487D01*
X42308131Y-29105800D01*
X42273309Y-29040653D01*
X42226448Y-28983552D01*
X42185564Y-28950000D01*
X42226448Y-28916448D01*
X42273309Y-28859347D01*
X42308131Y-28794200D01*
X42321539Y-28750000D01*
X43272992Y-28750000D01*
X43300000Y-28752660D01*
X43327008Y-28750000D01*
X43327018Y-28750000D01*
X43407819Y-28742042D01*
X43511494Y-28710592D01*
X43607042Y-28659521D01*
X43690790Y-28590790D01*
X43708013Y-28569804D01*
X44752817Y-27525000D01*
X44826331Y-27525000D01*
X44976059Y-27495217D01*
X45117100Y-27436796D01*
X45244034Y-27351982D01*
X45351982Y-27244034D01*
X45436796Y-27117100D01*
X45495217Y-26976059D01*
X45525000Y-26826331D01*
X45525000Y-26673669D01*
X45495217Y-26523941D01*
X45436796Y-26382900D01*
X45351982Y-26255966D01*
X45244034Y-26148018D01*
X45117100Y-26063204D01*
X44976059Y-26004783D01*
X44826331Y-25975000D01*
X44673669Y-25975000D01*
X44523941Y-26004783D01*
X44382900Y-26063204D01*
X44255966Y-26148018D01*
X44148018Y-26255966D01*
X44063204Y-26382900D01*
X44004783Y-26523941D01*
X43975000Y-26673669D01*
X43975000Y-26747183D01*
X43072183Y-27650000D01*
X42321539Y-27650000D01*
X42308131Y-27605800D01*
X42273309Y-27540653D01*
X42226448Y-27483552D01*
X42185564Y-27450000D01*
X42226448Y-27416448D01*
X42273309Y-27359347D01*
X42308131Y-27294200D01*
X42329574Y-27223513D01*
X42336814Y-27150000D01*
X42336814Y-26363652D01*
X42393506Y-26346455D01*
X42458339Y-26311801D01*
X42515165Y-26265165D01*
X42765165Y-26015165D01*
X42811801Y-25958339D01*
X42846455Y-25893506D01*
X42867794Y-25823159D01*
X42875000Y-25750000D01*
X42875000Y-24650000D01*
X58980354Y-24650000D01*
X59000000Y-24651935D01*
X59019646Y-24650000D01*
X59019647Y-24650000D01*
X59078414Y-24644212D01*
X59153814Y-24621340D01*
X59223303Y-24584197D01*
X59284211Y-24534211D01*
X59296738Y-24518947D01*
X59518944Y-24296740D01*
X59534211Y-24284211D01*
X59584197Y-24223303D01*
X59621340Y-24153814D01*
X59644212Y-24078414D01*
X59650000Y-24019647D01*
X59650000Y-24019637D01*
X59651934Y-24000001D01*
X59650000Y-23980365D01*
X59650000Y-18915685D01*
X60165686Y-18400000D01*
X82084315Y-18400000D01*
X85850001Y-22165687D01*
X85850000Y-69834314D01*
X82084315Y-73600000D01*
X17915686Y-73600000D01*
X14150000Y-69834315D01*
X14150000Y-22165685D01*
X17915686Y-18400000D01*
X36625000Y-18400000D01*
X36625000Y-24000000D01*
G37*
%TD.AperFunction*%
D26*
X57590426Y-31723513D02*
X57611869Y-31794200D01*
X57646691Y-31859347D01*
X57693552Y-31916448D01*
X57750653Y-31963309D01*
X57815800Y-31998131D01*
X57886487Y-32019574D01*
X57960000Y-32026814D01*
X59460000Y-32026814D01*
X59533513Y-32019574D01*
X59604200Y-31998131D01*
X59669347Y-31963309D01*
X59726448Y-31916448D01*
X59773309Y-31859347D01*
X59808131Y-31794200D01*
X59829574Y-31723513D01*
X59831890Y-31700000D01*
X63742893Y-31700000D01*
X65474998Y-33432106D01*
X65474998Y-33576331D01*
X65504781Y-33726059D01*
X65563202Y-33867100D01*
X65648016Y-33994034D01*
X65755964Y-34101982D01*
X65882898Y-34186796D01*
X66023939Y-34245217D01*
X66173667Y-34275000D01*
X66326329Y-34275000D01*
X66476057Y-34245217D01*
X66598321Y-34194574D01*
X66392895Y-34400000D01*
X65357107Y-34400000D01*
X64820929Y-33863824D01*
X64805264Y-33844736D01*
X64729129Y-33782254D01*
X64642267Y-33735825D01*
X64548017Y-33707235D01*
X64474560Y-33700000D01*
X64450000Y-33697581D01*
X64425440Y-33700000D01*
X59831890Y-33700000D01*
X59829574Y-33676487D01*
X59808131Y-33605800D01*
X59773309Y-33540653D01*
X59726448Y-33483552D01*
X59669347Y-33436691D01*
X59604200Y-33401869D01*
X59533513Y-33380426D01*
X59460000Y-33373186D01*
X57960000Y-33373186D01*
X57886487Y-33380426D01*
X57815800Y-33401869D01*
X57750653Y-33436691D01*
X57693552Y-33483552D01*
X57646691Y-33540653D01*
X57611869Y-33605800D01*
X57590426Y-33676487D01*
X57583186Y-33750000D01*
X57583186Y-34650000D01*
X57590426Y-34723513D01*
X57611869Y-34794200D01*
X57646691Y-34859347D01*
X57693552Y-34916448D01*
X57734436Y-34950000D01*
X57693552Y-34983552D01*
X57646691Y-35040653D01*
X57611869Y-35105800D01*
X57590426Y-35176487D01*
X57583186Y-35250000D01*
X57583186Y-36150000D01*
X57590426Y-36223513D01*
X57611869Y-36294200D01*
X57646691Y-36359347D01*
X57693552Y-36416448D01*
X57734436Y-36450000D01*
X57693552Y-36483552D01*
X57646691Y-36540653D01*
X57611869Y-36605800D01*
X57590426Y-36676487D01*
X57588110Y-36700000D01*
X56824560Y-36700000D01*
X56800000Y-36697581D01*
X56775440Y-36700000D01*
X56701983Y-36707235D01*
X56607733Y-36735825D01*
X56520871Y-36782254D01*
X56444736Y-36844736D01*
X56429080Y-36863813D01*
X54758096Y-38534799D01*
X54008386Y-38534799D01*
X56637468Y-35905719D01*
X56656545Y-35890063D01*
X56719027Y-35813928D01*
X56765456Y-35727066D01*
X56794046Y-35632816D01*
X56801281Y-35559359D01*
X56801281Y-35559350D01*
X56803699Y-35534800D01*
X56801281Y-35510250D01*
X56801281Y-31991905D01*
X57093186Y-31700000D01*
X57588110Y-31700000D01*
X57590426Y-31723513D01*
%TA.AperFunction,Conductor*%
D27*
G36*
X57590426Y-31723513D02*
G01*
X57611869Y-31794200D01*
X57646691Y-31859347D01*
X57693552Y-31916448D01*
X57750653Y-31963309D01*
X57815800Y-31998131D01*
X57886487Y-32019574D01*
X57960000Y-32026814D01*
X59460000Y-32026814D01*
X59533513Y-32019574D01*
X59604200Y-31998131D01*
X59669347Y-31963309D01*
X59726448Y-31916448D01*
X59773309Y-31859347D01*
X59808131Y-31794200D01*
X59829574Y-31723513D01*
X59831890Y-31700000D01*
X63742893Y-31700000D01*
X65474998Y-33432106D01*
X65474998Y-33576331D01*
X65504781Y-33726059D01*
X65563202Y-33867100D01*
X65648016Y-33994034D01*
X65755964Y-34101982D01*
X65882898Y-34186796D01*
X66023939Y-34245217D01*
X66173667Y-34275000D01*
X66326329Y-34275000D01*
X66476057Y-34245217D01*
X66598321Y-34194574D01*
X66392895Y-34400000D01*
X65357107Y-34400000D01*
X64820929Y-33863824D01*
X64805264Y-33844736D01*
X64729129Y-33782254D01*
X64642267Y-33735825D01*
X64548017Y-33707235D01*
X64474560Y-33700000D01*
X64450000Y-33697581D01*
X64425440Y-33700000D01*
X59831890Y-33700000D01*
X59829574Y-33676487D01*
X59808131Y-33605800D01*
X59773309Y-33540653D01*
X59726448Y-33483552D01*
X59669347Y-33436691D01*
X59604200Y-33401869D01*
X59533513Y-33380426D01*
X59460000Y-33373186D01*
X57960000Y-33373186D01*
X57886487Y-33380426D01*
X57815800Y-33401869D01*
X57750653Y-33436691D01*
X57693552Y-33483552D01*
X57646691Y-33540653D01*
X57611869Y-33605800D01*
X57590426Y-33676487D01*
X57583186Y-33750000D01*
X57583186Y-34650000D01*
X57590426Y-34723513D01*
X57611869Y-34794200D01*
X57646691Y-34859347D01*
X57693552Y-34916448D01*
X57734436Y-34950000D01*
X57693552Y-34983552D01*
X57646691Y-35040653D01*
X57611869Y-35105800D01*
X57590426Y-35176487D01*
X57583186Y-35250000D01*
X57583186Y-36150000D01*
X57590426Y-36223513D01*
X57611869Y-36294200D01*
X57646691Y-36359347D01*
X57693552Y-36416448D01*
X57734436Y-36450000D01*
X57693552Y-36483552D01*
X57646691Y-36540653D01*
X57611869Y-36605800D01*
X57590426Y-36676487D01*
X57588110Y-36700000D01*
X56824560Y-36700000D01*
X56800000Y-36697581D01*
X56775440Y-36700000D01*
X56701983Y-36707235D01*
X56607733Y-36735825D01*
X56520871Y-36782254D01*
X56444736Y-36844736D01*
X56429080Y-36863813D01*
X54758096Y-38534799D01*
X54008386Y-38534799D01*
X56637468Y-35905719D01*
X56656545Y-35890063D01*
X56719027Y-35813928D01*
X56765456Y-35727066D01*
X56794046Y-35632816D01*
X56801281Y-35559359D01*
X56801281Y-35559350D01*
X56803699Y-35534800D01*
X56801281Y-35510250D01*
X56801281Y-31991905D01*
X57093186Y-31700000D01*
X57588110Y-31700000D01*
X57590426Y-31723513D01*
G37*
%TD.AperFunction*%
%TD*%
D23*
%TO.N,+3V3*%
X40425001Y-18884620D02*
X40425000Y-23984047D01*
X40423429Y-24000000D01*
X40425000Y-24015953D01*
X40425000Y-24015960D01*
X40429703Y-24063710D01*
X40448287Y-24124973D01*
X40478465Y-24181433D01*
X40519079Y-24230921D01*
X40531482Y-24241100D01*
X40758903Y-24468522D01*
X40769079Y-24480921D01*
X40818566Y-24521535D01*
X40875026Y-24551713D01*
X40922030Y-24565971D01*
X40936288Y-24570297D01*
X40942362Y-24570895D01*
X40984039Y-24575000D01*
X40984046Y-24575000D01*
X40999999Y-24576571D01*
X41015952Y-24575000D01*
X42400000Y-24575000D01*
X42400000Y-25708578D01*
X42208578Y-25900000D01*
X39791422Y-25900000D01*
X39600000Y-25708578D01*
X39600000Y-24500000D01*
X39598079Y-24480491D01*
X39592388Y-24461732D01*
X39583147Y-24444443D01*
X39570711Y-24429289D01*
X39320711Y-24179289D01*
X39305557Y-24166853D01*
X39288268Y-24157612D01*
X39269509Y-24151921D01*
X39250000Y-24150000D01*
X37291422Y-24150000D01*
X37100000Y-23958578D01*
X37100000Y-18325000D01*
X39865382Y-18325000D01*
X40425001Y-18884620D01*
%TA.AperFunction,Conductor*%
D27*
G36*
X40425001Y-18884620D02*
G01*
X40425000Y-23984047D01*
X40423429Y-24000000D01*
X40425000Y-24015953D01*
X40425000Y-24015960D01*
X40429703Y-24063710D01*
X40448287Y-24124973D01*
X40478465Y-24181433D01*
X40519079Y-24230921D01*
X40531482Y-24241100D01*
X40758903Y-24468522D01*
X40769079Y-24480921D01*
X40818566Y-24521535D01*
X40875026Y-24551713D01*
X40922030Y-24565971D01*
X40936288Y-24570297D01*
X40942362Y-24570895D01*
X40984039Y-24575000D01*
X40984046Y-24575000D01*
X40999999Y-24576571D01*
X41015952Y-24575000D01*
X42400000Y-24575000D01*
X42400000Y-25708578D01*
X42208578Y-25900000D01*
X39791422Y-25900000D01*
X39600000Y-25708578D01*
X39600000Y-24500000D01*
X39598079Y-24480491D01*
X39592388Y-24461732D01*
X39583147Y-24444443D01*
X39570711Y-24429289D01*
X39320711Y-24179289D01*
X39305557Y-24166853D01*
X39288268Y-24157612D01*
X39269509Y-24151921D01*
X39250000Y-24150000D01*
X37291422Y-24150000D01*
X37100000Y-23958578D01*
X37100000Y-18325000D01*
X39865382Y-18325000D01*
X40425001Y-18884620D01*
G37*
%TD.AperFunction*%
%TD*%
D23*
%TO.N,+3V3*%
X77650000Y-23041422D02*
X77650000Y-25000000D01*
X77651921Y-25019509D01*
X77657612Y-25038268D01*
X77666853Y-25055557D01*
X77679289Y-25070711D01*
X78900000Y-26291422D01*
X78900000Y-27208578D01*
X78208578Y-27900000D01*
X74791422Y-27900000D01*
X74600000Y-27708578D01*
X74600000Y-23291422D01*
X75041422Y-22850000D01*
X77458578Y-22850000D01*
X77650000Y-23041422D01*
%TA.AperFunction,Conductor*%
D27*
G36*
X77650000Y-23041422D02*
G01*
X77650000Y-25000000D01*
X77651921Y-25019509D01*
X77657612Y-25038268D01*
X77666853Y-25055557D01*
X77679289Y-25070711D01*
X78900000Y-26291422D01*
X78900000Y-27208578D01*
X78208578Y-27900000D01*
X74791422Y-27900000D01*
X74600000Y-27708578D01*
X74600000Y-23291422D01*
X75041422Y-22850000D01*
X77458578Y-22850000D01*
X77650000Y-23041422D01*
G37*
%TD.AperFunction*%
%TD*%
M02*
