M48
; DRILL file {KiCad (5.1.10)-1} date 10/03/21 21:56:03
; FORMAT={-:-/ absolute / metric / decimal}
; #@! TF.CreationDate,2021-10-03T21:56:03+02:00
; #@! TF.GenerationSoftware,Kicad,Pcbnew,(5.1.10)-1
; #@! TF.FileFunction,Plated,1,2,PTH
FMAT,2
METRIC
T1C0.400
T2C0.500
T3C0.700
T4C1.000
T5C3.200
%
G90
G05
T1
X23.0Y-67.0
X25.0Y-33.5
X25.25Y-46.25
X25.301Y-38.785
X25.5Y-20.25
X25.814Y-34.25
X26.025Y-62.25
X27.75Y-25.0
X27.75Y-26.5
X27.75Y-28.0
X30.25Y-31.5
X31.75Y-44.25
X31.75Y-47.75
X31.75Y-51.25
X31.75Y-54.75
X31.75Y-58.25
X32.25Y-30.425
X33.5Y-22.5
X33.5Y-23.5
X34.0Y-30.5
X34.5Y-23.5
X37.801Y-31.285
X38.0Y-26.75
X38.5Y-25.5
X38.75Y-28.5
X39.25Y-66.0
X39.3Y-35.7
X39.5Y-23.0
X40.0Y-19.0
X40.0Y-20.0
X40.0Y-21.0
X40.0Y-22.0
X40.25Y-46.25
X40.25Y-48.25
X40.348Y-53.556
X40.5Y-65.0
X41.322Y-54.572
X44.25Y-36.5
X44.75Y-26.75
X45.0Y-31.25
X45.0Y-62.25
X51.06Y-33.71
X54.801Y-30.535
X55.0Y-62.25
X55.0Y-65.0
X60.75Y-42.75
X60.95Y-26.7
X61.0Y-32.75
X65.801Y-39.035
X66.0Y-62.25
X66.0Y-65.0
X66.25Y-33.5
X67.25Y-29.75
X69.301Y-30.535
X74.25Y-34.5
X77.0Y-23.75
X77.0Y-24.75
X77.0Y-25.75
X77.0Y-26.75
X77.0Y-39.0
X78.0Y-26.75
T3
X42.38Y-42.38
X42.38Y-57.62
X44.92Y-42.38
X44.92Y-57.62
X47.46Y-42.38
X47.46Y-57.62
X50.0Y-42.38
X50.0Y-57.62
X52.54Y-42.38
X52.54Y-57.62
X55.08Y-42.38
X55.08Y-57.62
X57.62Y-42.38
X57.62Y-57.62
X81.0Y-31.075
X81.0Y-35.925
T4
X62.681Y-20.535
X65.221Y-20.535
X67.761Y-20.535
X70.301Y-20.535
T5
X18.75Y-23.0
X18.75Y-69.0
X81.0Y-23.0
X81.25Y-69.0
T2
G00X84.2Y-29.9
M15
G01X83.4Y-29.9
M16
G05
G00X84.2Y-29.9
M15
G01X83.4Y-29.9
M16
G05
G00X83.4Y-37.1
M15
G01X84.2Y-37.1
M16
G05
T0
M30
