%TF.GenerationSoftware,KiCad,Pcbnew,(5.1.10)-1*%
%TF.CreationDate,2021-10-03T21:55:55+02:00*%
%TF.ProjectId,KitchenTimer,4b697463-6865-46e5-9469-6d65722e6b69,rev?*%
%TF.SameCoordinates,Original*%
%TF.FileFunction,Legend,Top*%
%TF.FilePolarity,Positive*%
%FSLAX46Y46*%
G04 Gerber Fmt 4.6, Leading zero omitted, Abs format (unit mm)*
G04 Created by KiCad (PCBNEW (5.1.10)-1) date 2021-10-03 21:55:55*
%MOMM*%
%LPD*%
G01*
G04 APERTURE LIST*
%ADD10C,0.300000*%
%ADD11C,0.120000*%
%ADD12C,0.200000*%
%ADD13C,0.500000*%
%ADD14C,0.150000*%
%ADD15C,0.100000*%
%ADD16C,1.500000*%
%ADD17C,5.600000*%
%ADD18R,1.500000X0.900000*%
%ADD19R,4.000000X4.000000*%
%ADD20O,1.800000X1.100000*%
%ADD21R,1.250000X0.400000*%
%ADD22C,1.290000*%
%ADD23O,1.700000X1.700000*%
%ADD24R,1.700000X1.700000*%
%ADD25R,1.550000X1.300000*%
%ADD26R,2.100000X2.400000*%
G04 APERTURE END LIST*
D10*
X72559285Y-71092857D02*
X73245000Y-71092857D01*
X72902142Y-72292857D02*
X72902142Y-71092857D01*
X73645000Y-72292857D02*
X73645000Y-71092857D01*
X74216428Y-72292857D02*
X74216428Y-71092857D01*
X74616428Y-71950000D01*
X75016428Y-71092857D01*
X75016428Y-72292857D01*
X75587857Y-71664285D02*
X75987857Y-71664285D01*
X76159285Y-72292857D02*
X75587857Y-72292857D01*
X75587857Y-71092857D01*
X76159285Y-71092857D01*
X77359285Y-72292857D02*
X76959285Y-71721428D01*
X76673571Y-72292857D02*
X76673571Y-71092857D01*
X77130714Y-71092857D01*
X77245000Y-71150000D01*
X77302142Y-71207142D01*
X77359285Y-71321428D01*
X77359285Y-71492857D01*
X77302142Y-71607142D01*
X77245000Y-71664285D01*
X77130714Y-71721428D01*
X76673571Y-71721428D01*
X67597857Y-69792857D02*
X67197857Y-69221428D01*
X66912142Y-69792857D02*
X66912142Y-68592857D01*
X67369285Y-68592857D01*
X67483571Y-68650000D01*
X67540714Y-68707142D01*
X67597857Y-68821428D01*
X67597857Y-68992857D01*
X67540714Y-69107142D01*
X67483571Y-69164285D01*
X67369285Y-69221428D01*
X66912142Y-69221428D01*
X68112142Y-69164285D02*
X68512142Y-69164285D01*
X68683571Y-69792857D02*
X68112142Y-69792857D01*
X68112142Y-68592857D01*
X68683571Y-68592857D01*
X69140714Y-69735714D02*
X69312142Y-69792857D01*
X69597857Y-69792857D01*
X69712142Y-69735714D01*
X69769285Y-69678571D01*
X69826428Y-69564285D01*
X69826428Y-69450000D01*
X69769285Y-69335714D01*
X69712142Y-69278571D01*
X69597857Y-69221428D01*
X69369285Y-69164285D01*
X69255000Y-69107142D01*
X69197857Y-69050000D01*
X69140714Y-68935714D01*
X69140714Y-68821428D01*
X69197857Y-68707142D01*
X69255000Y-68650000D01*
X69369285Y-68592857D01*
X69655000Y-68592857D01*
X69826428Y-68650000D01*
X70340714Y-69164285D02*
X70740714Y-69164285D01*
X70912142Y-69792857D02*
X70340714Y-69792857D01*
X70340714Y-68592857D01*
X70912142Y-68592857D01*
X71255000Y-68592857D02*
X71940714Y-68592857D01*
X71597857Y-69792857D02*
X71597857Y-68592857D01*
X71750000Y-71000000D02*
X72750000Y-70000000D01*
X71750000Y-72500000D02*
X71750000Y-71000000D01*
X72750000Y-68250000D02*
X72750000Y-70000000D01*
X61673571Y-72235714D02*
X61845000Y-72292857D01*
X62130714Y-72292857D01*
X62245000Y-72235714D01*
X62302142Y-72178571D01*
X62359285Y-72064285D01*
X62359285Y-71950000D01*
X62302142Y-71835714D01*
X62245000Y-71778571D01*
X62130714Y-71721428D01*
X61902142Y-71664285D01*
X61787857Y-71607142D01*
X61730714Y-71550000D01*
X61673571Y-71435714D01*
X61673571Y-71321428D01*
X61730714Y-71207142D01*
X61787857Y-71150000D01*
X61902142Y-71092857D01*
X62187857Y-71092857D01*
X62359285Y-71150000D01*
X62702142Y-71092857D02*
X63387857Y-71092857D01*
X63045000Y-72292857D02*
X63045000Y-71092857D01*
X64016428Y-71092857D02*
X64245000Y-71092857D01*
X64359285Y-71150000D01*
X64473571Y-71264285D01*
X64530714Y-71492857D01*
X64530714Y-71892857D01*
X64473571Y-72121428D01*
X64359285Y-72235714D01*
X64245000Y-72292857D01*
X64016428Y-72292857D01*
X63902142Y-72235714D01*
X63787857Y-72121428D01*
X63730714Y-71892857D01*
X63730714Y-71492857D01*
X63787857Y-71264285D01*
X63902142Y-71150000D01*
X64016428Y-71092857D01*
X65045000Y-72292857D02*
X65045000Y-71092857D01*
X65502142Y-71092857D01*
X65616428Y-71150000D01*
X65673571Y-71207142D01*
X65730714Y-71321428D01*
X65730714Y-71492857D01*
X65673571Y-71607142D01*
X65616428Y-71664285D01*
X65502142Y-71721428D01*
X65045000Y-71721428D01*
X56083571Y-69735714D02*
X56255000Y-69792857D01*
X56540714Y-69792857D01*
X56655000Y-69735714D01*
X56712142Y-69678571D01*
X56769285Y-69564285D01*
X56769285Y-69450000D01*
X56712142Y-69335714D01*
X56655000Y-69278571D01*
X56540714Y-69221428D01*
X56312142Y-69164285D01*
X56197857Y-69107142D01*
X56140714Y-69050000D01*
X56083571Y-68935714D01*
X56083571Y-68821428D01*
X56140714Y-68707142D01*
X56197857Y-68650000D01*
X56312142Y-68592857D01*
X56597857Y-68592857D01*
X56769285Y-68650000D01*
X57112142Y-68592857D02*
X57797857Y-68592857D01*
X57455000Y-69792857D02*
X57455000Y-68592857D01*
X58140714Y-69450000D02*
X58712142Y-69450000D01*
X58026428Y-69792857D02*
X58426428Y-68592857D01*
X58826428Y-69792857D01*
X59912142Y-69792857D02*
X59512142Y-69221428D01*
X59226428Y-69792857D02*
X59226428Y-68592857D01*
X59683571Y-68592857D01*
X59797857Y-68650000D01*
X59855000Y-68707142D01*
X59912142Y-68821428D01*
X59912142Y-68992857D01*
X59855000Y-69107142D01*
X59797857Y-69164285D01*
X59683571Y-69221428D01*
X59226428Y-69221428D01*
X60255000Y-68592857D02*
X60940714Y-68592857D01*
X60597857Y-69792857D02*
X60597857Y-68592857D01*
X60750000Y-71000000D02*
X61750000Y-70000000D01*
X60750000Y-72500000D02*
X60750000Y-71000000D01*
X61750000Y-68250000D02*
X61750000Y-70000000D01*
X43730714Y-72292857D02*
X43730714Y-71092857D01*
X44130714Y-71950000D01*
X44530714Y-71092857D01*
X44530714Y-72292857D01*
X45102142Y-72292857D02*
X45102142Y-71092857D01*
X45673571Y-72292857D02*
X45673571Y-71092857D01*
X46359285Y-72292857D01*
X46359285Y-71092857D01*
X38255000Y-69792857D02*
X38255000Y-68592857D01*
X38540714Y-68592857D01*
X38712142Y-68650000D01*
X38826428Y-68764285D01*
X38883571Y-68878571D01*
X38940714Y-69107142D01*
X38940714Y-69278571D01*
X38883571Y-69507142D01*
X38826428Y-69621428D01*
X38712142Y-69735714D01*
X38540714Y-69792857D01*
X38255000Y-69792857D01*
X39683571Y-68592857D02*
X39912142Y-68592857D01*
X40026428Y-68650000D01*
X40140714Y-68764285D01*
X40197857Y-68992857D01*
X40197857Y-69392857D01*
X40140714Y-69621428D01*
X40026428Y-69735714D01*
X39912142Y-69792857D01*
X39683571Y-69792857D01*
X39569285Y-69735714D01*
X39455000Y-69621428D01*
X39397857Y-69392857D01*
X39397857Y-68992857D01*
X39455000Y-68764285D01*
X39569285Y-68650000D01*
X39683571Y-68592857D01*
X40597857Y-68592857D02*
X40883571Y-69792857D01*
X41112142Y-68935714D01*
X41340714Y-69792857D01*
X41626428Y-68592857D01*
X42083571Y-69792857D02*
X42083571Y-68592857D01*
X42769285Y-69792857D01*
X42769285Y-68592857D01*
X42750000Y-71000000D02*
X43750000Y-70000000D01*
X42750000Y-72500000D02*
X42750000Y-71000000D01*
X43750000Y-68250000D02*
X43750000Y-70000000D01*
X31750000Y-72500000D02*
X31750000Y-71000000D01*
X32750000Y-68250000D02*
X32750000Y-70000000D01*
X31750000Y-71000000D02*
X32750000Y-70000000D01*
X32730714Y-72292857D02*
X32730714Y-71092857D01*
X32730714Y-71664285D02*
X33416428Y-71664285D01*
X33416428Y-72292857D02*
X33416428Y-71092857D01*
X34673571Y-72292857D02*
X34273571Y-71721428D01*
X33987857Y-72292857D02*
X33987857Y-71092857D01*
X34445000Y-71092857D01*
X34559285Y-71150000D01*
X34616428Y-71207142D01*
X34673571Y-71321428D01*
X34673571Y-71492857D01*
X34616428Y-71607142D01*
X34559285Y-71664285D01*
X34445000Y-71721428D01*
X33987857Y-71721428D01*
X29883571Y-68592857D02*
X29883571Y-69564285D01*
X29940714Y-69678571D01*
X29997857Y-69735714D01*
X30112142Y-69792857D01*
X30340714Y-69792857D01*
X30455000Y-69735714D01*
X30512142Y-69678571D01*
X30569285Y-69564285D01*
X30569285Y-68592857D01*
X31140714Y-69792857D02*
X31140714Y-68592857D01*
X31597857Y-68592857D01*
X31712142Y-68650000D01*
X31769285Y-68707142D01*
X31826428Y-68821428D01*
X31826428Y-68992857D01*
X31769285Y-69107142D01*
X31712142Y-69164285D01*
X31597857Y-69221428D01*
X31140714Y-69221428D01*
D11*
X31500000Y-35000000D02*
X30000000Y-34250000D01*
X30000000Y-34500000D02*
X31000000Y-35000000D01*
X30500000Y-35000000D02*
X30000000Y-34500000D01*
X30000000Y-33000000D02*
X30000000Y-34500000D01*
X30500000Y-33000000D02*
X30500000Y-35000000D01*
X31000000Y-33000000D02*
X31000000Y-35000000D01*
X31500000Y-33000000D02*
X31500000Y-35000000D01*
D10*
X34414285Y-34387857D02*
X34471428Y-34216428D01*
X34528571Y-34159285D01*
X34642857Y-34102142D01*
X34814285Y-34102142D01*
X34928571Y-34159285D01*
X34985714Y-34216428D01*
X35042857Y-34330714D01*
X35042857Y-34787857D01*
X33842857Y-34787857D01*
X33842857Y-34387857D01*
X33900000Y-34273571D01*
X33957142Y-34216428D01*
X34071428Y-34159285D01*
X34185714Y-34159285D01*
X34300000Y-34216428D01*
X34357142Y-34273571D01*
X34414285Y-34387857D01*
X34414285Y-34787857D01*
X33842857Y-33359285D02*
X33842857Y-33130714D01*
X33900000Y-33016428D01*
X34014285Y-32902142D01*
X34242857Y-32845000D01*
X34642857Y-32845000D01*
X34871428Y-32902142D01*
X34985714Y-33016428D01*
X35042857Y-33130714D01*
X35042857Y-33359285D01*
X34985714Y-33473571D01*
X34871428Y-33587857D01*
X34642857Y-33645000D01*
X34242857Y-33645000D01*
X34014285Y-33587857D01*
X33900000Y-33473571D01*
X33842857Y-33359285D01*
X33842857Y-32102142D02*
X33842857Y-31873571D01*
X33900000Y-31759285D01*
X34014285Y-31645000D01*
X34242857Y-31587857D01*
X34642857Y-31587857D01*
X34871428Y-31645000D01*
X34985714Y-31759285D01*
X35042857Y-31873571D01*
X35042857Y-32102142D01*
X34985714Y-32216428D01*
X34871428Y-32330714D01*
X34642857Y-32387857D01*
X34242857Y-32387857D01*
X34014285Y-32330714D01*
X33900000Y-32216428D01*
X33842857Y-32102142D01*
X33842857Y-31245000D02*
X33842857Y-30559285D01*
X35042857Y-30902142D02*
X33842857Y-30902142D01*
X30664285Y-32502142D02*
X30664285Y-32102142D01*
X31292857Y-31930714D02*
X31292857Y-32502142D01*
X30092857Y-32502142D01*
X30092857Y-31930714D01*
X31292857Y-31416428D02*
X30092857Y-31416428D01*
X31292857Y-30730714D01*
X30092857Y-30730714D01*
D11*
X67250000Y-24000000D02*
X67250000Y-24500000D01*
X66250000Y-26000000D02*
X66250000Y-23000000D01*
X64500000Y-24250000D02*
X64500000Y-23000000D01*
X62750000Y-22000000D02*
X62750000Y-21500000D01*
X62500000Y-22250000D02*
X62750000Y-22000000D01*
X62250000Y-22250000D02*
X62500000Y-22250000D01*
X62000000Y-22500000D02*
X62250000Y-22250000D01*
X62000000Y-22750000D02*
X62000000Y-22500000D01*
X63750000Y-22500000D02*
X63750000Y-23250000D01*
X70250000Y-22250000D02*
X70250000Y-20500000D01*
X69750000Y-22750000D02*
X70250000Y-22250000D01*
X68500000Y-22750000D02*
X69750000Y-22750000D01*
X68000000Y-23250000D02*
X68500000Y-22750000D01*
X67250000Y-24000000D02*
X68000000Y-23250000D01*
X67750000Y-22250000D02*
X67750000Y-21500000D01*
X67250000Y-22750000D02*
X67750000Y-22250000D01*
X66000000Y-22750000D02*
X67250000Y-22750000D01*
X65500000Y-23250000D02*
X66000000Y-22750000D01*
X65500000Y-24000000D02*
X65500000Y-23250000D01*
X65250000Y-22000000D02*
X65250000Y-21500000D01*
X65000000Y-22250000D02*
X65250000Y-22000000D01*
X64000000Y-22250000D02*
X65000000Y-22250000D01*
X63750000Y-22500000D02*
X64000000Y-22250000D01*
X66250000Y-26000000D02*
X66250000Y-28750000D01*
X66250000Y-28750000D02*
X66750000Y-29250000D01*
X64500000Y-24250000D02*
X64500000Y-27000000D01*
X64500000Y-27000000D02*
X65000000Y-27500000D01*
X62750000Y-25750000D02*
X63250000Y-26250000D01*
X62750000Y-23000000D02*
X62750000Y-25750000D01*
D12*
X66811904Y-26365714D02*
X66811904Y-26746666D01*
X67192857Y-26784761D01*
X67154761Y-26746666D01*
X67116666Y-26670476D01*
X67116666Y-26480000D01*
X67154761Y-26403809D01*
X67192857Y-26365714D01*
X67269047Y-26327619D01*
X67459523Y-26327619D01*
X67535714Y-26365714D01*
X67573809Y-26403809D01*
X67611904Y-26480000D01*
X67611904Y-26670476D01*
X67573809Y-26746666D01*
X67535714Y-26784761D01*
X66811904Y-25489523D02*
X67611904Y-25222857D01*
X66811904Y-24956190D01*
X65061904Y-25675238D02*
X65061904Y-25218095D01*
X65861904Y-25446666D02*
X65061904Y-25446666D01*
X65061904Y-25027619D02*
X65861904Y-24494285D01*
X65061904Y-24494285D02*
X65861904Y-25027619D01*
X64111904Y-24544285D02*
X63730952Y-24810952D01*
X64111904Y-25001428D02*
X63311904Y-25001428D01*
X63311904Y-24696666D01*
X63350000Y-24620476D01*
X63388095Y-24582380D01*
X63464285Y-24544285D01*
X63578571Y-24544285D01*
X63654761Y-24582380D01*
X63692857Y-24620476D01*
X63730952Y-24696666D01*
X63730952Y-25001428D01*
X63311904Y-24277619D02*
X64111904Y-23744285D01*
X63311904Y-23744285D02*
X64111904Y-24277619D01*
X61600000Y-24958571D02*
X61561904Y-25034761D01*
X61561904Y-25149047D01*
X61600000Y-25263333D01*
X61676190Y-25339523D01*
X61752380Y-25377619D01*
X61904761Y-25415714D01*
X62019047Y-25415714D01*
X62171428Y-25377619D01*
X62247619Y-25339523D01*
X62323809Y-25263333D01*
X62361904Y-25149047D01*
X62361904Y-25072857D01*
X62323809Y-24958571D01*
X62285714Y-24920476D01*
X62019047Y-24920476D01*
X62019047Y-25072857D01*
X62361904Y-24577619D02*
X61561904Y-24577619D01*
X62361904Y-24120476D01*
X61561904Y-24120476D01*
X62361904Y-23739523D02*
X61561904Y-23739523D01*
X61561904Y-23549047D01*
X61600000Y-23434761D01*
X61676190Y-23358571D01*
X61752380Y-23320476D01*
X61904761Y-23282380D01*
X62019047Y-23282380D01*
X62171428Y-23320476D01*
X62247619Y-23358571D01*
X62323809Y-23434761D01*
X62361904Y-23549047D01*
X62361904Y-23739523D01*
D13*
X14000000Y-18250000D02*
X14000000Y-19750000D01*
D11*
X14500000Y-18750000D02*
X15500000Y-19750000D01*
D13*
X14000000Y-18250000D02*
X15500000Y-18250000D01*
D11*
%TO.C,C12*%
X74711252Y-25840000D02*
X73288748Y-25840000D01*
X74711252Y-27660000D02*
X73288748Y-27660000D01*
%TO.C,LED1*%
X50750000Y-50750000D02*
X51000000Y-51000000D01*
X49000000Y-49000000D02*
X49250000Y-49250000D01*
X49000000Y-49500000D02*
X49500000Y-49000000D01*
X50500000Y-51000000D02*
X51000000Y-50500000D01*
X49250000Y-50750000D02*
X49000000Y-51000000D01*
X51000000Y-49500000D02*
X51250000Y-49750000D01*
X48750000Y-50250000D02*
X49250000Y-50750000D01*
X49250000Y-50750000D02*
X48750000Y-50250000D01*
X50750000Y-49250000D02*
X51000000Y-49000000D01*
X50750000Y-49250000D02*
X51000000Y-49500000D01*
X49500000Y-50750000D02*
X49250000Y-51000000D01*
X49250000Y-51000000D02*
X49250000Y-50500000D01*
X49250000Y-50500000D02*
X49500000Y-50750000D01*
X50500000Y-49250000D02*
X50750000Y-49000000D01*
X50750000Y-49500000D02*
X50500000Y-49250000D01*
X50750000Y-49000000D02*
X50750000Y-49500000D01*
X49000000Y-50000000D02*
X48250000Y-50000000D01*
X50000000Y-51000000D02*
X50000000Y-51750000D01*
X51000000Y-50000000D02*
X51750000Y-50000000D01*
X50000000Y-49000000D02*
X50000000Y-48250000D01*
X51750000Y-50000000D02*
G75*
G03*
X51750000Y-50000000I-1750000J0D01*
G01*
X49000000Y-50000000D02*
X50000000Y-49000000D01*
X51000000Y-50000000D02*
X49000000Y-50000000D01*
X50000000Y-51000000D02*
X51000000Y-50000000D01*
X50000000Y-49000000D02*
X50000000Y-51000000D01*
X24900000Y-59500000D02*
X24900000Y-40500000D01*
X75100000Y-59500000D02*
X24900000Y-59500000D01*
X75100000Y-40500000D02*
X75100000Y-59500000D01*
X24900000Y-40500000D02*
X75100000Y-40500000D01*
%TO.C,C10*%
X74711252Y-30160000D02*
X73288748Y-30160000D01*
X74711252Y-28340000D02*
X73288748Y-28340000D01*
%TO.C,U1*%
X40960000Y-18100000D02*
X40960000Y-38100000D01*
X40960000Y-38100000D02*
X58960000Y-38100000D01*
X58960000Y-38100000D02*
X58960000Y-18100000D01*
X58960000Y-18100000D02*
X40960000Y-18100000D01*
X40960000Y-24100000D02*
X58960000Y-24100000D01*
%TO.C,J2*%
X79000000Y-32000000D02*
X80000000Y-31500000D01*
X79000000Y-35000000D02*
X80000000Y-35500000D01*
X79000000Y-35000000D02*
X78500000Y-36000000D01*
X79000000Y-33500000D02*
X79000000Y-35000000D01*
X79000000Y-32000000D02*
X79000000Y-33500000D01*
X78500000Y-31000000D02*
X79000000Y-32000000D01*
X78500000Y-36000000D02*
X81000000Y-37750000D01*
X78500000Y-31000000D02*
X78500000Y-36000000D01*
X81000000Y-29250000D02*
X78500000Y-31000000D01*
X82250000Y-30750000D02*
X82250000Y-33500000D01*
X81000000Y-30000000D02*
X82250000Y-30750000D01*
X81000000Y-28500000D02*
X81000000Y-30000000D01*
X82250000Y-27750000D02*
X81000000Y-28500000D01*
X84750000Y-27750000D02*
X82250000Y-27750000D01*
X85250000Y-28250000D02*
X84750000Y-27750000D01*
X85250000Y-30500000D02*
X85250000Y-28250000D01*
X86000000Y-31000000D02*
X85250000Y-30500000D01*
X86000000Y-33500000D02*
X86000000Y-31000000D01*
X81000000Y-37000000D02*
X82250000Y-36250000D01*
X86000000Y-33500000D02*
X86000000Y-36000000D01*
X86000000Y-36000000D02*
X85250000Y-36500000D01*
X82250000Y-36250000D02*
X82250000Y-33500000D01*
X82250000Y-39250000D02*
X81000000Y-38500000D01*
X81000000Y-38500000D02*
X81000000Y-37000000D01*
X84750000Y-39250000D02*
X82250000Y-39250000D01*
X85250000Y-38750000D02*
X84750000Y-39250000D01*
X85250000Y-36500000D02*
X85250000Y-38750000D01*
%TO.C,C13*%
X74711252Y-23340000D02*
X73288748Y-23340000D01*
X74711252Y-25160000D02*
X73288748Y-25160000D01*
%TO.C,C9*%
X74711252Y-32660000D02*
X73288748Y-32660000D01*
X74711252Y-30840000D02*
X73288748Y-30840000D01*
%TO.C,J1*%
X61351281Y-19204799D02*
X61351281Y-21864799D01*
X69031281Y-19204799D02*
X61351281Y-19204799D01*
X69031281Y-21864799D02*
X61351281Y-21864799D01*
X69031281Y-19204799D02*
X69031281Y-21864799D01*
X70301281Y-19204799D02*
X71631281Y-19204799D01*
X71631281Y-19204799D02*
X71631281Y-20534799D01*
%TO.C,SW6*%
X44000000Y-67500000D02*
X38000000Y-67500000D01*
X42750000Y-64500000D02*
G75*
G03*
X42750000Y-64500000I-1750000J0D01*
G01*
X38000000Y-67500000D02*
X38000000Y-61500000D01*
X44000000Y-61500000D02*
X44000000Y-67500000D01*
X38000000Y-61500000D02*
X44000000Y-61500000D01*
%TO.C,SW5*%
X33000000Y-67500000D02*
X27000000Y-67500000D01*
X31750000Y-64500000D02*
G75*
G03*
X31750000Y-64500000I-1750000J0D01*
G01*
X27000000Y-67500000D02*
X27000000Y-61500000D01*
X33000000Y-61500000D02*
X33000000Y-67500000D01*
X27000000Y-61500000D02*
X33000000Y-61500000D01*
%TO.C,SW4*%
X73000000Y-67500000D02*
X67000000Y-67500000D01*
X71750000Y-64500000D02*
G75*
G03*
X71750000Y-64500000I-1750000J0D01*
G01*
X67000000Y-67500000D02*
X67000000Y-61500000D01*
X73000000Y-61500000D02*
X73000000Y-67500000D01*
X67000000Y-61500000D02*
X73000000Y-61500000D01*
%TO.C,SW3*%
X62000000Y-67500000D02*
X56000000Y-67500000D01*
X60750000Y-64500000D02*
G75*
G03*
X60750000Y-64500000I-1750000J0D01*
G01*
X56000000Y-67500000D02*
X56000000Y-61500000D01*
X62000000Y-61500000D02*
X62000000Y-67500000D01*
X56000000Y-61500000D02*
X62000000Y-61500000D01*
%TO.C,SW2*%
X28900000Y-24040000D02*
X28900000Y-20990000D01*
X32600000Y-20990000D02*
X32600000Y-27090000D01*
X28900000Y-20990000D02*
X32600000Y-20990000D01*
X28900000Y-27090000D02*
X28900000Y-20990000D01*
X32600000Y-27090000D02*
X28900000Y-27090000D01*
%TO.C,SW1*%
X32650000Y-24040000D02*
X32650000Y-20990000D01*
X36350000Y-20990000D02*
X36350000Y-27090000D01*
X32650000Y-20990000D02*
X36350000Y-20990000D01*
X32650000Y-27090000D02*
X32650000Y-20990000D01*
X36350000Y-27090000D02*
X32650000Y-27090000D01*
%TO.C,C12*%
D14*
X69357142Y-27107142D02*
X69309523Y-27154761D01*
X69166666Y-27202380D01*
X69071428Y-27202380D01*
X68928571Y-27154761D01*
X68833333Y-27059523D01*
X68785714Y-26964285D01*
X68738095Y-26773809D01*
X68738095Y-26630952D01*
X68785714Y-26440476D01*
X68833333Y-26345238D01*
X68928571Y-26250000D01*
X69071428Y-26202380D01*
X69166666Y-26202380D01*
X69309523Y-26250000D01*
X69357142Y-26297619D01*
X70309523Y-27202380D02*
X69738095Y-27202380D01*
X70023809Y-27202380D02*
X70023809Y-26202380D01*
X69928571Y-26345238D01*
X69833333Y-26440476D01*
X69738095Y-26488095D01*
X70690476Y-26297619D02*
X70738095Y-26250000D01*
X70833333Y-26202380D01*
X71071428Y-26202380D01*
X71166666Y-26250000D01*
X71214285Y-26297619D01*
X71261904Y-26392857D01*
X71261904Y-26488095D01*
X71214285Y-26630952D01*
X70642857Y-27202380D01*
X71261904Y-27202380D01*
%TO.C,LED1*%
X70780952Y-42452380D02*
X70304761Y-42452380D01*
X70304761Y-41452380D01*
X71114285Y-41928571D02*
X71447619Y-41928571D01*
X71590476Y-42452380D02*
X71114285Y-42452380D01*
X71114285Y-41452380D01*
X71590476Y-41452380D01*
X72019047Y-42452380D02*
X72019047Y-41452380D01*
X72257142Y-41452380D01*
X72400000Y-41500000D01*
X72495238Y-41595238D01*
X72542857Y-41690476D01*
X72590476Y-41880952D01*
X72590476Y-42023809D01*
X72542857Y-42214285D01*
X72495238Y-42309523D01*
X72400000Y-42404761D01*
X72257142Y-42452380D01*
X72019047Y-42452380D01*
X73542857Y-42452380D02*
X72971428Y-42452380D01*
X73257142Y-42452380D02*
X73257142Y-41452380D01*
X73161904Y-41595238D01*
X73066666Y-41690476D01*
X72971428Y-41738095D01*
%TO.C,C10*%
X69357142Y-29607142D02*
X69309523Y-29654761D01*
X69166666Y-29702380D01*
X69071428Y-29702380D01*
X68928571Y-29654761D01*
X68833333Y-29559523D01*
X68785714Y-29464285D01*
X68738095Y-29273809D01*
X68738095Y-29130952D01*
X68785714Y-28940476D01*
X68833333Y-28845238D01*
X68928571Y-28750000D01*
X69071428Y-28702380D01*
X69166666Y-28702380D01*
X69309523Y-28750000D01*
X69357142Y-28797619D01*
X70309523Y-29702380D02*
X69738095Y-29702380D01*
X70023809Y-29702380D02*
X70023809Y-28702380D01*
X69928571Y-28845238D01*
X69833333Y-28940476D01*
X69738095Y-28988095D01*
X70928571Y-28702380D02*
X71023809Y-28702380D01*
X71119047Y-28750000D01*
X71166666Y-28797619D01*
X71214285Y-28892857D01*
X71261904Y-29083333D01*
X71261904Y-29321428D01*
X71214285Y-29511904D01*
X71166666Y-29607142D01*
X71119047Y-29654761D01*
X71023809Y-29702380D01*
X70928571Y-29702380D01*
X70833333Y-29654761D01*
X70785714Y-29607142D01*
X70738095Y-29511904D01*
X70690476Y-29321428D01*
X70690476Y-29083333D01*
X70738095Y-28892857D01*
X70785714Y-28797619D01*
X70833333Y-28750000D01*
X70928571Y-28702380D01*
%TO.C,U1*%
X43238095Y-25452380D02*
X43238095Y-26261904D01*
X43285714Y-26357142D01*
X43333333Y-26404761D01*
X43428571Y-26452380D01*
X43619047Y-26452380D01*
X43714285Y-26404761D01*
X43761904Y-26357142D01*
X43809523Y-26261904D01*
X43809523Y-25452380D01*
X44809523Y-26452380D02*
X44238095Y-26452380D01*
X44523809Y-26452380D02*
X44523809Y-25452380D01*
X44428571Y-25595238D01*
X44333333Y-25690476D01*
X44238095Y-25738095D01*
%TO.C,J2*%
X83166666Y-39952380D02*
X83166666Y-40666666D01*
X83119047Y-40809523D01*
X83023809Y-40904761D01*
X82880952Y-40952380D01*
X82785714Y-40952380D01*
X83595238Y-40047619D02*
X83642857Y-40000000D01*
X83738095Y-39952380D01*
X83976190Y-39952380D01*
X84071428Y-40000000D01*
X84119047Y-40047619D01*
X84166666Y-40142857D01*
X84166666Y-40238095D01*
X84119047Y-40380952D01*
X83547619Y-40952380D01*
X84166666Y-40952380D01*
%TO.C,C13*%
X69357142Y-24607142D02*
X69309523Y-24654761D01*
X69166666Y-24702380D01*
X69071428Y-24702380D01*
X68928571Y-24654761D01*
X68833333Y-24559523D01*
X68785714Y-24464285D01*
X68738095Y-24273809D01*
X68738095Y-24130952D01*
X68785714Y-23940476D01*
X68833333Y-23845238D01*
X68928571Y-23750000D01*
X69071428Y-23702380D01*
X69166666Y-23702380D01*
X69309523Y-23750000D01*
X69357142Y-23797619D01*
X70309523Y-24702380D02*
X69738095Y-24702380D01*
X70023809Y-24702380D02*
X70023809Y-23702380D01*
X69928571Y-23845238D01*
X69833333Y-23940476D01*
X69738095Y-23988095D01*
X70642857Y-23702380D02*
X71261904Y-23702380D01*
X70928571Y-24083333D01*
X71071428Y-24083333D01*
X71166666Y-24130952D01*
X71214285Y-24178571D01*
X71261904Y-24273809D01*
X71261904Y-24511904D01*
X71214285Y-24607142D01*
X71166666Y-24654761D01*
X71071428Y-24702380D01*
X70785714Y-24702380D01*
X70690476Y-24654761D01*
X70642857Y-24607142D01*
%TO.C,C9*%
X69833333Y-32107142D02*
X69785714Y-32154761D01*
X69642857Y-32202380D01*
X69547619Y-32202380D01*
X69404761Y-32154761D01*
X69309523Y-32059523D01*
X69261904Y-31964285D01*
X69214285Y-31773809D01*
X69214285Y-31630952D01*
X69261904Y-31440476D01*
X69309523Y-31345238D01*
X69404761Y-31250000D01*
X69547619Y-31202380D01*
X69642857Y-31202380D01*
X69785714Y-31250000D01*
X69833333Y-31297619D01*
X70309523Y-32202380D02*
X70500000Y-32202380D01*
X70595238Y-32154761D01*
X70642857Y-32107142D01*
X70738095Y-31964285D01*
X70785714Y-31773809D01*
X70785714Y-31392857D01*
X70738095Y-31297619D01*
X70690476Y-31250000D01*
X70595238Y-31202380D01*
X70404761Y-31202380D01*
X70309523Y-31250000D01*
X70261904Y-31297619D01*
X70214285Y-31392857D01*
X70214285Y-31630952D01*
X70261904Y-31726190D01*
X70309523Y-31773809D01*
X70404761Y-31821428D01*
X70595238Y-31821428D01*
X70690476Y-31773809D01*
X70738095Y-31726190D01*
X70785714Y-31630952D01*
%TO.C,J1*%
X59916666Y-19952380D02*
X59916666Y-20666666D01*
X59869047Y-20809523D01*
X59773809Y-20904761D01*
X59630952Y-20952380D01*
X59535714Y-20952380D01*
X60916666Y-20952380D02*
X60345238Y-20952380D01*
X60630952Y-20952380D02*
X60630952Y-19952380D01*
X60535714Y-20095238D01*
X60440476Y-20190476D01*
X60345238Y-20238095D01*
%TO.C,SW6*%
X39666666Y-64904761D02*
X39809523Y-64952380D01*
X40047619Y-64952380D01*
X40142857Y-64904761D01*
X40190476Y-64857142D01*
X40238095Y-64761904D01*
X40238095Y-64666666D01*
X40190476Y-64571428D01*
X40142857Y-64523809D01*
X40047619Y-64476190D01*
X39857142Y-64428571D01*
X39761904Y-64380952D01*
X39714285Y-64333333D01*
X39666666Y-64238095D01*
X39666666Y-64142857D01*
X39714285Y-64047619D01*
X39761904Y-64000000D01*
X39857142Y-63952380D01*
X40095238Y-63952380D01*
X40238095Y-64000000D01*
X40571428Y-63952380D02*
X40809523Y-64952380D01*
X41000000Y-64238095D01*
X41190476Y-64952380D01*
X41428571Y-63952380D01*
X42238095Y-63952380D02*
X42047619Y-63952380D01*
X41952380Y-64000000D01*
X41904761Y-64047619D01*
X41809523Y-64190476D01*
X41761904Y-64380952D01*
X41761904Y-64761904D01*
X41809523Y-64857142D01*
X41857142Y-64904761D01*
X41952380Y-64952380D01*
X42142857Y-64952380D01*
X42238095Y-64904761D01*
X42285714Y-64857142D01*
X42333333Y-64761904D01*
X42333333Y-64523809D01*
X42285714Y-64428571D01*
X42238095Y-64380952D01*
X42142857Y-64333333D01*
X41952380Y-64333333D01*
X41857142Y-64380952D01*
X41809523Y-64428571D01*
X41761904Y-64523809D01*
%TO.C,SW5*%
X28666666Y-64904761D02*
X28809523Y-64952380D01*
X29047619Y-64952380D01*
X29142857Y-64904761D01*
X29190476Y-64857142D01*
X29238095Y-64761904D01*
X29238095Y-64666666D01*
X29190476Y-64571428D01*
X29142857Y-64523809D01*
X29047619Y-64476190D01*
X28857142Y-64428571D01*
X28761904Y-64380952D01*
X28714285Y-64333333D01*
X28666666Y-64238095D01*
X28666666Y-64142857D01*
X28714285Y-64047619D01*
X28761904Y-64000000D01*
X28857142Y-63952380D01*
X29095238Y-63952380D01*
X29238095Y-64000000D01*
X29571428Y-63952380D02*
X29809523Y-64952380D01*
X30000000Y-64238095D01*
X30190476Y-64952380D01*
X30428571Y-63952380D01*
X31285714Y-63952380D02*
X30809523Y-63952380D01*
X30761904Y-64428571D01*
X30809523Y-64380952D01*
X30904761Y-64333333D01*
X31142857Y-64333333D01*
X31238095Y-64380952D01*
X31285714Y-64428571D01*
X31333333Y-64523809D01*
X31333333Y-64761904D01*
X31285714Y-64857142D01*
X31238095Y-64904761D01*
X31142857Y-64952380D01*
X30904761Y-64952380D01*
X30809523Y-64904761D01*
X30761904Y-64857142D01*
%TO.C,SW4*%
X68666666Y-64904761D02*
X68809523Y-64952380D01*
X69047619Y-64952380D01*
X69142857Y-64904761D01*
X69190476Y-64857142D01*
X69238095Y-64761904D01*
X69238095Y-64666666D01*
X69190476Y-64571428D01*
X69142857Y-64523809D01*
X69047619Y-64476190D01*
X68857142Y-64428571D01*
X68761904Y-64380952D01*
X68714285Y-64333333D01*
X68666666Y-64238095D01*
X68666666Y-64142857D01*
X68714285Y-64047619D01*
X68761904Y-64000000D01*
X68857142Y-63952380D01*
X69095238Y-63952380D01*
X69238095Y-64000000D01*
X69571428Y-63952380D02*
X69809523Y-64952380D01*
X70000000Y-64238095D01*
X70190476Y-64952380D01*
X70428571Y-63952380D01*
X71238095Y-64285714D02*
X71238095Y-64952380D01*
X71000000Y-63904761D02*
X70761904Y-64619047D01*
X71380952Y-64619047D01*
%TO.C,SW3*%
X57666666Y-64904761D02*
X57809523Y-64952380D01*
X58047619Y-64952380D01*
X58142857Y-64904761D01*
X58190476Y-64857142D01*
X58238095Y-64761904D01*
X58238095Y-64666666D01*
X58190476Y-64571428D01*
X58142857Y-64523809D01*
X58047619Y-64476190D01*
X57857142Y-64428571D01*
X57761904Y-64380952D01*
X57714285Y-64333333D01*
X57666666Y-64238095D01*
X57666666Y-64142857D01*
X57714285Y-64047619D01*
X57761904Y-64000000D01*
X57857142Y-63952380D01*
X58095238Y-63952380D01*
X58238095Y-64000000D01*
X58571428Y-63952380D02*
X58809523Y-64952380D01*
X59000000Y-64238095D01*
X59190476Y-64952380D01*
X59428571Y-63952380D01*
X59714285Y-63952380D02*
X60333333Y-63952380D01*
X60000000Y-64333333D01*
X60142857Y-64333333D01*
X60238095Y-64380952D01*
X60285714Y-64428571D01*
X60333333Y-64523809D01*
X60333333Y-64761904D01*
X60285714Y-64857142D01*
X60238095Y-64904761D01*
X60142857Y-64952380D01*
X59857142Y-64952380D01*
X59761904Y-64904761D01*
X59714285Y-64857142D01*
%TO.C,SW2*%
X31154761Y-25373333D02*
X31202380Y-25230476D01*
X31202380Y-24992380D01*
X31154761Y-24897142D01*
X31107142Y-24849523D01*
X31011904Y-24801904D01*
X30916666Y-24801904D01*
X30821428Y-24849523D01*
X30773809Y-24897142D01*
X30726190Y-24992380D01*
X30678571Y-25182857D01*
X30630952Y-25278095D01*
X30583333Y-25325714D01*
X30488095Y-25373333D01*
X30392857Y-25373333D01*
X30297619Y-25325714D01*
X30250000Y-25278095D01*
X30202380Y-25182857D01*
X30202380Y-24944761D01*
X30250000Y-24801904D01*
X30202380Y-24468571D02*
X31202380Y-24230476D01*
X30488095Y-24040000D01*
X31202380Y-23849523D01*
X30202380Y-23611428D01*
X30297619Y-23278095D02*
X30250000Y-23230476D01*
X30202380Y-23135238D01*
X30202380Y-22897142D01*
X30250000Y-22801904D01*
X30297619Y-22754285D01*
X30392857Y-22706666D01*
X30488095Y-22706666D01*
X30630952Y-22754285D01*
X31202380Y-23325714D01*
X31202380Y-22706666D01*
%TO.C,SW1*%
X34904761Y-25333333D02*
X34952380Y-25190476D01*
X34952380Y-24952380D01*
X34904761Y-24857142D01*
X34857142Y-24809523D01*
X34761904Y-24761904D01*
X34666666Y-24761904D01*
X34571428Y-24809523D01*
X34523809Y-24857142D01*
X34476190Y-24952380D01*
X34428571Y-25142857D01*
X34380952Y-25238095D01*
X34333333Y-25285714D01*
X34238095Y-25333333D01*
X34142857Y-25333333D01*
X34047619Y-25285714D01*
X34000000Y-25238095D01*
X33952380Y-25142857D01*
X33952380Y-24904761D01*
X34000000Y-24761904D01*
X33952380Y-24428571D02*
X34952380Y-24190476D01*
X34238095Y-24000000D01*
X34952380Y-23809523D01*
X33952380Y-23571428D01*
X34952380Y-22666666D02*
X34952380Y-23238095D01*
X34952380Y-22952380D02*
X33952380Y-22952380D01*
X34095238Y-23047619D01*
X34190476Y-23142857D01*
X34238095Y-23238095D01*
%TD*%
%LPC*%
D11*
%TO.C,J2*%
X84650000Y-37100000D02*
X84650000Y-38500000D01*
X82950000Y-37100000D02*
X82950000Y-38500000D01*
X84650000Y-38500000D02*
X82950000Y-38500000D01*
D15*
G36*
X82950000Y-38500000D02*
G01*
X82950000Y-37100000D01*
X84650000Y-37100000D01*
X84650000Y-38500000D01*
X82950000Y-38500000D01*
G37*
X82950000Y-38500000D02*
X82950000Y-37100000D01*
X84650000Y-37100000D01*
X84650000Y-38500000D01*
X82950000Y-38500000D01*
D11*
X84650000Y-29900000D02*
X84650000Y-28500000D01*
X82950000Y-28500000D02*
X84650000Y-28500000D01*
D15*
G36*
X84650000Y-28500000D02*
G01*
X84650000Y-29900000D01*
X82950000Y-29900000D01*
X82950000Y-28500000D01*
X84650000Y-28500000D01*
G37*
X84650000Y-28500000D02*
X84650000Y-29900000D01*
X82950000Y-29900000D01*
X82950000Y-28500000D01*
X84650000Y-28500000D01*
D11*
X82950000Y-29900000D02*
X82950000Y-28500000D01*
%TD*%
%TO.C,C12*%
G36*
G01*
X76225000Y-26099998D02*
X76225000Y-27400002D01*
G75*
G02*
X75975002Y-27650000I-249998J0D01*
G01*
X75149998Y-27650000D01*
G75*
G02*
X74900000Y-27400002I0J249998D01*
G01*
X74900000Y-26099998D01*
G75*
G02*
X75149998Y-25850000I249998J0D01*
G01*
X75975002Y-25850000D01*
G75*
G02*
X76225000Y-26099998I0J-249998D01*
G01*
G37*
G36*
G01*
X73100000Y-26099998D02*
X73100000Y-27400002D01*
G75*
G02*
X72850002Y-27650000I-249998J0D01*
G01*
X72024998Y-27650000D01*
G75*
G02*
X71775000Y-27400002I0J249998D01*
G01*
X71775000Y-26099998D01*
G75*
G02*
X72024998Y-25850000I249998J0D01*
G01*
X72850002Y-25850000D01*
G75*
G02*
X73100000Y-26099998I0J-249998D01*
G01*
G37*
%TD*%
D16*
%TO.C,LED1*%
X42380000Y-42380000D03*
X44920000Y-42380000D03*
X47460000Y-42380000D03*
X50000000Y-42380000D03*
X52540000Y-42380000D03*
X55080000Y-42380000D03*
X57620000Y-42380000D03*
X57620000Y-57620000D03*
X55080000Y-57620000D03*
X52540000Y-57620000D03*
X50000000Y-57620000D03*
X47460000Y-57620000D03*
X44920000Y-57620000D03*
X42380000Y-57620000D03*
%TD*%
%TO.C,C10*%
G36*
G01*
X73100000Y-28599998D02*
X73100000Y-29900002D01*
G75*
G02*
X72850002Y-30150000I-249998J0D01*
G01*
X72024998Y-30150000D01*
G75*
G02*
X71775000Y-29900002I0J249998D01*
G01*
X71775000Y-28599998D01*
G75*
G02*
X72024998Y-28350000I249998J0D01*
G01*
X72850002Y-28350000D01*
G75*
G02*
X73100000Y-28599998I0J-249998D01*
G01*
G37*
G36*
G01*
X76225000Y-28599998D02*
X76225000Y-29900002D01*
G75*
G02*
X75975002Y-30150000I-249998J0D01*
G01*
X75149998Y-30150000D01*
G75*
G02*
X74900000Y-29900002I0J249998D01*
G01*
X74900000Y-28599998D01*
G75*
G02*
X75149998Y-28350000I249998J0D01*
G01*
X75975002Y-28350000D01*
G75*
G02*
X76225000Y-28599998I0J-249998D01*
G01*
G37*
%TD*%
D17*
%TO.C,J6*%
X18750000Y-23000000D03*
%TD*%
%TO.C,J5*%
X18750000Y-69000000D03*
%TD*%
%TO.C,J4*%
X81000000Y-23000000D03*
%TD*%
%TO.C,J3*%
X81250000Y-69000000D03*
%TD*%
D18*
%TO.C,U1*%
X41210000Y-25200000D03*
X41210000Y-26700000D03*
X41210000Y-28200000D03*
X41210000Y-29700000D03*
X41210000Y-31200000D03*
X41210000Y-32700000D03*
X41210000Y-34200000D03*
X41210000Y-35700000D03*
X41210000Y-37200000D03*
X58710000Y-37200000D03*
X58710000Y-35700000D03*
X58710000Y-34200000D03*
X58710000Y-32700000D03*
X58710000Y-31200000D03*
X58710000Y-29700000D03*
X58710000Y-28200000D03*
X58710000Y-26700000D03*
X58710000Y-25200000D03*
D19*
X51060000Y-33710000D03*
%TD*%
D20*
%TO.C,J2*%
X83800000Y-29900000D03*
G36*
G01*
X84300000Y-35000000D02*
X83300000Y-35000000D01*
G75*
G02*
X82800000Y-34500000I0J500000D01*
G01*
X82800000Y-32500000D01*
G75*
G02*
X83300000Y-32000000I500000J0D01*
G01*
X84300000Y-32000000D01*
G75*
G02*
X84800000Y-32500000I0J-500000D01*
G01*
X84800000Y-34500000D01*
G75*
G02*
X84300000Y-35000000I-500000J0D01*
G01*
G37*
D21*
X81000000Y-32150000D03*
X81000000Y-32850000D03*
X81000000Y-33500000D03*
X81000000Y-34150000D03*
X81000000Y-34800000D03*
D22*
X81000000Y-31075000D03*
X81000000Y-35925000D03*
D20*
X83800000Y-29900000D03*
X83800000Y-37100000D03*
%TD*%
%TO.C,C13*%
G36*
G01*
X76225000Y-23599998D02*
X76225000Y-24900002D01*
G75*
G02*
X75975002Y-25150000I-249998J0D01*
G01*
X75149998Y-25150000D01*
G75*
G02*
X74900000Y-24900002I0J249998D01*
G01*
X74900000Y-23599998D01*
G75*
G02*
X75149998Y-23350000I249998J0D01*
G01*
X75975002Y-23350000D01*
G75*
G02*
X76225000Y-23599998I0J-249998D01*
G01*
G37*
G36*
G01*
X73100000Y-23599998D02*
X73100000Y-24900002D01*
G75*
G02*
X72850002Y-25150000I-249998J0D01*
G01*
X72024998Y-25150000D01*
G75*
G02*
X71775000Y-24900002I0J249998D01*
G01*
X71775000Y-23599998D01*
G75*
G02*
X72024998Y-23350000I249998J0D01*
G01*
X72850002Y-23350000D01*
G75*
G02*
X73100000Y-23599998I0J-249998D01*
G01*
G37*
%TD*%
%TO.C,C9*%
G36*
G01*
X73100000Y-31099998D02*
X73100000Y-32400002D01*
G75*
G02*
X72850002Y-32650000I-249998J0D01*
G01*
X72024998Y-32650000D01*
G75*
G02*
X71775000Y-32400002I0J249998D01*
G01*
X71775000Y-31099998D01*
G75*
G02*
X72024998Y-30850000I249998J0D01*
G01*
X72850002Y-30850000D01*
G75*
G02*
X73100000Y-31099998I0J-249998D01*
G01*
G37*
G36*
G01*
X76225000Y-31099998D02*
X76225000Y-32400002D01*
G75*
G02*
X75975002Y-32650000I-249998J0D01*
G01*
X75149998Y-32650000D01*
G75*
G02*
X74900000Y-32400002I0J249998D01*
G01*
X74900000Y-31099998D01*
G75*
G02*
X75149998Y-30850000I249998J0D01*
G01*
X75975002Y-30850000D01*
G75*
G02*
X76225000Y-31099998I0J-249998D01*
G01*
G37*
%TD*%
D23*
%TO.C,J1*%
X62681281Y-20534799D03*
X65221281Y-20534799D03*
X67761281Y-20534799D03*
D24*
X70301281Y-20534799D03*
%TD*%
D25*
%TO.C,SW6*%
X44975000Y-62250000D03*
X44975000Y-66750000D03*
X37025000Y-66750000D03*
X37025000Y-62250000D03*
%TD*%
%TO.C,SW5*%
X33975000Y-62250000D03*
X33975000Y-66750000D03*
X26025000Y-66750000D03*
X26025000Y-62250000D03*
%TD*%
%TO.C,SW4*%
X73975000Y-62250000D03*
X73975000Y-66750000D03*
X66025000Y-66750000D03*
X66025000Y-62250000D03*
%TD*%
%TO.C,SW3*%
X62975000Y-62250000D03*
X62975000Y-66750000D03*
X55025000Y-66750000D03*
X55025000Y-62250000D03*
%TD*%
D26*
%TO.C,SW2*%
X30750000Y-27940000D03*
X30750000Y-20140000D03*
%TD*%
%TO.C,SW1*%
X34500000Y-27940000D03*
X34500000Y-20140000D03*
%TD*%
M02*
