%TF.GenerationSoftware,KiCad,Pcbnew,(5.1.10)-1*%
%TF.CreationDate,2021-10-03T21:55:55+02:00*%
%TF.ProjectId,KitchenTimer,4b697463-6865-46e5-9469-6d65722e6b69,rev?*%
%TF.SameCoordinates,Original*%
%TF.FileFunction,Soldermask,Bot*%
%TF.FilePolarity,Negative*%
%FSLAX46Y46*%
G04 Gerber Fmt 4.6, Leading zero omitted, Abs format (unit mm)*
G04 Created by KiCad (PCBNEW (5.1.10)-1) date 2021-10-03 21:55:55*
%MOMM*%
%LPD*%
G01*
G04 APERTURE LIST*
%ADD10C,1.500000*%
%ADD11C,5.600000*%
%ADD12R,3.800000X2.000000*%
%ADD13R,1.500000X2.000000*%
%ADD14R,0.800000X0.900000*%
%ADD15O,1.800000X1.100000*%
%ADD16C,1.290000*%
%ADD17O,1.700000X1.700000*%
%ADD18R,1.700000X1.700000*%
G04 APERTURE END LIST*
D10*
%TO.C,LED1*%
X42380000Y-42380000D03*
X44920000Y-42380000D03*
X47460000Y-42380000D03*
X50000000Y-42380000D03*
X52540000Y-42380000D03*
X55080000Y-42380000D03*
X57620000Y-42380000D03*
X57620000Y-57620000D03*
X55080000Y-57620000D03*
X52540000Y-57620000D03*
X50000000Y-57620000D03*
X47460000Y-57620000D03*
X44920000Y-57620000D03*
X42380000Y-57620000D03*
%TD*%
%TO.C,R20*%
G36*
G01*
X63425000Y-45737500D02*
X63425000Y-45262500D01*
G75*
G02*
X63662500Y-45025000I237500J0D01*
G01*
X64162500Y-45025000D01*
G75*
G02*
X64400000Y-45262500I0J-237500D01*
G01*
X64400000Y-45737500D01*
G75*
G02*
X64162500Y-45975000I-237500J0D01*
G01*
X63662500Y-45975000D01*
G75*
G02*
X63425000Y-45737500I0J237500D01*
G01*
G37*
G36*
G01*
X61600000Y-45737500D02*
X61600000Y-45262500D01*
G75*
G02*
X61837500Y-45025000I237500J0D01*
G01*
X62337500Y-45025000D01*
G75*
G02*
X62575000Y-45262500I0J-237500D01*
G01*
X62575000Y-45737500D01*
G75*
G02*
X62337500Y-45975000I-237500J0D01*
G01*
X61837500Y-45975000D01*
G75*
G02*
X61600000Y-45737500I0J237500D01*
G01*
G37*
%TD*%
%TO.C,C3*%
G36*
G01*
X74800000Y-36275000D02*
X74800000Y-37225000D01*
G75*
G02*
X74550000Y-37475000I-250000J0D01*
G01*
X73875000Y-37475000D01*
G75*
G02*
X73625000Y-37225000I0J250000D01*
G01*
X73625000Y-36275000D01*
G75*
G02*
X73875000Y-36025000I250000J0D01*
G01*
X74550000Y-36025000D01*
G75*
G02*
X74800000Y-36275000I0J-250000D01*
G01*
G37*
G36*
G01*
X76875000Y-36275000D02*
X76875000Y-37225000D01*
G75*
G02*
X76625000Y-37475000I-250000J0D01*
G01*
X75950000Y-37475000D01*
G75*
G02*
X75700000Y-37225000I0J250000D01*
G01*
X75700000Y-36275000D01*
G75*
G02*
X75950000Y-36025000I250000J0D01*
G01*
X76625000Y-36025000D01*
G75*
G02*
X76875000Y-36275000I0J-250000D01*
G01*
G37*
%TD*%
%TO.C,C4*%
G36*
G01*
X34300000Y-38525000D02*
X34300000Y-39475000D01*
G75*
G02*
X34050000Y-39725000I-250000J0D01*
G01*
X33375000Y-39725000D01*
G75*
G02*
X33125000Y-39475000I0J250000D01*
G01*
X33125000Y-38525000D01*
G75*
G02*
X33375000Y-38275000I250000J0D01*
G01*
X34050000Y-38275000D01*
G75*
G02*
X34300000Y-38525000I0J-250000D01*
G01*
G37*
G36*
G01*
X36375000Y-38525000D02*
X36375000Y-39475000D01*
G75*
G02*
X36125000Y-39725000I-250000J0D01*
G01*
X35450000Y-39725000D01*
G75*
G02*
X35200000Y-39475000I0J250000D01*
G01*
X35200000Y-38525000D01*
G75*
G02*
X35450000Y-38275000I250000J0D01*
G01*
X36125000Y-38275000D01*
G75*
G02*
X36375000Y-38525000I0J-250000D01*
G01*
G37*
%TD*%
%TO.C,R1*%
G36*
G01*
X27299999Y-32900000D02*
X28200001Y-32900000D01*
G75*
G02*
X28450000Y-33149999I0J-249999D01*
G01*
X28450000Y-33850001D01*
G75*
G02*
X28200001Y-34100000I-249999J0D01*
G01*
X27299999Y-34100000D01*
G75*
G02*
X27050000Y-33850001I0J249999D01*
G01*
X27050000Y-33149999D01*
G75*
G02*
X27299999Y-32900000I249999J0D01*
G01*
G37*
G36*
G01*
X27299999Y-30900000D02*
X28200001Y-30900000D01*
G75*
G02*
X28450000Y-31149999I0J-249999D01*
G01*
X28450000Y-31850001D01*
G75*
G02*
X28200001Y-32100000I-249999J0D01*
G01*
X27299999Y-32100000D01*
G75*
G02*
X27050000Y-31850001I0J249999D01*
G01*
X27050000Y-31149999D01*
G75*
G02*
X27299999Y-30900000I249999J0D01*
G01*
G37*
%TD*%
%TO.C,R2*%
G36*
G01*
X29400000Y-23700001D02*
X29400000Y-22799999D01*
G75*
G02*
X29649999Y-22550000I249999J0D01*
G01*
X30350001Y-22550000D01*
G75*
G02*
X30600000Y-22799999I0J-249999D01*
G01*
X30600000Y-23700001D01*
G75*
G02*
X30350001Y-23950000I-249999J0D01*
G01*
X29649999Y-23950000D01*
G75*
G02*
X29400000Y-23700001I0J249999D01*
G01*
G37*
G36*
G01*
X27400000Y-23700001D02*
X27400000Y-22799999D01*
G75*
G02*
X27649999Y-22550000I249999J0D01*
G01*
X28350001Y-22550000D01*
G75*
G02*
X28600000Y-22799999I0J-249999D01*
G01*
X28600000Y-23700001D01*
G75*
G02*
X28350001Y-23950000I-249999J0D01*
G01*
X27649999Y-23950000D01*
G75*
G02*
X27400000Y-23700001I0J249999D01*
G01*
G37*
%TD*%
%TO.C,R5*%
G36*
G01*
X33506500Y-50425000D02*
X33981500Y-50425000D01*
G75*
G02*
X34219000Y-50662500I0J-237500D01*
G01*
X34219000Y-51162500D01*
G75*
G02*
X33981500Y-51400000I-237500J0D01*
G01*
X33506500Y-51400000D01*
G75*
G02*
X33269000Y-51162500I0J237500D01*
G01*
X33269000Y-50662500D01*
G75*
G02*
X33506500Y-50425000I237500J0D01*
G01*
G37*
G36*
G01*
X33506500Y-48600000D02*
X33981500Y-48600000D01*
G75*
G02*
X34219000Y-48837500I0J-237500D01*
G01*
X34219000Y-49337500D01*
G75*
G02*
X33981500Y-49575000I-237500J0D01*
G01*
X33506500Y-49575000D01*
G75*
G02*
X33269000Y-49337500I0J237500D01*
G01*
X33269000Y-48837500D01*
G75*
G02*
X33506500Y-48600000I237500J0D01*
G01*
G37*
%TD*%
%TO.C,R3*%
G36*
G01*
X33506500Y-43313000D02*
X33981500Y-43313000D01*
G75*
G02*
X34219000Y-43550500I0J-237500D01*
G01*
X34219000Y-44050500D01*
G75*
G02*
X33981500Y-44288000I-237500J0D01*
G01*
X33506500Y-44288000D01*
G75*
G02*
X33269000Y-44050500I0J237500D01*
G01*
X33269000Y-43550500D01*
G75*
G02*
X33506500Y-43313000I237500J0D01*
G01*
G37*
G36*
G01*
X33506500Y-41488000D02*
X33981500Y-41488000D01*
G75*
G02*
X34219000Y-41725500I0J-237500D01*
G01*
X34219000Y-42225500D01*
G75*
G02*
X33981500Y-42463000I-237500J0D01*
G01*
X33506500Y-42463000D01*
G75*
G02*
X33269000Y-42225500I0J237500D01*
G01*
X33269000Y-41725500D01*
G75*
G02*
X33506500Y-41488000I237500J0D01*
G01*
G37*
%TD*%
%TO.C,R4*%
G36*
G01*
X33506500Y-46869000D02*
X33981500Y-46869000D01*
G75*
G02*
X34219000Y-47106500I0J-237500D01*
G01*
X34219000Y-47606500D01*
G75*
G02*
X33981500Y-47844000I-237500J0D01*
G01*
X33506500Y-47844000D01*
G75*
G02*
X33269000Y-47606500I0J237500D01*
G01*
X33269000Y-47106500D01*
G75*
G02*
X33506500Y-46869000I237500J0D01*
G01*
G37*
G36*
G01*
X33506500Y-45044000D02*
X33981500Y-45044000D01*
G75*
G02*
X34219000Y-45281500I0J-237500D01*
G01*
X34219000Y-45781500D01*
G75*
G02*
X33981500Y-46019000I-237500J0D01*
G01*
X33506500Y-46019000D01*
G75*
G02*
X33269000Y-45781500I0J237500D01*
G01*
X33269000Y-45281500D01*
G75*
G02*
X33506500Y-45044000I237500J0D01*
G01*
G37*
%TD*%
%TO.C,U3*%
G36*
G01*
X31735000Y-42782000D02*
X31435000Y-42782000D01*
G75*
G02*
X31285000Y-42632000I0J150000D01*
G01*
X31285000Y-40982000D01*
G75*
G02*
X31435000Y-40832000I150000J0D01*
G01*
X31735000Y-40832000D01*
G75*
G02*
X31885000Y-40982000I0J-150000D01*
G01*
X31885000Y-42632000D01*
G75*
G02*
X31735000Y-42782000I-150000J0D01*
G01*
G37*
G36*
G01*
X30465000Y-42782000D02*
X30165000Y-42782000D01*
G75*
G02*
X30015000Y-42632000I0J150000D01*
G01*
X30015000Y-40982000D01*
G75*
G02*
X30165000Y-40832000I150000J0D01*
G01*
X30465000Y-40832000D01*
G75*
G02*
X30615000Y-40982000I0J-150000D01*
G01*
X30615000Y-42632000D01*
G75*
G02*
X30465000Y-42782000I-150000J0D01*
G01*
G37*
G36*
G01*
X29195000Y-42782000D02*
X28895000Y-42782000D01*
G75*
G02*
X28745000Y-42632000I0J150000D01*
G01*
X28745000Y-40982000D01*
G75*
G02*
X28895000Y-40832000I150000J0D01*
G01*
X29195000Y-40832000D01*
G75*
G02*
X29345000Y-40982000I0J-150000D01*
G01*
X29345000Y-42632000D01*
G75*
G02*
X29195000Y-42782000I-150000J0D01*
G01*
G37*
G36*
G01*
X27925000Y-42782000D02*
X27625000Y-42782000D01*
G75*
G02*
X27475000Y-42632000I0J150000D01*
G01*
X27475000Y-40982000D01*
G75*
G02*
X27625000Y-40832000I150000J0D01*
G01*
X27925000Y-40832000D01*
G75*
G02*
X28075000Y-40982000I0J-150000D01*
G01*
X28075000Y-42632000D01*
G75*
G02*
X27925000Y-42782000I-150000J0D01*
G01*
G37*
G36*
G01*
X26655000Y-42782000D02*
X26355000Y-42782000D01*
G75*
G02*
X26205000Y-42632000I0J150000D01*
G01*
X26205000Y-40982000D01*
G75*
G02*
X26355000Y-40832000I150000J0D01*
G01*
X26655000Y-40832000D01*
G75*
G02*
X26805000Y-40982000I0J-150000D01*
G01*
X26805000Y-42632000D01*
G75*
G02*
X26655000Y-42782000I-150000J0D01*
G01*
G37*
G36*
G01*
X25385000Y-42782000D02*
X25085000Y-42782000D01*
G75*
G02*
X24935000Y-42632000I0J150000D01*
G01*
X24935000Y-40982000D01*
G75*
G02*
X25085000Y-40832000I150000J0D01*
G01*
X25385000Y-40832000D01*
G75*
G02*
X25535000Y-40982000I0J-150000D01*
G01*
X25535000Y-42632000D01*
G75*
G02*
X25385000Y-42782000I-150000J0D01*
G01*
G37*
G36*
G01*
X24115000Y-42782000D02*
X23815000Y-42782000D01*
G75*
G02*
X23665000Y-42632000I0J150000D01*
G01*
X23665000Y-40982000D01*
G75*
G02*
X23815000Y-40832000I150000J0D01*
G01*
X24115000Y-40832000D01*
G75*
G02*
X24265000Y-40982000I0J-150000D01*
G01*
X24265000Y-42632000D01*
G75*
G02*
X24115000Y-42782000I-150000J0D01*
G01*
G37*
G36*
G01*
X22845000Y-42782000D02*
X22545000Y-42782000D01*
G75*
G02*
X22395000Y-42632000I0J150000D01*
G01*
X22395000Y-40982000D01*
G75*
G02*
X22545000Y-40832000I150000J0D01*
G01*
X22845000Y-40832000D01*
G75*
G02*
X22995000Y-40982000I0J-150000D01*
G01*
X22995000Y-42632000D01*
G75*
G02*
X22845000Y-42782000I-150000J0D01*
G01*
G37*
G36*
G01*
X22845000Y-37832000D02*
X22545000Y-37832000D01*
G75*
G02*
X22395000Y-37682000I0J150000D01*
G01*
X22395000Y-36032000D01*
G75*
G02*
X22545000Y-35882000I150000J0D01*
G01*
X22845000Y-35882000D01*
G75*
G02*
X22995000Y-36032000I0J-150000D01*
G01*
X22995000Y-37682000D01*
G75*
G02*
X22845000Y-37832000I-150000J0D01*
G01*
G37*
G36*
G01*
X24115000Y-37832000D02*
X23815000Y-37832000D01*
G75*
G02*
X23665000Y-37682000I0J150000D01*
G01*
X23665000Y-36032000D01*
G75*
G02*
X23815000Y-35882000I150000J0D01*
G01*
X24115000Y-35882000D01*
G75*
G02*
X24265000Y-36032000I0J-150000D01*
G01*
X24265000Y-37682000D01*
G75*
G02*
X24115000Y-37832000I-150000J0D01*
G01*
G37*
G36*
G01*
X25385000Y-37832000D02*
X25085000Y-37832000D01*
G75*
G02*
X24935000Y-37682000I0J150000D01*
G01*
X24935000Y-36032000D01*
G75*
G02*
X25085000Y-35882000I150000J0D01*
G01*
X25385000Y-35882000D01*
G75*
G02*
X25535000Y-36032000I0J-150000D01*
G01*
X25535000Y-37682000D01*
G75*
G02*
X25385000Y-37832000I-150000J0D01*
G01*
G37*
G36*
G01*
X26655000Y-37832000D02*
X26355000Y-37832000D01*
G75*
G02*
X26205000Y-37682000I0J150000D01*
G01*
X26205000Y-36032000D01*
G75*
G02*
X26355000Y-35882000I150000J0D01*
G01*
X26655000Y-35882000D01*
G75*
G02*
X26805000Y-36032000I0J-150000D01*
G01*
X26805000Y-37682000D01*
G75*
G02*
X26655000Y-37832000I-150000J0D01*
G01*
G37*
G36*
G01*
X27925000Y-37832000D02*
X27625000Y-37832000D01*
G75*
G02*
X27475000Y-37682000I0J150000D01*
G01*
X27475000Y-36032000D01*
G75*
G02*
X27625000Y-35882000I150000J0D01*
G01*
X27925000Y-35882000D01*
G75*
G02*
X28075000Y-36032000I0J-150000D01*
G01*
X28075000Y-37682000D01*
G75*
G02*
X27925000Y-37832000I-150000J0D01*
G01*
G37*
G36*
G01*
X29195000Y-37832000D02*
X28895000Y-37832000D01*
G75*
G02*
X28745000Y-37682000I0J150000D01*
G01*
X28745000Y-36032000D01*
G75*
G02*
X28895000Y-35882000I150000J0D01*
G01*
X29195000Y-35882000D01*
G75*
G02*
X29345000Y-36032000I0J-150000D01*
G01*
X29345000Y-37682000D01*
G75*
G02*
X29195000Y-37832000I-150000J0D01*
G01*
G37*
G36*
G01*
X30465000Y-37832000D02*
X30165000Y-37832000D01*
G75*
G02*
X30015000Y-37682000I0J150000D01*
G01*
X30015000Y-36032000D01*
G75*
G02*
X30165000Y-35882000I150000J0D01*
G01*
X30465000Y-35882000D01*
G75*
G02*
X30615000Y-36032000I0J-150000D01*
G01*
X30615000Y-37682000D01*
G75*
G02*
X30465000Y-37832000I-150000J0D01*
G01*
G37*
G36*
G01*
X31735000Y-37832000D02*
X31435000Y-37832000D01*
G75*
G02*
X31285000Y-37682000I0J150000D01*
G01*
X31285000Y-36032000D01*
G75*
G02*
X31435000Y-35882000I150000J0D01*
G01*
X31735000Y-35882000D01*
G75*
G02*
X31885000Y-36032000I0J-150000D01*
G01*
X31885000Y-37682000D01*
G75*
G02*
X31735000Y-37832000I-150000J0D01*
G01*
G37*
%TD*%
D11*
%TO.C,J6*%
X18750000Y-23000000D03*
%TD*%
%TO.C,J5*%
X18750000Y-69000000D03*
%TD*%
%TO.C,J4*%
X81000000Y-23000000D03*
%TD*%
%TO.C,J3*%
X81250000Y-69000000D03*
%TD*%
D12*
%TO.C,U4*%
X74250000Y-24100000D03*
D13*
X74250000Y-30400000D03*
X71950000Y-30400000D03*
X76550000Y-30400000D03*
%TD*%
%TO.C,R11*%
G36*
G01*
X47450001Y-64850000D02*
X46549999Y-64850000D01*
G75*
G02*
X46300000Y-64600001I0J249999D01*
G01*
X46300000Y-63899999D01*
G75*
G02*
X46549999Y-63650000I249999J0D01*
G01*
X47450001Y-63650000D01*
G75*
G02*
X47700000Y-63899999I0J-249999D01*
G01*
X47700000Y-64600001D01*
G75*
G02*
X47450001Y-64850000I-249999J0D01*
G01*
G37*
G36*
G01*
X47450001Y-62850000D02*
X46549999Y-62850000D01*
G75*
G02*
X46300000Y-62600001I0J249999D01*
G01*
X46300000Y-61899999D01*
G75*
G02*
X46549999Y-61650000I249999J0D01*
G01*
X47450001Y-61650000D01*
G75*
G02*
X47700000Y-61899999I0J-249999D01*
G01*
X47700000Y-62600001D01*
G75*
G02*
X47450001Y-62850000I-249999J0D01*
G01*
G37*
%TD*%
%TO.C,R10*%
G36*
G01*
X28700001Y-64850000D02*
X27799999Y-64850000D01*
G75*
G02*
X27550000Y-64600001I0J249999D01*
G01*
X27550000Y-63899999D01*
G75*
G02*
X27799999Y-63650000I249999J0D01*
G01*
X28700001Y-63650000D01*
G75*
G02*
X28950000Y-63899999I0J-249999D01*
G01*
X28950000Y-64600001D01*
G75*
G02*
X28700001Y-64850000I-249999J0D01*
G01*
G37*
G36*
G01*
X28700001Y-62850000D02*
X27799999Y-62850000D01*
G75*
G02*
X27550000Y-62600001I0J249999D01*
G01*
X27550000Y-61899999D01*
G75*
G02*
X27799999Y-61650000I249999J0D01*
G01*
X28700001Y-61650000D01*
G75*
G02*
X28950000Y-61899999I0J-249999D01*
G01*
X28950000Y-62600001D01*
G75*
G02*
X28700001Y-62850000I-249999J0D01*
G01*
G37*
%TD*%
%TO.C,R9*%
G36*
G01*
X68700001Y-64850000D02*
X67799999Y-64850000D01*
G75*
G02*
X67550000Y-64600001I0J249999D01*
G01*
X67550000Y-63899999D01*
G75*
G02*
X67799999Y-63650000I249999J0D01*
G01*
X68700001Y-63650000D01*
G75*
G02*
X68950000Y-63899999I0J-249999D01*
G01*
X68950000Y-64600001D01*
G75*
G02*
X68700001Y-64850000I-249999J0D01*
G01*
G37*
G36*
G01*
X68700001Y-62850000D02*
X67799999Y-62850000D01*
G75*
G02*
X67550000Y-62600001I0J249999D01*
G01*
X67550000Y-61899999D01*
G75*
G02*
X67799999Y-61650000I249999J0D01*
G01*
X68700001Y-61650000D01*
G75*
G02*
X68950000Y-61899999I0J-249999D01*
G01*
X68950000Y-62600001D01*
G75*
G02*
X68700001Y-62850000I-249999J0D01*
G01*
G37*
%TD*%
%TO.C,R8*%
G36*
G01*
X53450001Y-64850000D02*
X52549999Y-64850000D01*
G75*
G02*
X52300000Y-64600001I0J249999D01*
G01*
X52300000Y-63899999D01*
G75*
G02*
X52549999Y-63650000I249999J0D01*
G01*
X53450001Y-63650000D01*
G75*
G02*
X53700000Y-63899999I0J-249999D01*
G01*
X53700000Y-64600001D01*
G75*
G02*
X53450001Y-64850000I-249999J0D01*
G01*
G37*
G36*
G01*
X53450001Y-62850000D02*
X52549999Y-62850000D01*
G75*
G02*
X52300000Y-62600001I0J249999D01*
G01*
X52300000Y-61899999D01*
G75*
G02*
X52549999Y-61650000I249999J0D01*
G01*
X53450001Y-61650000D01*
G75*
G02*
X53700000Y-61899999I0J-249999D01*
G01*
X53700000Y-62600001D01*
G75*
G02*
X53450001Y-62850000I-249999J0D01*
G01*
G37*
%TD*%
D14*
%TO.C,Q3*%
X35842000Y-49000000D03*
X37742000Y-49000000D03*
X36792000Y-51000000D03*
%TD*%
%TO.C,R7*%
G36*
G01*
X33506500Y-52156000D02*
X33981500Y-52156000D01*
G75*
G02*
X34219000Y-52393500I0J-237500D01*
G01*
X34219000Y-52893500D01*
G75*
G02*
X33981500Y-53131000I-237500J0D01*
G01*
X33506500Y-53131000D01*
G75*
G02*
X33269000Y-52893500I0J237500D01*
G01*
X33269000Y-52393500D01*
G75*
G02*
X33506500Y-52156000I237500J0D01*
G01*
G37*
G36*
G01*
X33506500Y-53981000D02*
X33981500Y-53981000D01*
G75*
G02*
X34219000Y-54218500I0J-237500D01*
G01*
X34219000Y-54718500D01*
G75*
G02*
X33981500Y-54956000I-237500J0D01*
G01*
X33506500Y-54956000D01*
G75*
G02*
X33269000Y-54718500I0J237500D01*
G01*
X33269000Y-54218500D01*
G75*
G02*
X33506500Y-53981000I237500J0D01*
G01*
G37*
%TD*%
%TO.C,Q4*%
X35842000Y-56112000D03*
X37742000Y-56112000D03*
X36792000Y-58112000D03*
%TD*%
%TO.C,R6*%
G36*
G01*
X33506500Y-55712000D02*
X33981500Y-55712000D01*
G75*
G02*
X34219000Y-55949500I0J-237500D01*
G01*
X34219000Y-56449500D01*
G75*
G02*
X33981500Y-56687000I-237500J0D01*
G01*
X33506500Y-56687000D01*
G75*
G02*
X33269000Y-56449500I0J237500D01*
G01*
X33269000Y-55949500D01*
G75*
G02*
X33506500Y-55712000I237500J0D01*
G01*
G37*
G36*
G01*
X33506500Y-57537000D02*
X33981500Y-57537000D01*
G75*
G02*
X34219000Y-57774500I0J-237500D01*
G01*
X34219000Y-58274500D01*
G75*
G02*
X33981500Y-58512000I-237500J0D01*
G01*
X33506500Y-58512000D01*
G75*
G02*
X33269000Y-58274500I0J237500D01*
G01*
X33269000Y-57774500D01*
G75*
G02*
X33506500Y-57537000I237500J0D01*
G01*
G37*
%TD*%
%TO.C,R19*%
G36*
G01*
X61600000Y-56237500D02*
X61600000Y-55762500D01*
G75*
G02*
X61837500Y-55525000I237500J0D01*
G01*
X62337500Y-55525000D01*
G75*
G02*
X62575000Y-55762500I0J-237500D01*
G01*
X62575000Y-56237500D01*
G75*
G02*
X62337500Y-56475000I-237500J0D01*
G01*
X61837500Y-56475000D01*
G75*
G02*
X61600000Y-56237500I0J237500D01*
G01*
G37*
G36*
G01*
X63425000Y-56237500D02*
X63425000Y-55762500D01*
G75*
G02*
X63662500Y-55525000I237500J0D01*
G01*
X64162500Y-55525000D01*
G75*
G02*
X64400000Y-55762500I0J-237500D01*
G01*
X64400000Y-56237500D01*
G75*
G02*
X64162500Y-56475000I-237500J0D01*
G01*
X63662500Y-56475000D01*
G75*
G02*
X63425000Y-56237500I0J237500D01*
G01*
G37*
%TD*%
%TO.C,Q5*%
X35842000Y-52556000D03*
X37742000Y-52556000D03*
X36792000Y-54556000D03*
%TD*%
%TO.C,R18*%
G36*
G01*
X61600000Y-59737500D02*
X61600000Y-59262500D01*
G75*
G02*
X61837500Y-59025000I237500J0D01*
G01*
X62337500Y-59025000D01*
G75*
G02*
X62575000Y-59262500I0J-237500D01*
G01*
X62575000Y-59737500D01*
G75*
G02*
X62337500Y-59975000I-237500J0D01*
G01*
X61837500Y-59975000D01*
G75*
G02*
X61600000Y-59737500I0J237500D01*
G01*
G37*
G36*
G01*
X63425000Y-59737500D02*
X63425000Y-59262500D01*
G75*
G02*
X63662500Y-59025000I237500J0D01*
G01*
X64162500Y-59025000D01*
G75*
G02*
X64400000Y-59262500I0J-237500D01*
G01*
X64400000Y-59737500D01*
G75*
G02*
X64162500Y-59975000I-237500J0D01*
G01*
X63662500Y-59975000D01*
G75*
G02*
X63425000Y-59737500I0J237500D01*
G01*
G37*
%TD*%
%TO.C,R17*%
G36*
G01*
X61600000Y-49237500D02*
X61600000Y-48762500D01*
G75*
G02*
X61837500Y-48525000I237500J0D01*
G01*
X62337500Y-48525000D01*
G75*
G02*
X62575000Y-48762500I0J-237500D01*
G01*
X62575000Y-49237500D01*
G75*
G02*
X62337500Y-49475000I-237500J0D01*
G01*
X61837500Y-49475000D01*
G75*
G02*
X61600000Y-49237500I0J237500D01*
G01*
G37*
G36*
G01*
X63425000Y-49237500D02*
X63425000Y-48762500D01*
G75*
G02*
X63662500Y-48525000I237500J0D01*
G01*
X64162500Y-48525000D01*
G75*
G02*
X64400000Y-48762500I0J-237500D01*
G01*
X64400000Y-49237500D01*
G75*
G02*
X64162500Y-49475000I-237500J0D01*
G01*
X63662500Y-49475000D01*
G75*
G02*
X63425000Y-49237500I0J237500D01*
G01*
G37*
%TD*%
%TO.C,U2*%
G36*
G01*
X72375000Y-42782000D02*
X72075000Y-42782000D01*
G75*
G02*
X71925000Y-42632000I0J150000D01*
G01*
X71925000Y-40982000D01*
G75*
G02*
X72075000Y-40832000I150000J0D01*
G01*
X72375000Y-40832000D01*
G75*
G02*
X72525000Y-40982000I0J-150000D01*
G01*
X72525000Y-42632000D01*
G75*
G02*
X72375000Y-42782000I-150000J0D01*
G01*
G37*
G36*
G01*
X71105000Y-42782000D02*
X70805000Y-42782000D01*
G75*
G02*
X70655000Y-42632000I0J150000D01*
G01*
X70655000Y-40982000D01*
G75*
G02*
X70805000Y-40832000I150000J0D01*
G01*
X71105000Y-40832000D01*
G75*
G02*
X71255000Y-40982000I0J-150000D01*
G01*
X71255000Y-42632000D01*
G75*
G02*
X71105000Y-42782000I-150000J0D01*
G01*
G37*
G36*
G01*
X69835000Y-42782000D02*
X69535000Y-42782000D01*
G75*
G02*
X69385000Y-42632000I0J150000D01*
G01*
X69385000Y-40982000D01*
G75*
G02*
X69535000Y-40832000I150000J0D01*
G01*
X69835000Y-40832000D01*
G75*
G02*
X69985000Y-40982000I0J-150000D01*
G01*
X69985000Y-42632000D01*
G75*
G02*
X69835000Y-42782000I-150000J0D01*
G01*
G37*
G36*
G01*
X68565000Y-42782000D02*
X68265000Y-42782000D01*
G75*
G02*
X68115000Y-42632000I0J150000D01*
G01*
X68115000Y-40982000D01*
G75*
G02*
X68265000Y-40832000I150000J0D01*
G01*
X68565000Y-40832000D01*
G75*
G02*
X68715000Y-40982000I0J-150000D01*
G01*
X68715000Y-42632000D01*
G75*
G02*
X68565000Y-42782000I-150000J0D01*
G01*
G37*
G36*
G01*
X67295000Y-42782000D02*
X66995000Y-42782000D01*
G75*
G02*
X66845000Y-42632000I0J150000D01*
G01*
X66845000Y-40982000D01*
G75*
G02*
X66995000Y-40832000I150000J0D01*
G01*
X67295000Y-40832000D01*
G75*
G02*
X67445000Y-40982000I0J-150000D01*
G01*
X67445000Y-42632000D01*
G75*
G02*
X67295000Y-42782000I-150000J0D01*
G01*
G37*
G36*
G01*
X66025000Y-42782000D02*
X65725000Y-42782000D01*
G75*
G02*
X65575000Y-42632000I0J150000D01*
G01*
X65575000Y-40982000D01*
G75*
G02*
X65725000Y-40832000I150000J0D01*
G01*
X66025000Y-40832000D01*
G75*
G02*
X66175000Y-40982000I0J-150000D01*
G01*
X66175000Y-42632000D01*
G75*
G02*
X66025000Y-42782000I-150000J0D01*
G01*
G37*
G36*
G01*
X64755000Y-42782000D02*
X64455000Y-42782000D01*
G75*
G02*
X64305000Y-42632000I0J150000D01*
G01*
X64305000Y-40982000D01*
G75*
G02*
X64455000Y-40832000I150000J0D01*
G01*
X64755000Y-40832000D01*
G75*
G02*
X64905000Y-40982000I0J-150000D01*
G01*
X64905000Y-42632000D01*
G75*
G02*
X64755000Y-42782000I-150000J0D01*
G01*
G37*
G36*
G01*
X63485000Y-42782000D02*
X63185000Y-42782000D01*
G75*
G02*
X63035000Y-42632000I0J150000D01*
G01*
X63035000Y-40982000D01*
G75*
G02*
X63185000Y-40832000I150000J0D01*
G01*
X63485000Y-40832000D01*
G75*
G02*
X63635000Y-40982000I0J-150000D01*
G01*
X63635000Y-42632000D01*
G75*
G02*
X63485000Y-42782000I-150000J0D01*
G01*
G37*
G36*
G01*
X63485000Y-37832000D02*
X63185000Y-37832000D01*
G75*
G02*
X63035000Y-37682000I0J150000D01*
G01*
X63035000Y-36032000D01*
G75*
G02*
X63185000Y-35882000I150000J0D01*
G01*
X63485000Y-35882000D01*
G75*
G02*
X63635000Y-36032000I0J-150000D01*
G01*
X63635000Y-37682000D01*
G75*
G02*
X63485000Y-37832000I-150000J0D01*
G01*
G37*
G36*
G01*
X64755000Y-37832000D02*
X64455000Y-37832000D01*
G75*
G02*
X64305000Y-37682000I0J150000D01*
G01*
X64305000Y-36032000D01*
G75*
G02*
X64455000Y-35882000I150000J0D01*
G01*
X64755000Y-35882000D01*
G75*
G02*
X64905000Y-36032000I0J-150000D01*
G01*
X64905000Y-37682000D01*
G75*
G02*
X64755000Y-37832000I-150000J0D01*
G01*
G37*
G36*
G01*
X66025000Y-37832000D02*
X65725000Y-37832000D01*
G75*
G02*
X65575000Y-37682000I0J150000D01*
G01*
X65575000Y-36032000D01*
G75*
G02*
X65725000Y-35882000I150000J0D01*
G01*
X66025000Y-35882000D01*
G75*
G02*
X66175000Y-36032000I0J-150000D01*
G01*
X66175000Y-37682000D01*
G75*
G02*
X66025000Y-37832000I-150000J0D01*
G01*
G37*
G36*
G01*
X67295000Y-37832000D02*
X66995000Y-37832000D01*
G75*
G02*
X66845000Y-37682000I0J150000D01*
G01*
X66845000Y-36032000D01*
G75*
G02*
X66995000Y-35882000I150000J0D01*
G01*
X67295000Y-35882000D01*
G75*
G02*
X67445000Y-36032000I0J-150000D01*
G01*
X67445000Y-37682000D01*
G75*
G02*
X67295000Y-37832000I-150000J0D01*
G01*
G37*
G36*
G01*
X68565000Y-37832000D02*
X68265000Y-37832000D01*
G75*
G02*
X68115000Y-37682000I0J150000D01*
G01*
X68115000Y-36032000D01*
G75*
G02*
X68265000Y-35882000I150000J0D01*
G01*
X68565000Y-35882000D01*
G75*
G02*
X68715000Y-36032000I0J-150000D01*
G01*
X68715000Y-37682000D01*
G75*
G02*
X68565000Y-37832000I-150000J0D01*
G01*
G37*
G36*
G01*
X69835000Y-37832000D02*
X69535000Y-37832000D01*
G75*
G02*
X69385000Y-37682000I0J150000D01*
G01*
X69385000Y-36032000D01*
G75*
G02*
X69535000Y-35882000I150000J0D01*
G01*
X69835000Y-35882000D01*
G75*
G02*
X69985000Y-36032000I0J-150000D01*
G01*
X69985000Y-37682000D01*
G75*
G02*
X69835000Y-37832000I-150000J0D01*
G01*
G37*
G36*
G01*
X71105000Y-37832000D02*
X70805000Y-37832000D01*
G75*
G02*
X70655000Y-37682000I0J150000D01*
G01*
X70655000Y-36032000D01*
G75*
G02*
X70805000Y-35882000I150000J0D01*
G01*
X71105000Y-35882000D01*
G75*
G02*
X71255000Y-36032000I0J-150000D01*
G01*
X71255000Y-37682000D01*
G75*
G02*
X71105000Y-37832000I-150000J0D01*
G01*
G37*
G36*
G01*
X72375000Y-37832000D02*
X72075000Y-37832000D01*
G75*
G02*
X71925000Y-37682000I0J150000D01*
G01*
X71925000Y-36032000D01*
G75*
G02*
X72075000Y-35882000I150000J0D01*
G01*
X72375000Y-35882000D01*
G75*
G02*
X72525000Y-36032000I0J-150000D01*
G01*
X72525000Y-37682000D01*
G75*
G02*
X72375000Y-37832000I-150000J0D01*
G01*
G37*
%TD*%
%TO.C,Q2*%
X35842000Y-45444000D03*
X37742000Y-45444000D03*
X36792000Y-47444000D03*
%TD*%
%TO.C,Q1*%
X35842000Y-41888000D03*
X37742000Y-41888000D03*
X36792000Y-43888000D03*
%TD*%
D15*
%TO.C,J2*%
X83800000Y-29900000D03*
D16*
X81000000Y-31075000D03*
X81000000Y-35925000D03*
D15*
X83800000Y-29900000D03*
X83800000Y-37100000D03*
%TD*%
%TO.C,C1*%
G36*
G01*
X37450000Y-23475000D02*
X37450000Y-22525000D01*
G75*
G02*
X37700000Y-22275000I250000J0D01*
G01*
X38375000Y-22275000D01*
G75*
G02*
X38625000Y-22525000I0J-250000D01*
G01*
X38625000Y-23475000D01*
G75*
G02*
X38375000Y-23725000I-250000J0D01*
G01*
X37700000Y-23725000D01*
G75*
G02*
X37450000Y-23475000I0J250000D01*
G01*
G37*
G36*
G01*
X35375000Y-23475000D02*
X35375000Y-22525000D01*
G75*
G02*
X35625000Y-22275000I250000J0D01*
G01*
X36300000Y-22275000D01*
G75*
G02*
X36550000Y-22525000I0J-250000D01*
G01*
X36550000Y-23475000D01*
G75*
G02*
X36300000Y-23725000I-250000J0D01*
G01*
X35625000Y-23725000D01*
G75*
G02*
X35375000Y-23475000I0J250000D01*
G01*
G37*
%TD*%
%TO.C,C11*%
G36*
G01*
X42525000Y-63700000D02*
X43475000Y-63700000D01*
G75*
G02*
X43725000Y-63950000I0J-250000D01*
G01*
X43725000Y-64625000D01*
G75*
G02*
X43475000Y-64875000I-250000J0D01*
G01*
X42525000Y-64875000D01*
G75*
G02*
X42275000Y-64625000I0J250000D01*
G01*
X42275000Y-63950000D01*
G75*
G02*
X42525000Y-63700000I250000J0D01*
G01*
G37*
G36*
G01*
X42525000Y-61625000D02*
X43475000Y-61625000D01*
G75*
G02*
X43725000Y-61875000I0J-250000D01*
G01*
X43725000Y-62550000D01*
G75*
G02*
X43475000Y-62800000I-250000J0D01*
G01*
X42525000Y-62800000D01*
G75*
G02*
X42275000Y-62550000I0J250000D01*
G01*
X42275000Y-61875000D01*
G75*
G02*
X42525000Y-61625000I250000J0D01*
G01*
G37*
%TD*%
%TO.C,C8*%
G36*
G01*
X23525000Y-63700000D02*
X24475000Y-63700000D01*
G75*
G02*
X24725000Y-63950000I0J-250000D01*
G01*
X24725000Y-64625000D01*
G75*
G02*
X24475000Y-64875000I-250000J0D01*
G01*
X23525000Y-64875000D01*
G75*
G02*
X23275000Y-64625000I0J250000D01*
G01*
X23275000Y-63950000D01*
G75*
G02*
X23525000Y-63700000I250000J0D01*
G01*
G37*
G36*
G01*
X23525000Y-61625000D02*
X24475000Y-61625000D01*
G75*
G02*
X24725000Y-61875000I0J-250000D01*
G01*
X24725000Y-62550000D01*
G75*
G02*
X24475000Y-62800000I-250000J0D01*
G01*
X23525000Y-62800000D01*
G75*
G02*
X23275000Y-62550000I0J250000D01*
G01*
X23275000Y-61875000D01*
G75*
G02*
X23525000Y-61625000I250000J0D01*
G01*
G37*
%TD*%
%TO.C,C7*%
G36*
G01*
X63525000Y-63737500D02*
X64475000Y-63737500D01*
G75*
G02*
X64725000Y-63987500I0J-250000D01*
G01*
X64725000Y-64662500D01*
G75*
G02*
X64475000Y-64912500I-250000J0D01*
G01*
X63525000Y-64912500D01*
G75*
G02*
X63275000Y-64662500I0J250000D01*
G01*
X63275000Y-63987500D01*
G75*
G02*
X63525000Y-63737500I250000J0D01*
G01*
G37*
G36*
G01*
X63525000Y-61662500D02*
X64475000Y-61662500D01*
G75*
G02*
X64725000Y-61912500I0J-250000D01*
G01*
X64725000Y-62587500D01*
G75*
G02*
X64475000Y-62837500I-250000J0D01*
G01*
X63525000Y-62837500D01*
G75*
G02*
X63275000Y-62587500I0J250000D01*
G01*
X63275000Y-61912500D01*
G75*
G02*
X63525000Y-61662500I250000J0D01*
G01*
G37*
%TD*%
%TO.C,C6*%
G36*
G01*
X56775000Y-63700000D02*
X57725000Y-63700000D01*
G75*
G02*
X57975000Y-63950000I0J-250000D01*
G01*
X57975000Y-64625000D01*
G75*
G02*
X57725000Y-64875000I-250000J0D01*
G01*
X56775000Y-64875000D01*
G75*
G02*
X56525000Y-64625000I0J250000D01*
G01*
X56525000Y-63950000D01*
G75*
G02*
X56775000Y-63700000I250000J0D01*
G01*
G37*
G36*
G01*
X56775000Y-61625000D02*
X57725000Y-61625000D01*
G75*
G02*
X57975000Y-61875000I0J-250000D01*
G01*
X57975000Y-62550000D01*
G75*
G02*
X57725000Y-62800000I-250000J0D01*
G01*
X56775000Y-62800000D01*
G75*
G02*
X56525000Y-62550000I0J250000D01*
G01*
X56525000Y-61875000D01*
G75*
G02*
X56775000Y-61625000I250000J0D01*
G01*
G37*
%TD*%
%TO.C,C5*%
G36*
G01*
X30625000Y-20525000D02*
X30625000Y-21475000D01*
G75*
G02*
X30375000Y-21725000I-250000J0D01*
G01*
X29700000Y-21725000D01*
G75*
G02*
X29450000Y-21475000I0J250000D01*
G01*
X29450000Y-20525000D01*
G75*
G02*
X29700000Y-20275000I250000J0D01*
G01*
X30375000Y-20275000D01*
G75*
G02*
X30625000Y-20525000I0J-250000D01*
G01*
G37*
G36*
G01*
X28550000Y-20525000D02*
X28550000Y-21475000D01*
G75*
G02*
X28300000Y-21725000I-250000J0D01*
G01*
X27625000Y-21725000D01*
G75*
G02*
X27375000Y-21475000I0J250000D01*
G01*
X27375000Y-20525000D01*
G75*
G02*
X27625000Y-20275000I250000J0D01*
G01*
X28300000Y-20275000D01*
G75*
G02*
X28550000Y-20525000I0J-250000D01*
G01*
G37*
%TD*%
%TO.C,R15*%
G36*
G01*
X61600000Y-54487500D02*
X61600000Y-54012500D01*
G75*
G02*
X61837500Y-53775000I237500J0D01*
G01*
X62337500Y-53775000D01*
G75*
G02*
X62575000Y-54012500I0J-237500D01*
G01*
X62575000Y-54487500D01*
G75*
G02*
X62337500Y-54725000I-237500J0D01*
G01*
X61837500Y-54725000D01*
G75*
G02*
X61600000Y-54487500I0J237500D01*
G01*
G37*
G36*
G01*
X63425000Y-54487500D02*
X63425000Y-54012500D01*
G75*
G02*
X63662500Y-53775000I237500J0D01*
G01*
X64162500Y-53775000D01*
G75*
G02*
X64400000Y-54012500I0J-237500D01*
G01*
X64400000Y-54487500D01*
G75*
G02*
X64162500Y-54725000I-237500J0D01*
G01*
X63662500Y-54725000D01*
G75*
G02*
X63425000Y-54487500I0J237500D01*
G01*
G37*
%TD*%
%TO.C,R16*%
G36*
G01*
X61600000Y-52737500D02*
X61600000Y-52262500D01*
G75*
G02*
X61837500Y-52025000I237500J0D01*
G01*
X62337500Y-52025000D01*
G75*
G02*
X62575000Y-52262500I0J-237500D01*
G01*
X62575000Y-52737500D01*
G75*
G02*
X62337500Y-52975000I-237500J0D01*
G01*
X61837500Y-52975000D01*
G75*
G02*
X61600000Y-52737500I0J237500D01*
G01*
G37*
G36*
G01*
X63425000Y-52737500D02*
X63425000Y-52262500D01*
G75*
G02*
X63662500Y-52025000I237500J0D01*
G01*
X64162500Y-52025000D01*
G75*
G02*
X64400000Y-52262500I0J-237500D01*
G01*
X64400000Y-52737500D01*
G75*
G02*
X64162500Y-52975000I-237500J0D01*
G01*
X63662500Y-52975000D01*
G75*
G02*
X63425000Y-52737500I0J237500D01*
G01*
G37*
%TD*%
%TO.C,R13*%
G36*
G01*
X61600000Y-47487500D02*
X61600000Y-47012500D01*
G75*
G02*
X61837500Y-46775000I237500J0D01*
G01*
X62337500Y-46775000D01*
G75*
G02*
X62575000Y-47012500I0J-237500D01*
G01*
X62575000Y-47487500D01*
G75*
G02*
X62337500Y-47725000I-237500J0D01*
G01*
X61837500Y-47725000D01*
G75*
G02*
X61600000Y-47487500I0J237500D01*
G01*
G37*
G36*
G01*
X63425000Y-47487500D02*
X63425000Y-47012500D01*
G75*
G02*
X63662500Y-46775000I237500J0D01*
G01*
X64162500Y-46775000D01*
G75*
G02*
X64400000Y-47012500I0J-237500D01*
G01*
X64400000Y-47487500D01*
G75*
G02*
X64162500Y-47725000I-237500J0D01*
G01*
X63662500Y-47725000D01*
G75*
G02*
X63425000Y-47487500I0J237500D01*
G01*
G37*
%TD*%
%TO.C,R14*%
G36*
G01*
X61600000Y-57987500D02*
X61600000Y-57512500D01*
G75*
G02*
X61837500Y-57275000I237500J0D01*
G01*
X62337500Y-57275000D01*
G75*
G02*
X62575000Y-57512500I0J-237500D01*
G01*
X62575000Y-57987500D01*
G75*
G02*
X62337500Y-58225000I-237500J0D01*
G01*
X61837500Y-58225000D01*
G75*
G02*
X61600000Y-57987500I0J237500D01*
G01*
G37*
G36*
G01*
X63425000Y-57987500D02*
X63425000Y-57512500D01*
G75*
G02*
X63662500Y-57275000I237500J0D01*
G01*
X64162500Y-57275000D01*
G75*
G02*
X64400000Y-57512500I0J-237500D01*
G01*
X64400000Y-57987500D01*
G75*
G02*
X64162500Y-58225000I-237500J0D01*
G01*
X63662500Y-58225000D01*
G75*
G02*
X63425000Y-57987500I0J237500D01*
G01*
G37*
%TD*%
%TO.C,R12*%
G36*
G01*
X61600000Y-50987500D02*
X61600000Y-50512500D01*
G75*
G02*
X61837500Y-50275000I237500J0D01*
G01*
X62337500Y-50275000D01*
G75*
G02*
X62575000Y-50512500I0J-237500D01*
G01*
X62575000Y-50987500D01*
G75*
G02*
X62337500Y-51225000I-237500J0D01*
G01*
X61837500Y-51225000D01*
G75*
G02*
X61600000Y-50987500I0J237500D01*
G01*
G37*
G36*
G01*
X63425000Y-50987500D02*
X63425000Y-50512500D01*
G75*
G02*
X63662500Y-50275000I237500J0D01*
G01*
X64162500Y-50275000D01*
G75*
G02*
X64400000Y-50512500I0J-237500D01*
G01*
X64400000Y-50987500D01*
G75*
G02*
X64162500Y-51225000I-237500J0D01*
G01*
X63662500Y-51225000D01*
G75*
G02*
X63425000Y-50987500I0J237500D01*
G01*
G37*
%TD*%
D17*
%TO.C,J1*%
X62681281Y-20534799D03*
X65221281Y-20534799D03*
X67761281Y-20534799D03*
D18*
X70301281Y-20534799D03*
%TD*%
%TO.C,C2*%
G36*
G01*
X36100000Y-19599998D02*
X36100000Y-20900002D01*
G75*
G02*
X35850002Y-21150000I-249998J0D01*
G01*
X35024998Y-21150000D01*
G75*
G02*
X34775000Y-20900002I0J249998D01*
G01*
X34775000Y-19599998D01*
G75*
G02*
X35024998Y-19350000I249998J0D01*
G01*
X35850002Y-19350000D01*
G75*
G02*
X36100000Y-19599998I0J-249998D01*
G01*
G37*
G36*
G01*
X39225000Y-19599998D02*
X39225000Y-20900002D01*
G75*
G02*
X38975002Y-21150000I-249998J0D01*
G01*
X38149998Y-21150000D01*
G75*
G02*
X37900000Y-20900002I0J249998D01*
G01*
X37900000Y-19599998D01*
G75*
G02*
X38149998Y-19350000I249998J0D01*
G01*
X38975002Y-19350000D01*
G75*
G02*
X39225000Y-19599998I0J-249998D01*
G01*
G37*
%TD*%
M02*
