%TF.GenerationSoftware,KiCad,Pcbnew,(5.1.10)-1*%
%TF.CreationDate,2021-10-03T21:55:55+02:00*%
%TF.ProjectId,KitchenTimer,4b697463-6865-46e5-9469-6d65722e6b69,rev?*%
%TF.SameCoordinates,Original*%
%TF.FileFunction,Paste,Top*%
%TF.FilePolarity,Positive*%
%FSLAX46Y46*%
G04 Gerber Fmt 4.6, Leading zero omitted, Abs format (unit mm)*
G04 Created by KiCad (PCBNEW (5.1.10)-1) date 2021-10-03 21:55:55*
%MOMM*%
%LPD*%
G01*
G04 APERTURE LIST*
%ADD10C,0.100000*%
%ADD11R,1.500000X0.900000*%
%ADD12R,1.250000X0.400000*%
%ADD13R,1.550000X1.300000*%
%ADD14R,2.100000X2.400000*%
G04 APERTURE END LIST*
D10*
%TO.C,J2*%
G36*
X84650000Y-37400000D02*
G01*
X84650000Y-38500000D01*
X82900000Y-38500000D01*
X82900000Y-37400000D01*
X84650000Y-37400000D01*
G37*
X84650000Y-37400000D02*
X84650000Y-38500000D01*
X82900000Y-38500000D01*
X82900000Y-37400000D01*
X84650000Y-37400000D01*
G36*
X82900000Y-29600000D02*
G01*
X82900000Y-28450000D01*
X84700000Y-28450000D01*
X84700000Y-29600000D01*
X82900000Y-29600000D01*
G37*
X82900000Y-29600000D02*
X82900000Y-28450000D01*
X84700000Y-28450000D01*
X84700000Y-29600000D01*
X82900000Y-29600000D01*
%TD*%
%TO.C,C12*%
G36*
G01*
X76225000Y-26099998D02*
X76225000Y-27400002D01*
G75*
G02*
X75975002Y-27650000I-249998J0D01*
G01*
X75149998Y-27650000D01*
G75*
G02*
X74900000Y-27400002I0J249998D01*
G01*
X74900000Y-26099998D01*
G75*
G02*
X75149998Y-25850000I249998J0D01*
G01*
X75975002Y-25850000D01*
G75*
G02*
X76225000Y-26099998I0J-249998D01*
G01*
G37*
G36*
G01*
X73100000Y-26099998D02*
X73100000Y-27400002D01*
G75*
G02*
X72850002Y-27650000I-249998J0D01*
G01*
X72024998Y-27650000D01*
G75*
G02*
X71775000Y-27400002I0J249998D01*
G01*
X71775000Y-26099998D01*
G75*
G02*
X72024998Y-25850000I249998J0D01*
G01*
X72850002Y-25850000D01*
G75*
G02*
X73100000Y-26099998I0J-249998D01*
G01*
G37*
%TD*%
%TO.C,C10*%
G36*
G01*
X73100000Y-28599998D02*
X73100000Y-29900002D01*
G75*
G02*
X72850002Y-30150000I-249998J0D01*
G01*
X72024998Y-30150000D01*
G75*
G02*
X71775000Y-29900002I0J249998D01*
G01*
X71775000Y-28599998D01*
G75*
G02*
X72024998Y-28350000I249998J0D01*
G01*
X72850002Y-28350000D01*
G75*
G02*
X73100000Y-28599998I0J-249998D01*
G01*
G37*
G36*
G01*
X76225000Y-28599998D02*
X76225000Y-29900002D01*
G75*
G02*
X75975002Y-30150000I-249998J0D01*
G01*
X75149998Y-30150000D01*
G75*
G02*
X74900000Y-29900002I0J249998D01*
G01*
X74900000Y-28599998D01*
G75*
G02*
X75149998Y-28350000I249998J0D01*
G01*
X75975002Y-28350000D01*
G75*
G02*
X76225000Y-28599998I0J-249998D01*
G01*
G37*
%TD*%
D11*
%TO.C,U1*%
X41210000Y-25200000D03*
X41210000Y-26700000D03*
X41210000Y-28200000D03*
X41210000Y-29700000D03*
X41210000Y-31200000D03*
X41210000Y-32700000D03*
X41210000Y-34200000D03*
X41210000Y-35700000D03*
X41210000Y-37200000D03*
X58710000Y-37200000D03*
X58710000Y-35700000D03*
X58710000Y-34200000D03*
X58710000Y-32700000D03*
X58710000Y-31200000D03*
X58710000Y-29700000D03*
X58710000Y-28200000D03*
X58710000Y-26700000D03*
X58710000Y-25200000D03*
%TD*%
%TO.C,J2*%
G36*
G01*
X84300000Y-35000000D02*
X83300000Y-35000000D01*
G75*
G02*
X82800000Y-34500000I0J500000D01*
G01*
X82800000Y-32500000D01*
G75*
G02*
X83300000Y-32000000I500000J0D01*
G01*
X84300000Y-32000000D01*
G75*
G02*
X84800000Y-32500000I0J-500000D01*
G01*
X84800000Y-34500000D01*
G75*
G02*
X84300000Y-35000000I-500000J0D01*
G01*
G37*
D12*
X81000000Y-32150000D03*
X81000000Y-32850000D03*
X81000000Y-33500000D03*
X81000000Y-34150000D03*
X81000000Y-34800000D03*
%TD*%
%TO.C,C13*%
G36*
G01*
X76225000Y-23599998D02*
X76225000Y-24900002D01*
G75*
G02*
X75975002Y-25150000I-249998J0D01*
G01*
X75149998Y-25150000D01*
G75*
G02*
X74900000Y-24900002I0J249998D01*
G01*
X74900000Y-23599998D01*
G75*
G02*
X75149998Y-23350000I249998J0D01*
G01*
X75975002Y-23350000D01*
G75*
G02*
X76225000Y-23599998I0J-249998D01*
G01*
G37*
G36*
G01*
X73100000Y-23599998D02*
X73100000Y-24900002D01*
G75*
G02*
X72850002Y-25150000I-249998J0D01*
G01*
X72024998Y-25150000D01*
G75*
G02*
X71775000Y-24900002I0J249998D01*
G01*
X71775000Y-23599998D01*
G75*
G02*
X72024998Y-23350000I249998J0D01*
G01*
X72850002Y-23350000D01*
G75*
G02*
X73100000Y-23599998I0J-249998D01*
G01*
G37*
%TD*%
%TO.C,C9*%
G36*
G01*
X73100000Y-31099998D02*
X73100000Y-32400002D01*
G75*
G02*
X72850002Y-32650000I-249998J0D01*
G01*
X72024998Y-32650000D01*
G75*
G02*
X71775000Y-32400002I0J249998D01*
G01*
X71775000Y-31099998D01*
G75*
G02*
X72024998Y-30850000I249998J0D01*
G01*
X72850002Y-30850000D01*
G75*
G02*
X73100000Y-31099998I0J-249998D01*
G01*
G37*
G36*
G01*
X76225000Y-31099998D02*
X76225000Y-32400002D01*
G75*
G02*
X75975002Y-32650000I-249998J0D01*
G01*
X75149998Y-32650000D01*
G75*
G02*
X74900000Y-32400002I0J249998D01*
G01*
X74900000Y-31099998D01*
G75*
G02*
X75149998Y-30850000I249998J0D01*
G01*
X75975002Y-30850000D01*
G75*
G02*
X76225000Y-31099998I0J-249998D01*
G01*
G37*
%TD*%
D13*
%TO.C,SW6*%
X44975000Y-62250000D03*
X44975000Y-66750000D03*
X37025000Y-66750000D03*
X37025000Y-62250000D03*
%TD*%
%TO.C,SW5*%
X33975000Y-62250000D03*
X33975000Y-66750000D03*
X26025000Y-66750000D03*
X26025000Y-62250000D03*
%TD*%
%TO.C,SW4*%
X73975000Y-62250000D03*
X73975000Y-66750000D03*
X66025000Y-66750000D03*
X66025000Y-62250000D03*
%TD*%
%TO.C,SW3*%
X62975000Y-62250000D03*
X62975000Y-66750000D03*
X55025000Y-66750000D03*
X55025000Y-62250000D03*
%TD*%
D14*
%TO.C,SW2*%
X30750000Y-27940000D03*
X30750000Y-20140000D03*
%TD*%
%TO.C,SW1*%
X34500000Y-27940000D03*
X34500000Y-20140000D03*
%TD*%
M02*
